<svg id="CircleGrid" xmlns="http://www.w3.org/2000/svg" xmlns:xlink="http://www.w3.org/1999/xlink" width="1920" height="1080" viewBox="0 0 1920 1080">
  <defs>
    <style>
      .cls-1 {
        filter: url(#luminosity-noclip);
      }

      .cls-2 {
        mask: url(#mask);
      }

      .cls-3 {
        fill: #fff;
      }
    </style>
    <filter id="luminosity-noclip" x="0" y="0" width="1920" height="1080" filterUnits="userSpaceOnUse" color-interpolation-filters="sRGB">
      <feFlood flood-color="#fff" result="bg"/>
      <feBlend in="SourceGraphic" in2="bg"/>
    </filter>
    <mask id="mask" x="0" y="0" width="1920" height="1080" maskUnits="userSpaceOnUse">
      <path class="cls-1" d="M36.26,27.13A9.13,9.13,0,1,1,27.13,18,9.13,9.13,0,0,1,36.26,27.13ZM27.13,54.52a9.13,9.13,0,1,0,9.13,9.13A9.13,9.13,0,0,0,27.13,54.52Zm0,36.52a9.13,9.13,0,1,0,9.13,9.13A9.13,9.13,0,0,0,27.13,91Zm0,36.52a9.13,9.13,0,1,0,9.13,9.13A9.13,9.13,0,0,0,27.13,127.57Zm0,36.52a9.13,9.13,0,1,0,9.13,9.13A9.13,9.13,0,0,0,27.13,164.1Zm0,36.52a9.13,9.13,0,1,0,9.13,9.13A9.13,9.13,0,0,0,27.13,200.62Zm0,36.52a9.13,9.13,0,1,0,9.13,9.13A9.13,9.13,0,0,0,27.13,237.15Zm0,36.52a9.13,9.13,0,1,0,9.13,9.13A9.13,9.13,0,0,0,27.13,273.67Zm0,36.52a9.13,9.13,0,1,0,9.13,9.13A9.13,9.13,0,0,0,27.13,310.19Zm0,36.52a9.13,9.13,0,1,0,9.13,9.13A9.13,9.13,0,0,0,27.13,346.72Zm0,36.52a9.13,9.13,0,1,0,9.13,9.13A9.13,9.13,0,0,0,27.13,383.24Zm0,36.52a9.13,9.13,0,1,0,9.13,9.13A9.13,9.13,0,0,0,27.13,419.77Zm0,36.52a9.13,9.13,0,1,0,9.13,9.13A9.13,9.13,0,0,0,27.13,456.29Zm0,36.52a9.13,9.13,0,1,0,9.13,9.13A9.13,9.13,0,0,0,27.13,492.82Zm0,36.52a9.13,9.13,0,1,0,9.13,9.13A9.13,9.13,0,0,0,27.13,529.34Zm0,36.52A9.13,9.13,0,1,0,36.26,575,9.13,9.13,0,0,0,27.13,565.86Zm0,36.52a9.13,9.13,0,1,0,9.13,9.13A9.13,9.13,0,0,0,27.13,602.39Zm0,36.52A9.13,9.13,0,1,0,36.26,648,9.13,9.13,0,0,0,27.13,638.91Zm0,36.52a9.13,9.13,0,1,0,9.13,9.13A9.13,9.13,0,0,0,27.13,675.44Zm0,36.52a9.13,9.13,0,1,0,9.13,9.13A9.13,9.13,0,0,0,27.13,712Zm0,36.52a9.13,9.13,0,1,0,9.13,9.13A9.13,9.13,0,0,0,27.13,748.49Zm0,36.52a9.13,9.13,0,1,0,9.13,9.13A9.13,9.13,0,0,0,27.13,785Zm0,36.52a9.13,9.13,0,1,0,9.13,9.13A9.13,9.13,0,0,0,27.13,821.53Zm0,36.52a9.13,9.13,0,1,0,9.13,9.13A9.13,9.13,0,0,0,27.13,858.06Zm0,36.52a9.13,9.13,0,1,0,9.13,9.13A9.13,9.13,0,0,0,27.13,894.58Zm0,36.52a9.13,9.13,0,1,0,9.13,9.13A9.13,9.13,0,0,0,27.13,931.11Zm0,36.52a9.13,9.13,0,1,0,9.13,9.13A9.13,9.13,0,0,0,27.13,967.63Zm0,36.52a9.13,9.13,0,1,0,9.13,9.13A9.13,9.13,0,0,0,27.13,1004.16Zm0,36.52a9.13,9.13,0,1,0,9.13,9.13A9.13,9.13,0,0,0,27.13,1040.68ZM63.66,18a9.13,9.13,0,1,0,9.13,9.13A9.13,9.13,0,0,0,63.66,18Zm0,36.52a9.13,9.13,0,1,0,9.13,9.13A9.13,9.13,0,0,0,63.66,54.52Zm0,36.52a9.13,9.13,0,1,0,9.13,9.13A9.13,9.13,0,0,0,63.66,91Zm0,36.52a9.13,9.13,0,1,0,9.13,9.13A9.13,9.13,0,0,0,63.66,127.57Zm0,36.52a9.13,9.13,0,1,0,9.13,9.13A9.13,9.13,0,0,0,63.66,164.1Zm0,36.52a9.13,9.13,0,1,0,9.13,9.13A9.13,9.13,0,0,0,63.66,200.62Zm0,36.52a9.13,9.13,0,1,0,9.13,9.13A9.13,9.13,0,0,0,63.66,237.15Zm0,36.52a9.13,9.13,0,1,0,9.13,9.13A9.13,9.13,0,0,0,63.66,273.67Zm0,36.52a9.13,9.13,0,1,0,9.13,9.13A9.13,9.13,0,0,0,63.66,310.19Zm0,36.52a9.13,9.13,0,1,0,9.13,9.13A9.13,9.13,0,0,0,63.66,346.72Zm0,36.52a9.13,9.13,0,1,0,9.13,9.13A9.13,9.13,0,0,0,63.66,383.24Zm0,36.52a9.13,9.13,0,1,0,9.13,9.13A9.13,9.13,0,0,0,63.66,419.77Zm0,36.52a9.13,9.13,0,1,0,9.13,9.13A9.13,9.13,0,0,0,63.66,456.29Zm0,36.52a9.13,9.13,0,1,0,9.13,9.13A9.13,9.13,0,0,0,63.66,492.82Zm0,36.52a9.13,9.13,0,1,0,9.13,9.13A9.13,9.13,0,0,0,63.66,529.34Zm0,36.52A9.13,9.13,0,1,0,72.79,575,9.13,9.13,0,0,0,63.66,565.86Zm0,36.52a9.13,9.13,0,1,0,9.13,9.13A9.13,9.13,0,0,0,63.66,602.39Zm0,36.52A9.13,9.13,0,1,0,72.79,648,9.13,9.13,0,0,0,63.66,638.91Zm0,36.52a9.13,9.13,0,1,0,9.13,9.13A9.13,9.13,0,0,0,63.66,675.44Zm0,36.52a9.13,9.13,0,1,0,9.13,9.13A9.13,9.13,0,0,0,63.66,712Zm0,36.52a9.13,9.13,0,1,0,9.13,9.13A9.13,9.13,0,0,0,63.66,748.49Zm0,36.52a9.13,9.13,0,1,0,9.13,9.13A9.13,9.13,0,0,0,63.66,785Zm0,36.52a9.13,9.13,0,1,0,9.13,9.13A9.13,9.13,0,0,0,63.66,821.53Zm0,36.52a9.13,9.13,0,1,0,9.13,9.13A9.13,9.13,0,0,0,63.66,858.06Zm0,36.52a9.13,9.13,0,1,0,9.13,9.13A9.13,9.13,0,0,0,63.66,894.58Zm0,36.52a9.13,9.13,0,1,0,9.13,9.13A9.13,9.13,0,0,0,63.66,931.11Zm0,36.52a9.13,9.13,0,1,0,9.13,9.13A9.13,9.13,0,0,0,63.66,967.63Zm0,36.52a9.13,9.13,0,1,0,9.13,9.13A9.13,9.13,0,0,0,63.66,1004.16Zm0,36.52a9.13,9.13,0,1,0,9.13,9.13A9.13,9.13,0,0,0,63.66,1040.68ZM100.18,18a9.13,9.13,0,1,0,9.13,9.13A9.13,9.13,0,0,0,100.18,18Zm0,36.52a9.13,9.13,0,1,0,9.13,9.13A9.13,9.13,0,0,0,100.18,54.52Zm0,36.52a9.13,9.13,0,1,0,9.13,9.13A9.13,9.13,0,0,0,100.18,91Zm0,36.52a9.13,9.13,0,1,0,9.13,9.13A9.13,9.13,0,0,0,100.18,127.57Zm0,36.52a9.13,9.13,0,1,0,9.13,9.13A9.13,9.13,0,0,0,100.18,164.1Zm0,36.52a9.13,9.13,0,1,0,9.13,9.13A9.13,9.13,0,0,0,100.18,200.62Zm0,36.52a9.13,9.13,0,1,0,9.13,9.13A9.13,9.13,0,0,0,100.18,237.15Zm0,36.52a9.13,9.13,0,1,0,9.13,9.13A9.13,9.13,0,0,0,100.18,273.67Zm0,36.52a9.13,9.13,0,1,0,9.13,9.13A9.13,9.13,0,0,0,100.18,310.19Zm0,36.52a9.13,9.13,0,1,0,9.13,9.13A9.13,9.13,0,0,0,100.18,346.72Zm0,36.52a9.13,9.13,0,1,0,9.13,9.13A9.13,9.13,0,0,0,100.18,383.24Zm0,36.52a9.13,9.13,0,1,0,9.13,9.13A9.13,9.13,0,0,0,100.18,419.77Zm0,36.52a9.13,9.13,0,1,0,9.13,9.13A9.13,9.13,0,0,0,100.18,456.29Zm0,36.52a9.13,9.13,0,1,0,9.13,9.13A9.13,9.13,0,0,0,100.18,492.82Zm0,36.52a9.13,9.13,0,1,0,9.13,9.13A9.13,9.13,0,0,0,100.18,529.34Zm0,36.52a9.13,9.13,0,1,0,9.13,9.13A9.13,9.13,0,0,0,100.18,565.86Zm0,36.52a9.13,9.13,0,1,0,9.13,9.13A9.13,9.13,0,0,0,100.18,602.39Zm0,36.52a9.13,9.13,0,1,0,9.13,9.13A9.13,9.13,0,0,0,100.18,638.91Zm0,36.52a9.13,9.13,0,1,0,9.13,9.13A9.13,9.13,0,0,0,100.18,675.44Zm0,36.52a9.13,9.13,0,1,0,9.13,9.13A9.13,9.13,0,0,0,100.18,712Zm0,36.52a9.13,9.13,0,1,0,9.13,9.13A9.13,9.13,0,0,0,100.18,748.49Zm0,36.52a9.13,9.13,0,1,0,9.13,9.13A9.13,9.13,0,0,0,100.18,785Zm0,36.52a9.13,9.13,0,1,0,9.13,9.13A9.13,9.13,0,0,0,100.18,821.53Zm0,36.52a9.13,9.13,0,1,0,9.13,9.13A9.13,9.13,0,0,0,100.18,858.06Zm0,36.52a9.13,9.13,0,1,0,9.13,9.13A9.13,9.13,0,0,0,100.18,894.58Zm0,36.52a9.13,9.13,0,1,0,9.13,9.13A9.13,9.13,0,0,0,100.18,931.11Zm0,36.52a9.13,9.13,0,1,0,9.13,9.13A9.13,9.13,0,0,0,100.18,967.63Zm0,36.52a9.13,9.13,0,1,0,9.13,9.13A9.13,9.13,0,0,0,100.18,1004.16Zm0,36.52a9.13,9.13,0,1,0,9.13,9.13A9.13,9.13,0,0,0,100.18,1040.68ZM136.7,18a9.13,9.13,0,1,0,9.13,9.13A9.13,9.13,0,0,0,136.7,18Zm0,36.52a9.13,9.13,0,1,0,9.13,9.13A9.13,9.13,0,0,0,136.7,54.52Zm0,36.52a9.13,9.13,0,1,0,9.13,9.13A9.13,9.13,0,0,0,136.7,91Zm0,36.52a9.13,9.13,0,1,0,9.13,9.13A9.13,9.13,0,0,0,136.7,127.57Zm0,36.52a9.13,9.13,0,1,0,9.13,9.13A9.13,9.13,0,0,0,136.7,164.1Zm0,36.52a9.13,9.13,0,1,0,9.13,9.13A9.13,9.13,0,0,0,136.7,200.62Zm0,36.52a9.13,9.13,0,1,0,9.13,9.13A9.13,9.13,0,0,0,136.7,237.15Zm0,36.52a9.13,9.13,0,1,0,9.13,9.13A9.13,9.13,0,0,0,136.7,273.67Zm0,36.52a9.13,9.13,0,1,0,9.13,9.13A9.13,9.13,0,0,0,136.7,310.19Zm0,36.52a9.13,9.13,0,1,0,9.13,9.13A9.13,9.13,0,0,0,136.7,346.72Zm0,36.52a9.13,9.13,0,1,0,9.13,9.13A9.13,9.13,0,0,0,136.7,383.24Zm0,36.52a9.13,9.13,0,1,0,9.13,9.13A9.13,9.13,0,0,0,136.7,419.77Zm0,36.52a9.13,9.13,0,1,0,9.13,9.13A9.13,9.13,0,0,0,136.7,456.29Zm0,36.52a9.13,9.13,0,1,0,9.13,9.13A9.13,9.13,0,0,0,136.7,492.82Zm0,36.52a9.13,9.13,0,1,0,9.13,9.13A9.13,9.13,0,0,0,136.7,529.34Zm0,36.52a9.13,9.13,0,1,0,9.13,9.13A9.13,9.13,0,0,0,136.7,565.86Zm0,36.52a9.13,9.13,0,1,0,9.13,9.13A9.13,9.13,0,0,0,136.7,602.39Zm0,36.52a9.13,9.13,0,1,0,9.13,9.13A9.13,9.13,0,0,0,136.7,638.91Zm0,36.52a9.13,9.13,0,1,0,9.13,9.13A9.13,9.13,0,0,0,136.7,675.44Zm0,36.52a9.13,9.13,0,1,0,9.13,9.13A9.13,9.13,0,0,0,136.7,712Zm0,36.52a9.13,9.13,0,1,0,9.13,9.13A9.13,9.13,0,0,0,136.7,748.49Zm0,36.52a9.13,9.13,0,1,0,9.13,9.13A9.13,9.13,0,0,0,136.7,785Zm0,36.52a9.13,9.13,0,1,0,9.13,9.13A9.13,9.13,0,0,0,136.7,821.53Zm0,36.52a9.13,9.13,0,1,0,9.13,9.13A9.13,9.13,0,0,0,136.7,858.06Zm0,36.52a9.13,9.13,0,1,0,9.13,9.13A9.13,9.13,0,0,0,136.7,894.58Zm0,36.52a9.13,9.13,0,1,0,9.13,9.13A9.13,9.13,0,0,0,136.7,931.11Zm0,36.52a9.13,9.13,0,1,0,9.13,9.13A9.13,9.13,0,0,0,136.7,967.63Zm0,36.52a9.13,9.13,0,1,0,9.13,9.13A9.13,9.13,0,0,0,136.7,1004.16Zm0,36.52a9.13,9.13,0,1,0,9.13,9.13A9.13,9.13,0,0,0,136.7,1040.68ZM173.23,18a9.13,9.13,0,1,0,9.13,9.13A9.13,9.13,0,0,0,173.23,18Zm0,36.52a9.13,9.13,0,1,0,9.13,9.13A9.13,9.13,0,0,0,173.23,54.52Zm0,36.52a9.13,9.13,0,1,0,9.13,9.13A9.13,9.13,0,0,0,173.23,91Zm0,36.52a9.13,9.13,0,1,0,9.13,9.13A9.13,9.13,0,0,0,173.23,127.57Zm0,36.52a9.13,9.13,0,1,0,9.13,9.13A9.13,9.13,0,0,0,173.23,164.1Zm0,36.52a9.13,9.13,0,1,0,9.13,9.13A9.13,9.13,0,0,0,173.23,200.62Zm0,36.52a9.13,9.13,0,1,0,9.13,9.13A9.13,9.13,0,0,0,173.23,237.15Zm0,36.52a9.13,9.13,0,1,0,9.13,9.13A9.13,9.13,0,0,0,173.23,273.67Zm0,36.52a9.13,9.13,0,1,0,9.13,9.13A9.13,9.13,0,0,0,173.23,310.19Zm0,36.52a9.13,9.13,0,1,0,9.13,9.13A9.13,9.13,0,0,0,173.23,346.72Zm0,36.52a9.13,9.13,0,1,0,9.13,9.13A9.13,9.13,0,0,0,173.23,383.24Zm0,36.52a9.13,9.13,0,1,0,9.13,9.13A9.13,9.13,0,0,0,173.23,419.77Zm0,36.52a9.13,9.13,0,1,0,9.13,9.13A9.13,9.13,0,0,0,173.23,456.29Zm0,36.52a9.13,9.13,0,1,0,9.13,9.13A9.13,9.13,0,0,0,173.23,492.82Zm0,36.52a9.13,9.13,0,1,0,9.13,9.13A9.13,9.13,0,0,0,173.23,529.34Zm0,36.52a9.13,9.13,0,1,0,9.13,9.13A9.13,9.13,0,0,0,173.23,565.86Zm0,36.52a9.13,9.13,0,1,0,9.13,9.13A9.13,9.13,0,0,0,173.23,602.39Zm0,36.52a9.13,9.13,0,1,0,9.13,9.13A9.13,9.13,0,0,0,173.23,638.91Zm0,36.52a9.13,9.13,0,1,0,9.13,9.13A9.13,9.13,0,0,0,173.23,675.44Zm0,36.52a9.13,9.13,0,1,0,9.13,9.13A9.13,9.13,0,0,0,173.23,712Zm0,36.52a9.13,9.13,0,1,0,9.13,9.13A9.13,9.13,0,0,0,173.23,748.49Zm0,36.52a9.13,9.13,0,1,0,9.13,9.13A9.13,9.13,0,0,0,173.23,785Zm0,36.52a9.13,9.13,0,1,0,9.13,9.13A9.13,9.13,0,0,0,173.23,821.53Zm0,36.52a9.13,9.13,0,1,0,9.13,9.13A9.13,9.13,0,0,0,173.23,858.06Zm0,36.52a9.13,9.13,0,1,0,9.13,9.13A9.13,9.13,0,0,0,173.23,894.58Zm0,36.52a9.13,9.13,0,1,0,9.13,9.13A9.13,9.13,0,0,0,173.23,931.11Zm0,36.52a9.13,9.13,0,1,0,9.13,9.13A9.13,9.13,0,0,0,173.23,967.63Zm0,36.52a9.13,9.13,0,1,0,9.13,9.13A9.13,9.13,0,0,0,173.23,1004.16Zm0,36.52a9.13,9.13,0,1,0,9.13,9.13A9.13,9.13,0,0,0,173.23,1040.68ZM209.75,18a9.13,9.13,0,1,0,9.13,9.13A9.13,9.13,0,0,0,209.75,18Zm0,36.52a9.13,9.13,0,1,0,9.13,9.13A9.13,9.13,0,0,0,209.75,54.52Zm0,36.52a9.13,9.13,0,1,0,9.13,9.13A9.13,9.13,0,0,0,209.75,91Zm0,36.52a9.13,9.13,0,1,0,9.13,9.13A9.13,9.13,0,0,0,209.75,127.57Zm0,36.52a9.13,9.13,0,1,0,9.13,9.13A9.13,9.13,0,0,0,209.75,164.1Zm0,36.52a9.13,9.13,0,1,0,9.13,9.13A9.13,9.13,0,0,0,209.75,200.62Zm0,36.52a9.13,9.13,0,1,0,9.13,9.13A9.13,9.13,0,0,0,209.75,237.15Zm0,36.52a9.13,9.13,0,1,0,9.13,9.13A9.13,9.13,0,0,0,209.75,273.67Zm0,36.52a9.13,9.13,0,1,0,9.13,9.13A9.13,9.13,0,0,0,209.75,310.19Zm0,36.52a9.13,9.13,0,1,0,9.13,9.13A9.13,9.13,0,0,0,209.75,346.72Zm0,36.52a9.13,9.13,0,1,0,9.13,9.13A9.13,9.13,0,0,0,209.75,383.24Zm0,36.52a9.13,9.13,0,1,0,9.13,9.13A9.13,9.13,0,0,0,209.75,419.77Zm0,36.52a9.13,9.13,0,1,0,9.13,9.13A9.13,9.13,0,0,0,209.75,456.29Zm0,36.52a9.13,9.13,0,1,0,9.13,9.13A9.13,9.13,0,0,0,209.75,492.82Zm0,36.52a9.13,9.13,0,1,0,9.13,9.13A9.13,9.13,0,0,0,209.75,529.34Zm0,36.52a9.13,9.13,0,1,0,9.13,9.13A9.13,9.13,0,0,0,209.75,565.86Zm0,36.52a9.13,9.13,0,1,0,9.13,9.13A9.13,9.13,0,0,0,209.75,602.39Zm0,36.52a9.13,9.13,0,1,0,9.13,9.13A9.13,9.13,0,0,0,209.75,638.91Zm0,36.52a9.13,9.13,0,1,0,9.13,9.13A9.13,9.13,0,0,0,209.75,675.44Zm0,36.52a9.13,9.13,0,1,0,9.13,9.13A9.13,9.13,0,0,0,209.75,712Zm0,36.52a9.13,9.13,0,1,0,9.13,9.13A9.13,9.13,0,0,0,209.75,748.49Zm0,36.52a9.13,9.13,0,1,0,9.13,9.13A9.13,9.13,0,0,0,209.75,785Zm0,36.52a9.13,9.13,0,1,0,9.13,9.13A9.13,9.13,0,0,0,209.75,821.53Zm0,36.52a9.13,9.13,0,1,0,9.13,9.13A9.13,9.13,0,0,0,209.75,858.06Zm0,36.52a9.13,9.13,0,1,0,9.13,9.13A9.13,9.13,0,0,0,209.75,894.58Zm0,36.52a9.13,9.13,0,1,0,9.13,9.13A9.13,9.13,0,0,0,209.75,931.11Zm0,36.52a9.13,9.13,0,1,0,9.13,9.13A9.13,9.13,0,0,0,209.75,967.63Zm0,36.52a9.13,9.13,0,1,0,9.13,9.13A9.13,9.13,0,0,0,209.75,1004.16Zm0,36.52a9.13,9.13,0,1,0,9.13,9.13A9.13,9.13,0,0,0,209.75,1040.68ZM246.28,18a9.13,9.13,0,1,0,9.13,9.13A9.13,9.13,0,0,0,246.28,18Zm0,36.52a9.13,9.13,0,1,0,9.13,9.13A9.13,9.13,0,0,0,246.28,54.52Zm0,36.52a9.13,9.13,0,1,0,9.13,9.13A9.13,9.13,0,0,0,246.28,91Zm0,36.52a9.13,9.13,0,1,0,9.13,9.13A9.13,9.13,0,0,0,246.28,127.57Zm0,36.52a9.13,9.13,0,1,0,9.13,9.13A9.13,9.13,0,0,0,246.28,164.1Zm0,36.52a9.13,9.13,0,1,0,9.13,9.13A9.13,9.13,0,0,0,246.28,200.62Zm0,36.52a9.13,9.13,0,1,0,9.13,9.13A9.13,9.13,0,0,0,246.28,237.15Zm0,36.52a9.13,9.13,0,1,0,9.13,9.13A9.13,9.13,0,0,0,246.28,273.67Zm0,36.52a9.13,9.13,0,1,0,9.13,9.13A9.13,9.13,0,0,0,246.28,310.19Zm0,36.52a9.13,9.13,0,1,0,9.13,9.13A9.13,9.13,0,0,0,246.28,346.72Zm0,36.52a9.13,9.13,0,1,0,9.13,9.13A9.13,9.13,0,0,0,246.28,383.24Zm0,36.52a9.13,9.13,0,1,0,9.13,9.13A9.13,9.13,0,0,0,246.28,419.77Zm0,36.52a9.13,9.13,0,1,0,9.13,9.13A9.13,9.13,0,0,0,246.28,456.29Zm0,36.52a9.13,9.13,0,1,0,9.13,9.13A9.13,9.13,0,0,0,246.28,492.82Zm0,36.52a9.13,9.13,0,1,0,9.13,9.13A9.13,9.13,0,0,0,246.28,529.34Zm0,36.52a9.13,9.13,0,1,0,9.13,9.13A9.13,9.13,0,0,0,246.28,565.86Zm0,36.52a9.13,9.13,0,1,0,9.13,9.13A9.13,9.13,0,0,0,246.28,602.39Zm0,36.52a9.13,9.13,0,1,0,9.13,9.13A9.13,9.13,0,0,0,246.28,638.91Zm0,36.52a9.13,9.13,0,1,0,9.13,9.13A9.13,9.13,0,0,0,246.28,675.44Zm0,36.52a9.13,9.13,0,1,0,9.13,9.13A9.13,9.13,0,0,0,246.28,712Zm0,36.52a9.13,9.13,0,1,0,9.13,9.13A9.13,9.13,0,0,0,246.28,748.49Zm0,36.52a9.13,9.13,0,1,0,9.13,9.13A9.13,9.13,0,0,0,246.28,785Zm0,36.52a9.13,9.13,0,1,0,9.13,9.13A9.13,9.13,0,0,0,246.28,821.53Zm0,36.52a9.13,9.13,0,1,0,9.13,9.13A9.13,9.13,0,0,0,246.28,858.06Zm0,36.52a9.13,9.13,0,1,0,9.13,9.13A9.13,9.13,0,0,0,246.28,894.58Zm0,36.52a9.13,9.13,0,1,0,9.13,9.13A9.13,9.13,0,0,0,246.28,931.11Zm0,36.52a9.13,9.13,0,1,0,9.13,9.13A9.13,9.13,0,0,0,246.28,967.63Zm0,36.52a9.13,9.13,0,1,0,9.13,9.13A9.13,9.13,0,0,0,246.28,1004.16Zm0,36.52a9.13,9.13,0,1,0,9.13,9.13A9.13,9.13,0,0,0,246.28,1040.68ZM282.8,18a9.13,9.13,0,1,0,9.13,9.13A9.13,9.13,0,0,0,282.8,18Zm0,36.52a9.13,9.13,0,1,0,9.13,9.13A9.13,9.13,0,0,0,282.8,54.52Zm0,36.52a9.13,9.13,0,1,0,9.13,9.13A9.13,9.13,0,0,0,282.8,91Zm0,36.52a9.13,9.13,0,1,0,9.13,9.13A9.13,9.13,0,0,0,282.8,127.57Zm0,36.52a9.13,9.13,0,1,0,9.13,9.13A9.13,9.13,0,0,0,282.8,164.1Zm0,36.52a9.13,9.13,0,1,0,9.13,9.13A9.13,9.13,0,0,0,282.8,200.62Zm0,36.52a9.13,9.13,0,1,0,9.13,9.13A9.13,9.13,0,0,0,282.8,237.15Zm0,36.52a9.13,9.13,0,1,0,9.13,9.13A9.13,9.13,0,0,0,282.8,273.67Zm0,36.52a9.13,9.13,0,1,0,9.13,9.13A9.13,9.13,0,0,0,282.8,310.19Zm0,36.52a9.13,9.13,0,1,0,9.13,9.13A9.13,9.13,0,0,0,282.8,346.72Zm0,36.52a9.13,9.13,0,1,0,9.13,9.13A9.13,9.13,0,0,0,282.8,383.24Zm0,36.52a9.13,9.13,0,1,0,9.13,9.13A9.13,9.13,0,0,0,282.8,419.77Zm0,36.52a9.13,9.13,0,1,0,9.13,9.13A9.13,9.13,0,0,0,282.8,456.29Zm0,36.52a9.13,9.13,0,1,0,9.13,9.13A9.13,9.13,0,0,0,282.8,492.82Zm0,36.52a9.13,9.13,0,1,0,9.13,9.13A9.13,9.13,0,0,0,282.8,529.34Zm0,36.52a9.13,9.13,0,1,0,9.13,9.13A9.13,9.13,0,0,0,282.8,565.86Zm0,36.52a9.13,9.13,0,1,0,9.13,9.13A9.13,9.13,0,0,0,282.8,602.39Zm0,36.52a9.13,9.13,0,1,0,9.13,9.13A9.13,9.13,0,0,0,282.8,638.91Zm0,36.52a9.13,9.13,0,1,0,9.13,9.13A9.13,9.13,0,0,0,282.8,675.44Zm0,36.52a9.13,9.13,0,1,0,9.13,9.13A9.13,9.13,0,0,0,282.8,712Zm0,36.52a9.13,9.13,0,1,0,9.13,9.13A9.13,9.13,0,0,0,282.8,748.49Zm0,36.52a9.13,9.13,0,1,0,9.13,9.13A9.13,9.13,0,0,0,282.8,785Zm0,36.52a9.13,9.13,0,1,0,9.13,9.13A9.13,9.13,0,0,0,282.8,821.53Zm0,36.52a9.13,9.13,0,1,0,9.13,9.13A9.13,9.13,0,0,0,282.8,858.06Zm0,36.52a9.13,9.13,0,1,0,9.13,9.13A9.13,9.13,0,0,0,282.8,894.58Zm0,36.52a9.13,9.13,0,1,0,9.13,9.13A9.13,9.13,0,0,0,282.8,931.11Zm0,36.52a9.13,9.13,0,1,0,9.13,9.13A9.13,9.13,0,0,0,282.8,967.63Zm0,36.52a9.13,9.13,0,1,0,9.13,9.13A9.13,9.13,0,0,0,282.8,1004.16Zm0,36.52a9.13,9.13,0,1,0,9.13,9.13A9.13,9.13,0,0,0,282.8,1040.68ZM319.33,18a9.13,9.13,0,1,0,9.13,9.13A9.13,9.13,0,0,0,319.33,18Zm0,36.52a9.13,9.13,0,1,0,9.13,9.13A9.13,9.13,0,0,0,319.33,54.52Zm0,36.52a9.13,9.13,0,1,0,9.13,9.13A9.13,9.13,0,0,0,319.33,91Zm0,36.52a9.13,9.13,0,1,0,9.13,9.13A9.13,9.13,0,0,0,319.33,127.57Zm0,36.52a9.13,9.13,0,1,0,9.13,9.13A9.13,9.13,0,0,0,319.33,164.1Zm0,36.52a9.13,9.13,0,1,0,9.13,9.13A9.13,9.13,0,0,0,319.33,200.62Zm0,36.52a9.13,9.13,0,1,0,9.13,9.13A9.13,9.13,0,0,0,319.33,237.15Zm0,36.52a9.13,9.13,0,1,0,9.13,9.13A9.13,9.13,0,0,0,319.33,273.67Zm0,36.52a9.13,9.13,0,1,0,9.13,9.13A9.13,9.13,0,0,0,319.33,310.19Zm0,36.52a9.13,9.13,0,1,0,9.13,9.13A9.13,9.13,0,0,0,319.33,346.72Zm0,36.52a9.13,9.13,0,1,0,9.13,9.13A9.13,9.13,0,0,0,319.33,383.24Zm0,36.52a9.13,9.13,0,1,0,9.13,9.13A9.13,9.13,0,0,0,319.33,419.77Zm0,36.52a9.13,9.13,0,1,0,9.13,9.13A9.13,9.13,0,0,0,319.33,456.29Zm0,36.52a9.13,9.13,0,1,0,9.13,9.13A9.13,9.13,0,0,0,319.33,492.82Zm0,36.52a9.13,9.13,0,1,0,9.13,9.13A9.13,9.13,0,0,0,319.33,529.34Zm0,36.52a9.13,9.13,0,1,0,9.13,9.13A9.13,9.13,0,0,0,319.33,565.86Zm0,36.52a9.13,9.13,0,1,0,9.13,9.13A9.13,9.13,0,0,0,319.33,602.39Zm0,36.52a9.13,9.13,0,1,0,9.13,9.13A9.13,9.13,0,0,0,319.33,638.91Zm0,36.52a9.13,9.13,0,1,0,9.13,9.13A9.13,9.13,0,0,0,319.33,675.44Zm0,36.52a9.13,9.13,0,1,0,9.13,9.13A9.13,9.13,0,0,0,319.33,712Zm0,36.52a9.13,9.13,0,1,0,9.13,9.13A9.13,9.13,0,0,0,319.33,748.49Zm0,36.52a9.13,9.13,0,1,0,9.13,9.13A9.13,9.13,0,0,0,319.33,785Zm0,36.52a9.13,9.13,0,1,0,9.13,9.13A9.13,9.13,0,0,0,319.33,821.53Zm0,36.52a9.13,9.13,0,1,0,9.13,9.13A9.13,9.13,0,0,0,319.33,858.06Zm0,36.52a9.13,9.13,0,1,0,9.13,9.13A9.13,9.13,0,0,0,319.33,894.58Zm0,36.52a9.13,9.13,0,1,0,9.13,9.13A9.13,9.13,0,0,0,319.33,931.11Zm0,36.52a9.13,9.13,0,1,0,9.13,9.13A9.13,9.13,0,0,0,319.33,967.63Zm0,36.52a9.13,9.13,0,1,0,9.13,9.13A9.13,9.13,0,0,0,319.33,1004.16Zm0,36.52a9.13,9.13,0,1,0,9.13,9.13A9.13,9.13,0,0,0,319.33,1040.68ZM355.85,18A9.13,9.13,0,1,0,365,27.13,9.13,9.13,0,0,0,355.85,18Zm0,36.52A9.13,9.13,0,1,0,365,63.66,9.13,9.13,0,0,0,355.85,54.52Zm0,36.52a9.13,9.13,0,1,0,9.13,9.13A9.13,9.13,0,0,0,355.85,91Zm0,36.52A9.13,9.13,0,1,0,365,136.7,9.13,9.13,0,0,0,355.85,127.57Zm0,36.52a9.13,9.13,0,1,0,9.13,9.13A9.13,9.13,0,0,0,355.85,164.1Zm0,36.52a9.13,9.13,0,1,0,9.13,9.13A9.13,9.13,0,0,0,355.85,200.62Zm0,36.52a9.13,9.13,0,1,0,9.13,9.13A9.13,9.13,0,0,0,355.85,237.15Zm0,36.52A9.13,9.13,0,1,0,365,282.8,9.13,9.13,0,0,0,355.85,273.67Zm0,36.52a9.13,9.13,0,1,0,9.13,9.13A9.13,9.13,0,0,0,355.85,310.19Zm0,36.52a9.13,9.13,0,1,0,9.13,9.13A9.13,9.13,0,0,0,355.85,346.72Zm0,36.52a9.13,9.13,0,1,0,9.13,9.13A9.13,9.13,0,0,0,355.85,383.24Zm0,36.52A9.13,9.13,0,1,0,365,428.9,9.13,9.13,0,0,0,355.85,419.77Zm0,36.52a9.13,9.13,0,1,0,9.13,9.13A9.13,9.13,0,0,0,355.85,456.29Zm0,36.52a9.13,9.13,0,1,0,9.13,9.13A9.13,9.13,0,0,0,355.85,492.82Zm0,36.52a9.13,9.13,0,1,0,9.13,9.13A9.13,9.13,0,0,0,355.85,529.34Zm0,36.52A9.13,9.13,0,1,0,365,575,9.13,9.13,0,0,0,355.85,565.86Zm0,36.52a9.13,9.13,0,1,0,9.13,9.13A9.13,9.13,0,0,0,355.85,602.39Zm0,36.52A9.13,9.13,0,1,0,365,648,9.13,9.13,0,0,0,355.85,638.91Zm0,36.52a9.13,9.13,0,1,0,9.13,9.13A9.13,9.13,0,0,0,355.85,675.44Zm0,36.52a9.13,9.13,0,1,0,9.13,9.13A9.13,9.13,0,0,0,355.85,712Zm0,36.52a9.13,9.13,0,1,0,9.13,9.13A9.13,9.13,0,0,0,355.85,748.49Zm0,36.52a9.13,9.13,0,1,0,9.13,9.13A9.13,9.13,0,0,0,355.85,785Zm0,36.52a9.13,9.13,0,1,0,9.13,9.13A9.13,9.13,0,0,0,355.85,821.53Zm0,36.52a9.13,9.13,0,1,0,9.13,9.13A9.13,9.13,0,0,0,355.85,858.06Zm0,36.52a9.13,9.13,0,1,0,9.13,9.13A9.13,9.13,0,0,0,355.85,894.58Zm0,36.52a9.13,9.13,0,1,0,9.13,9.13A9.13,9.13,0,0,0,355.85,931.11Zm0,36.52a9.13,9.13,0,1,0,9.13,9.13A9.13,9.13,0,0,0,355.85,967.63Zm0,36.52a9.13,9.13,0,1,0,9.13,9.13A9.13,9.13,0,0,0,355.85,1004.16Zm0,36.52a9.13,9.13,0,1,0,9.13,9.13A9.13,9.13,0,0,0,355.85,1040.68ZM392.37,18a9.13,9.13,0,1,0,9.13,9.13A9.13,9.13,0,0,0,392.37,18Zm0,36.52a9.13,9.13,0,1,0,9.13,9.13A9.13,9.13,0,0,0,392.37,54.52Zm0,36.52a9.13,9.13,0,1,0,9.13,9.13A9.13,9.13,0,0,0,392.37,91Zm0,36.52a9.13,9.13,0,1,0,9.13,9.13A9.13,9.13,0,0,0,392.37,127.57Zm0,36.52a9.13,9.13,0,1,0,9.13,9.13A9.13,9.13,0,0,0,392.37,164.1Zm0,36.52a9.13,9.13,0,1,0,9.13,9.13A9.13,9.13,0,0,0,392.37,200.62Zm0,36.52a9.13,9.13,0,1,0,9.13,9.13A9.13,9.13,0,0,0,392.37,237.15Zm0,36.52a9.13,9.13,0,1,0,9.13,9.13A9.13,9.13,0,0,0,392.37,273.67Zm0,36.52a9.13,9.13,0,1,0,9.13,9.13A9.13,9.13,0,0,0,392.37,310.19Zm0,36.52a9.13,9.13,0,1,0,9.13,9.13A9.13,9.13,0,0,0,392.37,346.72Zm0,36.52a9.13,9.13,0,1,0,9.13,9.13A9.13,9.13,0,0,0,392.37,383.24Zm0,36.52a9.13,9.13,0,1,0,9.13,9.13A9.13,9.13,0,0,0,392.37,419.77Zm0,36.52a9.13,9.13,0,1,0,9.13,9.13A9.13,9.13,0,0,0,392.37,456.29Zm0,36.52a9.13,9.13,0,1,0,9.13,9.13A9.13,9.13,0,0,0,392.37,492.82Zm0,36.52a9.13,9.13,0,1,0,9.13,9.13A9.13,9.13,0,0,0,392.37,529.34Zm0,36.52A9.13,9.13,0,1,0,401.5,575,9.13,9.13,0,0,0,392.37,565.86Zm0,36.52a9.13,9.13,0,1,0,9.13,9.13A9.13,9.13,0,0,0,392.37,602.39Zm0,36.52A9.13,9.13,0,1,0,401.5,648,9.13,9.13,0,0,0,392.37,638.91Zm0,36.52a9.13,9.13,0,1,0,9.13,9.13A9.13,9.13,0,0,0,392.37,675.44Zm0,36.52a9.13,9.13,0,1,0,9.13,9.13A9.13,9.13,0,0,0,392.37,712Zm0,36.52a9.13,9.13,0,1,0,9.13,9.13A9.13,9.13,0,0,0,392.37,748.49Zm0,36.52a9.13,9.13,0,1,0,9.13,9.13A9.13,9.13,0,0,0,392.37,785Zm0,36.52a9.13,9.13,0,1,0,9.13,9.13A9.13,9.13,0,0,0,392.37,821.53Zm0,36.52a9.13,9.13,0,1,0,9.13,9.13A9.13,9.13,0,0,0,392.37,858.06Zm0,36.52a9.13,9.13,0,1,0,9.13,9.13A9.13,9.13,0,0,0,392.37,894.58Zm0,36.52a9.13,9.13,0,1,0,9.13,9.13A9.13,9.13,0,0,0,392.37,931.11Zm0,36.52a9.13,9.13,0,1,0,9.13,9.13A9.13,9.13,0,0,0,392.37,967.63Zm0,36.52a9.13,9.13,0,1,0,9.13,9.13A9.13,9.13,0,0,0,392.37,1004.16Zm0,36.52a9.13,9.13,0,1,0,9.13,9.13A9.13,9.13,0,0,0,392.37,1040.68ZM428.9,18A9.13,9.13,0,1,0,438,27.13,9.13,9.13,0,0,0,428.9,18Zm0,36.52A9.13,9.13,0,1,0,438,63.66,9.13,9.13,0,0,0,428.9,54.52Zm0,36.52a9.13,9.13,0,1,0,9.13,9.13A9.13,9.13,0,0,0,428.9,91Zm0,36.52A9.13,9.13,0,1,0,438,136.7,9.13,9.13,0,0,0,428.9,127.57Zm0,36.52a9.13,9.13,0,1,0,9.13,9.13A9.13,9.13,0,0,0,428.9,164.1Zm0,36.52a9.13,9.13,0,1,0,9.13,9.13A9.13,9.13,0,0,0,428.9,200.62Zm0,36.52a9.13,9.13,0,1,0,9.13,9.13A9.13,9.13,0,0,0,428.9,237.15Zm0,36.52A9.13,9.13,0,1,0,438,282.8,9.13,9.13,0,0,0,428.9,273.67Zm0,36.52a9.13,9.13,0,1,0,9.13,9.13A9.13,9.13,0,0,0,428.9,310.19Zm0,36.52a9.13,9.13,0,1,0,9.13,9.13A9.13,9.13,0,0,0,428.9,346.72Zm0,36.52a9.13,9.13,0,1,0,9.13,9.13A9.13,9.13,0,0,0,428.9,383.24Zm0,36.52A9.13,9.13,0,1,0,438,428.9,9.13,9.13,0,0,0,428.9,419.77Zm0,36.52a9.13,9.13,0,1,0,9.13,9.13A9.13,9.13,0,0,0,428.9,456.29Zm0,36.52a9.13,9.13,0,1,0,9.13,9.13A9.13,9.13,0,0,0,428.9,492.82Zm0,36.52a9.13,9.13,0,1,0,9.13,9.13A9.13,9.13,0,0,0,428.9,529.34Zm0,36.52A9.13,9.13,0,1,0,438,575,9.13,9.13,0,0,0,428.9,565.86Zm0,36.52a9.13,9.13,0,1,0,9.13,9.13A9.13,9.13,0,0,0,428.9,602.39Zm0,36.52A9.13,9.13,0,1,0,438,648,9.13,9.13,0,0,0,428.9,638.91Zm0,36.52a9.13,9.13,0,1,0,9.13,9.13A9.13,9.13,0,0,0,428.9,675.44Zm0,36.52a9.13,9.13,0,1,0,9.13,9.13A9.13,9.13,0,0,0,428.9,712Zm0,36.52a9.13,9.13,0,1,0,9.13,9.13A9.13,9.13,0,0,0,428.9,748.49Zm0,36.52a9.13,9.13,0,1,0,9.13,9.13A9.13,9.13,0,0,0,428.9,785Zm0,36.52a9.13,9.13,0,1,0,9.13,9.13A9.13,9.13,0,0,0,428.9,821.53Zm0,36.52a9.13,9.13,0,1,0,9.13,9.13A9.13,9.13,0,0,0,428.9,858.06Zm0,36.52a9.13,9.13,0,1,0,9.13,9.13A9.13,9.13,0,0,0,428.9,894.58Zm0,36.52a9.13,9.13,0,1,0,9.13,9.13A9.13,9.13,0,0,0,428.9,931.11Zm0,36.52a9.13,9.13,0,1,0,9.13,9.13A9.13,9.13,0,0,0,428.9,967.63Zm0,36.52a9.13,9.13,0,1,0,9.13,9.13A9.13,9.13,0,0,0,428.9,1004.16Zm0,36.52a9.13,9.13,0,1,0,9.13,9.13A9.13,9.13,0,0,0,428.9,1040.68ZM465.42,18a9.13,9.13,0,1,0,9.13,9.13A9.13,9.13,0,0,0,465.42,18Zm0,36.52a9.13,9.13,0,1,0,9.13,9.13A9.13,9.13,0,0,0,465.42,54.52Zm0,36.52a9.13,9.13,0,1,0,9.13,9.13A9.13,9.13,0,0,0,465.42,91Zm0,36.52a9.13,9.13,0,1,0,9.13,9.13A9.13,9.13,0,0,0,465.42,127.57Zm0,36.52a9.13,9.13,0,1,0,9.13,9.13A9.13,9.13,0,0,0,465.42,164.1Zm0,36.52a9.13,9.13,0,1,0,9.13,9.13A9.13,9.13,0,0,0,465.42,200.62Zm0,36.52a9.13,9.13,0,1,0,9.13,9.13A9.13,9.13,0,0,0,465.42,237.15Zm0,36.52a9.13,9.13,0,1,0,9.13,9.13A9.13,9.13,0,0,0,465.42,273.67Zm0,36.52a9.13,9.13,0,1,0,9.13,9.13A9.13,9.13,0,0,0,465.42,310.19Zm0,36.52a9.13,9.13,0,1,0,9.13,9.13A9.13,9.13,0,0,0,465.42,346.72Zm0,36.52a9.13,9.13,0,1,0,9.13,9.13A9.13,9.13,0,0,0,465.42,383.24Zm0,36.52a9.13,9.13,0,1,0,9.13,9.13A9.13,9.13,0,0,0,465.42,419.77Zm0,36.52a9.13,9.13,0,1,0,9.13,9.13A9.13,9.13,0,0,0,465.42,456.29Zm0,36.52a9.13,9.13,0,1,0,9.13,9.13A9.13,9.13,0,0,0,465.42,492.82Zm0,36.52a9.13,9.13,0,1,0,9.13,9.13A9.13,9.13,0,0,0,465.42,529.34Zm0,36.52a9.13,9.13,0,1,0,9.13,9.13A9.13,9.13,0,0,0,465.42,565.86Zm0,36.52a9.13,9.13,0,1,0,9.13,9.13A9.13,9.13,0,0,0,465.42,602.39Zm0,36.52a9.13,9.13,0,1,0,9.13,9.13A9.13,9.13,0,0,0,465.42,638.91Zm0,36.52a9.13,9.13,0,1,0,9.13,9.13A9.13,9.13,0,0,0,465.42,675.44Zm0,36.52a9.13,9.13,0,1,0,9.13,9.13A9.13,9.13,0,0,0,465.42,712Zm0,36.52a9.13,9.13,0,1,0,9.13,9.13A9.13,9.13,0,0,0,465.42,748.49Zm0,36.52a9.13,9.13,0,1,0,9.13,9.13A9.13,9.13,0,0,0,465.42,785Zm0,36.52a9.13,9.13,0,1,0,9.13,9.13A9.13,9.13,0,0,0,465.42,821.53Zm0,36.52a9.13,9.13,0,1,0,9.13,9.13A9.13,9.13,0,0,0,465.42,858.06Zm0,36.52a9.13,9.13,0,1,0,9.13,9.13A9.13,9.13,0,0,0,465.42,894.58Zm0,36.52a9.13,9.13,0,1,0,9.13,9.13A9.13,9.13,0,0,0,465.42,931.11Zm0,36.52a9.13,9.13,0,1,0,9.13,9.13A9.13,9.13,0,0,0,465.42,967.63Zm0,36.52a9.13,9.13,0,1,0,9.13,9.13A9.13,9.13,0,0,0,465.42,1004.16Zm0,36.52a9.13,9.13,0,1,0,9.13,9.13A9.13,9.13,0,0,0,465.42,1040.68ZM501.95,18a9.13,9.13,0,1,0,9.13,9.13A9.13,9.13,0,0,0,501.95,18Zm0,36.52a9.13,9.13,0,1,0,9.13,9.13A9.13,9.13,0,0,0,501.95,54.52Zm0,36.52a9.13,9.13,0,1,0,9.13,9.13A9.13,9.13,0,0,0,501.95,91Zm0,36.52a9.13,9.13,0,1,0,9.13,9.13A9.13,9.13,0,0,0,501.95,127.57Zm0,36.52a9.13,9.13,0,1,0,9.13,9.13A9.13,9.13,0,0,0,501.95,164.1Zm0,36.52a9.13,9.13,0,1,0,9.13,9.13A9.13,9.13,0,0,0,501.95,200.62Zm0,36.52a9.13,9.13,0,1,0,9.13,9.13A9.13,9.13,0,0,0,501.95,237.15Zm0,36.52a9.13,9.13,0,1,0,9.13,9.13A9.13,9.13,0,0,0,501.95,273.67Zm0,36.52a9.13,9.13,0,1,0,9.13,9.13A9.13,9.13,0,0,0,501.95,310.19Zm0,36.52a9.13,9.13,0,1,0,9.13,9.13A9.13,9.13,0,0,0,501.95,346.72Zm0,36.52a9.13,9.13,0,1,0,9.13,9.13A9.13,9.13,0,0,0,501.95,383.24Zm0,36.52a9.13,9.13,0,1,0,9.13,9.13A9.13,9.13,0,0,0,501.95,419.77Zm0,36.52a9.13,9.13,0,1,0,9.13,9.13A9.13,9.13,0,0,0,501.95,456.29Zm0,36.52a9.13,9.13,0,1,0,9.13,9.13A9.13,9.13,0,0,0,501.95,492.82Zm0,36.52a9.13,9.13,0,1,0,9.13,9.13A9.13,9.13,0,0,0,501.95,529.34Zm0,36.52a9.13,9.13,0,1,0,9.13,9.13A9.13,9.13,0,0,0,501.95,565.86Zm0,36.52a9.13,9.13,0,1,0,9.13,9.13A9.13,9.13,0,0,0,501.95,602.39Zm0,36.52a9.13,9.13,0,1,0,9.13,9.13A9.13,9.13,0,0,0,501.95,638.91Zm0,36.52a9.13,9.13,0,1,0,9.13,9.13A9.13,9.13,0,0,0,501.95,675.44Zm0,36.52a9.13,9.13,0,1,0,9.13,9.13A9.13,9.13,0,0,0,501.95,712Zm0,36.52a9.13,9.13,0,1,0,9.13,9.13A9.13,9.13,0,0,0,501.95,748.49Zm0,36.52a9.13,9.13,0,1,0,9.13,9.13A9.13,9.13,0,0,0,501.95,785Zm0,36.52a9.13,9.13,0,1,0,9.13,9.13A9.13,9.13,0,0,0,501.95,821.53Zm0,36.52a9.13,9.13,0,1,0,9.13,9.13A9.13,9.13,0,0,0,501.95,858.06Zm0,36.52a9.13,9.13,0,1,0,9.13,9.13A9.13,9.13,0,0,0,501.95,894.58Zm0,36.52a9.13,9.13,0,1,0,9.13,9.13A9.13,9.13,0,0,0,501.95,931.11Zm0,36.52a9.13,9.13,0,1,0,9.13,9.13A9.13,9.13,0,0,0,501.95,967.63Zm0,36.52a9.13,9.13,0,1,0,9.13,9.13A9.13,9.13,0,0,0,501.95,1004.16Zm0,36.52a9.13,9.13,0,1,0,9.13,9.13A9.13,9.13,0,0,0,501.95,1040.68ZM538.47,18a9.13,9.13,0,1,0,9.13,9.13A9.13,9.13,0,0,0,538.47,18Zm0,36.52a9.13,9.13,0,1,0,9.13,9.13A9.13,9.13,0,0,0,538.47,54.52Zm0,36.52a9.13,9.13,0,1,0,9.13,9.13A9.13,9.13,0,0,0,538.47,91Zm0,36.52a9.13,9.13,0,1,0,9.13,9.13A9.13,9.13,0,0,0,538.47,127.57Zm0,36.52a9.13,9.13,0,1,0,9.13,9.13A9.13,9.13,0,0,0,538.47,164.1Zm0,36.52a9.13,9.13,0,1,0,9.13,9.13A9.13,9.13,0,0,0,538.47,200.62Zm0,36.52a9.13,9.13,0,1,0,9.13,9.13A9.13,9.13,0,0,0,538.47,237.15Zm0,36.52a9.13,9.13,0,1,0,9.13,9.13A9.13,9.13,0,0,0,538.47,273.67Zm0,36.52a9.13,9.13,0,1,0,9.13,9.13A9.13,9.13,0,0,0,538.47,310.19Zm0,36.52a9.13,9.13,0,1,0,9.13,9.13A9.13,9.13,0,0,0,538.47,346.72Zm0,36.52a9.13,9.13,0,1,0,9.13,9.13A9.13,9.13,0,0,0,538.47,383.24Zm0,36.52a9.13,9.13,0,1,0,9.13,9.13A9.13,9.13,0,0,0,538.47,419.77Zm0,36.52a9.13,9.13,0,1,0,9.13,9.13A9.13,9.13,0,0,0,538.47,456.29Zm0,36.52a9.13,9.13,0,1,0,9.13,9.13A9.13,9.13,0,0,0,538.47,492.82Zm0,36.52a9.13,9.13,0,1,0,9.13,9.13A9.13,9.13,0,0,0,538.47,529.34Zm0,36.52A9.13,9.13,0,1,0,547.6,575,9.13,9.13,0,0,0,538.47,565.86Zm0,36.52a9.13,9.13,0,1,0,9.13,9.13A9.13,9.13,0,0,0,538.47,602.39Zm0,36.52A9.13,9.13,0,1,0,547.6,648,9.13,9.13,0,0,0,538.47,638.91Zm0,36.52a9.13,9.13,0,1,0,9.13,9.13A9.13,9.13,0,0,0,538.47,675.44Zm0,36.52a9.13,9.13,0,1,0,9.13,9.13A9.13,9.13,0,0,0,538.47,712Zm0,36.52a9.13,9.13,0,1,0,9.13,9.13A9.13,9.13,0,0,0,538.47,748.49Zm0,36.52a9.13,9.13,0,1,0,9.13,9.13A9.13,9.13,0,0,0,538.47,785Zm0,36.52a9.13,9.13,0,1,0,9.13,9.13A9.13,9.13,0,0,0,538.47,821.53Zm0,36.52a9.13,9.13,0,1,0,9.13,9.13A9.13,9.13,0,0,0,538.47,858.06Zm0,36.52a9.13,9.13,0,1,0,9.13,9.13A9.13,9.13,0,0,0,538.47,894.58Zm0,36.52a9.13,9.13,0,1,0,9.13,9.13A9.13,9.13,0,0,0,538.47,931.11Zm0,36.52a9.13,9.13,0,1,0,9.13,9.13A9.13,9.13,0,0,0,538.47,967.63Zm0,36.52a9.13,9.13,0,1,0,9.13,9.13A9.13,9.13,0,0,0,538.47,1004.16Zm0,36.52a9.13,9.13,0,1,0,9.13,9.13A9.13,9.13,0,0,0,538.47,1040.68ZM575,18a9.13,9.13,0,1,0,9.13,9.13A9.13,9.13,0,0,0,575,18Zm0,36.52a9.13,9.13,0,1,0,9.13,9.13A9.13,9.13,0,0,0,575,54.52ZM575,91a9.13,9.13,0,1,0,9.13,9.13A9.13,9.13,0,0,0,575,91Zm0,36.52a9.13,9.13,0,1,0,9.13,9.13A9.13,9.13,0,0,0,575,127.57Zm0,36.52a9.13,9.13,0,1,0,9.13,9.13A9.13,9.13,0,0,0,575,164.1Zm0,36.52a9.13,9.13,0,1,0,9.13,9.13A9.13,9.13,0,0,0,575,200.62Zm0,36.52a9.13,9.13,0,1,0,9.13,9.13A9.13,9.13,0,0,0,575,237.15Zm0,36.52a9.13,9.13,0,1,0,9.13,9.13A9.13,9.13,0,0,0,575,273.67Zm0,36.52a9.13,9.13,0,1,0,9.13,9.13A9.13,9.13,0,0,0,575,310.19Zm0,36.52a9.13,9.13,0,1,0,9.13,9.13A9.13,9.13,0,0,0,575,346.72Zm0,36.52a9.13,9.13,0,1,0,9.13,9.13A9.13,9.13,0,0,0,575,383.24Zm0,36.52a9.13,9.13,0,1,0,9.13,9.13A9.13,9.13,0,0,0,575,419.77Zm0,36.52a9.13,9.13,0,1,0,9.13,9.13A9.13,9.13,0,0,0,575,456.29Zm0,36.52a9.13,9.13,0,1,0,9.13,9.13A9.13,9.13,0,0,0,575,492.82Zm0,36.52a9.13,9.13,0,1,0,9.13,9.13A9.13,9.13,0,0,0,575,529.34Zm0,36.52a9.13,9.13,0,1,0,9.13,9.13A9.13,9.13,0,0,0,575,565.86Zm0,36.52a9.13,9.13,0,1,0,9.13,9.13A9.13,9.13,0,0,0,575,602.39Zm0,36.52a9.13,9.13,0,1,0,9.13,9.13A9.13,9.13,0,0,0,575,638.91Zm0,36.52a9.13,9.13,0,1,0,9.13,9.13A9.13,9.13,0,0,0,575,675.44ZM575,712a9.13,9.13,0,1,0,9.13,9.13A9.13,9.13,0,0,0,575,712Zm0,36.52a9.13,9.13,0,1,0,9.13,9.13A9.13,9.13,0,0,0,575,748.49ZM575,785a9.13,9.13,0,1,0,9.13,9.13A9.13,9.13,0,0,0,575,785Zm0,36.52a9.13,9.13,0,1,0,9.13,9.13A9.13,9.13,0,0,0,575,821.53Zm0,36.52a9.13,9.13,0,1,0,9.13,9.13A9.13,9.13,0,0,0,575,858.06Zm0,36.52a9.13,9.13,0,1,0,9.13,9.13A9.13,9.13,0,0,0,575,894.58Zm0,36.52a9.13,9.13,0,1,0,9.13,9.13A9.13,9.13,0,0,0,575,931.11Zm0,36.52a9.13,9.13,0,1,0,9.13,9.13A9.13,9.13,0,0,0,575,967.63Zm0,36.52a9.13,9.13,0,1,0,9.13,9.13A9.13,9.13,0,0,0,575,1004.16Zm0,36.52a9.13,9.13,0,1,0,9.13,9.13A9.13,9.13,0,0,0,575,1040.68ZM611.52,18a9.13,9.13,0,1,0,9.13,9.13A9.13,9.13,0,0,0,611.52,18Zm0,36.52a9.13,9.13,0,1,0,9.13,9.13A9.13,9.13,0,0,0,611.52,54.52Zm0,36.52a9.13,9.13,0,1,0,9.13,9.13A9.13,9.13,0,0,0,611.52,91Zm0,36.52a9.13,9.13,0,1,0,9.13,9.13A9.13,9.13,0,0,0,611.52,127.57Zm0,36.52a9.13,9.13,0,1,0,9.13,9.13A9.13,9.13,0,0,0,611.52,164.1Zm0,36.52a9.13,9.13,0,1,0,9.13,9.13A9.13,9.13,0,0,0,611.52,200.62Zm0,36.52a9.13,9.13,0,1,0,9.13,9.13A9.13,9.13,0,0,0,611.52,237.15Zm0,36.52a9.13,9.13,0,1,0,9.13,9.13A9.13,9.13,0,0,0,611.52,273.67Zm0,36.52a9.13,9.13,0,1,0,9.13,9.13A9.13,9.13,0,0,0,611.52,310.19Zm0,36.52a9.13,9.13,0,1,0,9.13,9.13A9.13,9.13,0,0,0,611.52,346.72Zm0,36.52a9.13,9.13,0,1,0,9.13,9.13A9.13,9.13,0,0,0,611.52,383.24Zm0,36.52a9.13,9.13,0,1,0,9.13,9.13A9.13,9.13,0,0,0,611.52,419.77Zm0,36.52a9.13,9.13,0,1,0,9.13,9.13A9.13,9.13,0,0,0,611.52,456.29Zm0,36.52a9.13,9.13,0,1,0,9.13,9.13A9.13,9.13,0,0,0,611.52,492.82Zm0,36.52a9.13,9.13,0,1,0,9.13,9.13A9.13,9.13,0,0,0,611.52,529.34Zm0,36.52a9.13,9.13,0,1,0,9.13,9.13A9.13,9.13,0,0,0,611.52,565.86Zm0,36.52a9.13,9.13,0,1,0,9.13,9.13A9.13,9.13,0,0,0,611.52,602.39Zm0,36.52a9.13,9.13,0,1,0,9.13,9.13A9.13,9.13,0,0,0,611.52,638.91Zm0,36.52a9.13,9.13,0,1,0,9.13,9.13A9.13,9.13,0,0,0,611.52,675.44Zm0,36.52a9.13,9.13,0,1,0,9.13,9.13A9.13,9.13,0,0,0,611.52,712Zm0,36.52a9.13,9.13,0,1,0,9.13,9.13A9.13,9.13,0,0,0,611.52,748.49Zm0,36.52a9.13,9.13,0,1,0,9.13,9.13A9.13,9.13,0,0,0,611.52,785Zm0,36.52a9.13,9.13,0,1,0,9.13,9.13A9.13,9.13,0,0,0,611.52,821.53Zm0,36.52a9.13,9.13,0,1,0,9.13,9.13A9.13,9.13,0,0,0,611.52,858.06Zm0,36.52a9.13,9.13,0,1,0,9.13,9.13A9.13,9.13,0,0,0,611.52,894.58Zm0,36.52a9.13,9.13,0,1,0,9.13,9.13A9.13,9.13,0,0,0,611.52,931.11Zm0,36.52a9.13,9.13,0,1,0,9.13,9.13A9.13,9.13,0,0,0,611.52,967.63Zm0,36.52a9.13,9.13,0,1,0,9.13,9.13A9.13,9.13,0,0,0,611.52,1004.16Zm0,36.52a9.13,9.13,0,1,0,9.13,9.13A9.13,9.13,0,0,0,611.52,1040.68ZM648,18a9.13,9.13,0,1,0,9.13,9.13A9.13,9.13,0,0,0,648,18Zm0,36.52a9.13,9.13,0,1,0,9.13,9.13A9.13,9.13,0,0,0,648,54.52ZM648,91a9.13,9.13,0,1,0,9.13,9.13A9.13,9.13,0,0,0,648,91Zm0,36.52a9.13,9.13,0,1,0,9.13,9.13A9.13,9.13,0,0,0,648,127.57Zm0,36.52a9.13,9.13,0,1,0,9.13,9.13A9.13,9.13,0,0,0,648,164.1Zm0,36.52a9.13,9.13,0,1,0,9.13,9.13A9.13,9.13,0,0,0,648,200.62Zm0,36.52a9.13,9.13,0,1,0,9.13,9.13A9.13,9.13,0,0,0,648,237.15Zm0,36.52a9.13,9.13,0,1,0,9.13,9.13A9.13,9.13,0,0,0,648,273.67Zm0,36.52a9.13,9.13,0,1,0,9.13,9.13A9.13,9.13,0,0,0,648,310.19Zm0,36.52a9.13,9.13,0,1,0,9.13,9.13A9.13,9.13,0,0,0,648,346.72Zm0,36.52a9.13,9.13,0,1,0,9.13,9.13A9.13,9.13,0,0,0,648,383.24Zm0,36.52a9.13,9.13,0,1,0,9.13,9.13A9.13,9.13,0,0,0,648,419.77Zm0,36.52a9.13,9.13,0,1,0,9.13,9.13A9.13,9.13,0,0,0,648,456.29Zm0,36.52a9.13,9.13,0,1,0,9.13,9.13A9.13,9.13,0,0,0,648,492.82Zm0,36.52a9.13,9.13,0,1,0,9.13,9.13A9.13,9.13,0,0,0,648,529.34Zm0,36.52a9.13,9.13,0,1,0,9.13,9.13A9.13,9.13,0,0,0,648,565.86Zm0,36.52a9.13,9.13,0,1,0,9.13,9.13A9.13,9.13,0,0,0,648,602.39Zm0,36.52a9.13,9.13,0,1,0,9.13,9.13A9.13,9.13,0,0,0,648,638.91Zm0,36.52a9.13,9.13,0,1,0,9.13,9.13A9.13,9.13,0,0,0,648,675.44ZM648,712a9.13,9.13,0,1,0,9.13,9.13A9.13,9.13,0,0,0,648,712Zm0,36.52a9.13,9.13,0,1,0,9.13,9.13A9.13,9.13,0,0,0,648,748.49ZM648,785a9.13,9.13,0,1,0,9.13,9.13A9.13,9.13,0,0,0,648,785Zm0,36.52a9.13,9.13,0,1,0,9.13,9.13A9.13,9.13,0,0,0,648,821.53Zm0,36.52a9.13,9.13,0,1,0,9.13,9.13A9.13,9.13,0,0,0,648,858.06Zm0,36.52a9.13,9.13,0,1,0,9.13,9.13A9.13,9.13,0,0,0,648,894.58Zm0,36.52a9.13,9.13,0,1,0,9.13,9.13A9.13,9.13,0,0,0,648,931.11Zm0,36.52a9.13,9.13,0,1,0,9.13,9.13A9.13,9.13,0,0,0,648,967.63Zm0,36.52a9.13,9.13,0,1,0,9.13,9.13A9.13,9.13,0,0,0,648,1004.16Zm0,36.52a9.13,9.13,0,1,0,9.13,9.13A9.13,9.13,0,0,0,648,1040.68ZM684.57,18a9.13,9.13,0,1,0,9.13,9.13A9.13,9.13,0,0,0,684.57,18Zm0,36.52a9.13,9.13,0,1,0,9.13,9.13A9.13,9.13,0,0,0,684.57,54.52Zm0,36.52a9.13,9.13,0,1,0,9.13,9.13A9.13,9.13,0,0,0,684.57,91Zm0,36.52a9.13,9.13,0,1,0,9.13,9.13A9.13,9.13,0,0,0,684.57,127.57Zm0,36.52a9.13,9.13,0,1,0,9.13,9.13A9.13,9.13,0,0,0,684.57,164.1Zm0,36.52a9.13,9.13,0,1,0,9.13,9.13A9.13,9.13,0,0,0,684.57,200.62Zm0,36.52a9.13,9.13,0,1,0,9.13,9.13A9.13,9.13,0,0,0,684.57,237.15Zm0,36.52a9.13,9.13,0,1,0,9.13,9.13A9.13,9.13,0,0,0,684.57,273.67Zm0,36.52a9.13,9.13,0,1,0,9.13,9.13A9.13,9.13,0,0,0,684.57,310.19Zm0,36.52a9.13,9.13,0,1,0,9.13,9.13A9.13,9.13,0,0,0,684.57,346.72Zm0,36.52a9.13,9.13,0,1,0,9.13,9.13A9.13,9.13,0,0,0,684.57,383.24Zm0,36.52a9.13,9.13,0,1,0,9.13,9.13A9.13,9.13,0,0,0,684.57,419.77Zm0,36.52a9.13,9.13,0,1,0,9.13,9.13A9.13,9.13,0,0,0,684.57,456.29Zm0,36.52a9.13,9.13,0,1,0,9.13,9.13A9.13,9.13,0,0,0,684.57,492.82Zm0,36.52a9.13,9.13,0,1,0,9.13,9.13A9.13,9.13,0,0,0,684.57,529.34Zm0,36.52A9.13,9.13,0,1,0,693.7,575,9.13,9.13,0,0,0,684.57,565.86Zm0,36.52a9.13,9.13,0,1,0,9.13,9.13A9.13,9.13,0,0,0,684.57,602.39Zm0,36.52A9.13,9.13,0,1,0,693.7,648,9.13,9.13,0,0,0,684.57,638.91Zm0,36.52a9.13,9.13,0,1,0,9.13,9.13A9.13,9.13,0,0,0,684.57,675.44Zm0,36.52a9.13,9.13,0,1,0,9.13,9.13A9.13,9.13,0,0,0,684.57,712Zm0,36.52a9.13,9.13,0,1,0,9.13,9.13A9.13,9.13,0,0,0,684.57,748.49Zm0,36.52a9.13,9.13,0,1,0,9.13,9.13A9.13,9.13,0,0,0,684.57,785Zm0,36.52a9.13,9.13,0,1,0,9.13,9.13A9.13,9.13,0,0,0,684.57,821.53Zm0,36.52a9.13,9.13,0,1,0,9.13,9.13A9.13,9.13,0,0,0,684.57,858.06Zm0,36.52a9.13,9.13,0,1,0,9.13,9.13A9.13,9.13,0,0,0,684.57,894.58Zm0,36.52a9.13,9.13,0,1,0,9.13,9.13A9.13,9.13,0,0,0,684.57,931.11Zm0,36.52a9.13,9.13,0,1,0,9.13,9.13A9.13,9.13,0,0,0,684.57,967.63Zm0,36.52a9.13,9.13,0,1,0,9.13,9.13A9.13,9.13,0,0,0,684.57,1004.16Zm0,36.52a9.13,9.13,0,1,0,9.13,9.13A9.13,9.13,0,0,0,684.57,1040.68ZM721.09,18a9.13,9.13,0,1,0,9.13,9.13A9.13,9.13,0,0,0,721.09,18Zm0,36.52a9.13,9.13,0,1,0,9.13,9.13A9.13,9.13,0,0,0,721.09,54.52Zm0,36.52a9.13,9.13,0,1,0,9.13,9.13A9.13,9.13,0,0,0,721.09,91Zm0,36.52a9.13,9.13,0,1,0,9.13,9.13A9.13,9.13,0,0,0,721.09,127.57Zm0,36.52a9.13,9.13,0,1,0,9.13,9.13A9.13,9.13,0,0,0,721.09,164.1Zm0,36.52a9.13,9.13,0,1,0,9.13,9.13A9.13,9.13,0,0,0,721.09,200.62Zm0,36.52a9.13,9.13,0,1,0,9.13,9.13A9.13,9.13,0,0,0,721.09,237.15Zm0,36.52a9.13,9.13,0,1,0,9.13,9.13A9.13,9.13,0,0,0,721.09,273.67Zm0,36.52a9.13,9.13,0,1,0,9.13,9.13A9.13,9.13,0,0,0,721.09,310.19Zm0,36.52a9.13,9.13,0,1,0,9.13,9.13A9.13,9.13,0,0,0,721.09,346.72Zm0,36.52a9.13,9.13,0,1,0,9.13,9.13A9.13,9.13,0,0,0,721.09,383.24Zm0,36.52a9.13,9.13,0,1,0,9.13,9.13A9.13,9.13,0,0,0,721.09,419.77Zm0,36.52a9.13,9.13,0,1,0,9.13,9.13A9.13,9.13,0,0,0,721.09,456.29Zm0,36.52a9.13,9.13,0,1,0,9.13,9.13A9.13,9.13,0,0,0,721.09,492.82Zm0,36.52a9.13,9.13,0,1,0,9.13,9.13A9.13,9.13,0,0,0,721.09,529.34Zm0,36.52a9.13,9.13,0,1,0,9.13,9.13A9.13,9.13,0,0,0,721.09,565.86Zm0,36.52a9.13,9.13,0,1,0,9.13,9.13A9.13,9.13,0,0,0,721.09,602.39Zm0,36.52a9.13,9.13,0,1,0,9.13,9.13A9.13,9.13,0,0,0,721.09,638.91Zm0,36.52a9.13,9.13,0,1,0,9.13,9.13A9.13,9.13,0,0,0,721.09,675.44Zm0,36.52a9.13,9.13,0,1,0,9.13,9.13A9.13,9.13,0,0,0,721.09,712Zm0,36.52a9.13,9.13,0,1,0,9.13,9.13A9.13,9.13,0,0,0,721.09,748.49Zm0,36.52a9.13,9.13,0,1,0,9.13,9.13A9.13,9.13,0,0,0,721.09,785Zm0,36.52a9.13,9.13,0,1,0,9.13,9.13A9.13,9.13,0,0,0,721.09,821.53Zm0,36.52a9.13,9.13,0,1,0,9.13,9.13A9.13,9.13,0,0,0,721.09,858.06Zm0,36.52a9.13,9.13,0,1,0,9.13,9.13A9.13,9.13,0,0,0,721.09,894.58Zm0,36.52a9.13,9.13,0,1,0,9.13,9.13A9.13,9.13,0,0,0,721.09,931.11Zm0,36.52a9.13,9.13,0,1,0,9.13,9.13A9.13,9.13,0,0,0,721.09,967.63Zm0,36.52a9.13,9.13,0,1,0,9.13,9.13A9.13,9.13,0,0,0,721.09,1004.16Zm0,36.52a9.13,9.13,0,1,0,9.13,9.13A9.13,9.13,0,0,0,721.09,1040.68ZM757.62,18a9.13,9.13,0,1,0,9.13,9.13A9.13,9.13,0,0,0,757.62,18Zm0,36.52a9.13,9.13,0,1,0,9.13,9.13A9.13,9.13,0,0,0,757.62,54.52Zm0,36.52a9.13,9.13,0,1,0,9.13,9.13A9.13,9.13,0,0,0,757.62,91Zm0,36.52a9.13,9.13,0,1,0,9.13,9.13A9.13,9.13,0,0,0,757.62,127.57Zm0,36.52a9.13,9.13,0,1,0,9.13,9.13A9.13,9.13,0,0,0,757.62,164.1Zm0,36.52a9.13,9.13,0,1,0,9.13,9.13A9.13,9.13,0,0,0,757.62,200.62Zm0,36.52a9.13,9.13,0,1,0,9.13,9.13A9.13,9.13,0,0,0,757.62,237.15Zm0,36.52a9.13,9.13,0,1,0,9.13,9.13A9.13,9.13,0,0,0,757.62,273.67Zm0,36.52a9.13,9.13,0,1,0,9.13,9.13A9.13,9.13,0,0,0,757.62,310.19Zm0,36.52a9.13,9.13,0,1,0,9.13,9.13A9.13,9.13,0,0,0,757.62,346.72Zm0,36.52a9.13,9.13,0,1,0,9.13,9.13A9.13,9.13,0,0,0,757.62,383.24Zm0,36.52a9.13,9.13,0,1,0,9.13,9.13A9.13,9.13,0,0,0,757.62,419.77Zm0,36.52a9.13,9.13,0,1,0,9.13,9.13A9.13,9.13,0,0,0,757.62,456.29Zm0,36.52a9.13,9.13,0,1,0,9.13,9.13A9.13,9.13,0,0,0,757.62,492.82Zm0,36.52a9.13,9.13,0,1,0,9.13,9.13A9.13,9.13,0,0,0,757.62,529.34Zm0,36.52a9.13,9.13,0,1,0,9.13,9.13A9.13,9.13,0,0,0,757.62,565.86Zm0,36.52a9.13,9.13,0,1,0,9.13,9.13A9.13,9.13,0,0,0,757.62,602.39Zm0,36.52a9.13,9.13,0,1,0,9.13,9.13A9.13,9.13,0,0,0,757.62,638.91Zm0,36.52a9.13,9.13,0,1,0,9.13,9.13A9.13,9.13,0,0,0,757.62,675.44Zm0,36.52a9.13,9.13,0,1,0,9.13,9.13A9.13,9.13,0,0,0,757.62,712Zm0,36.52a9.13,9.13,0,1,0,9.13,9.13A9.13,9.13,0,0,0,757.62,748.49Zm0,36.52a9.13,9.13,0,1,0,9.13,9.13A9.13,9.13,0,0,0,757.62,785Zm0,36.52a9.13,9.13,0,1,0,9.13,9.13A9.13,9.13,0,0,0,757.62,821.53Zm0,36.52a9.13,9.13,0,1,0,9.13,9.13A9.13,9.13,0,0,0,757.62,858.06Zm0,36.52a9.13,9.13,0,1,0,9.13,9.13A9.13,9.13,0,0,0,757.62,894.58Zm0,36.52a9.13,9.13,0,1,0,9.13,9.13A9.13,9.13,0,0,0,757.62,931.11Zm0,36.52a9.13,9.13,0,1,0,9.13,9.13A9.13,9.13,0,0,0,757.62,967.63Zm0,36.52a9.13,9.13,0,1,0,9.13,9.13A9.13,9.13,0,0,0,757.62,1004.16Zm0,36.52a9.13,9.13,0,1,0,9.13,9.13A9.13,9.13,0,0,0,757.62,1040.68ZM794.14,18a9.13,9.13,0,1,0,9.13,9.13A9.13,9.13,0,0,0,794.14,18Zm0,36.52a9.13,9.13,0,1,0,9.13,9.13A9.13,9.13,0,0,0,794.14,54.52Zm0,36.52a9.13,9.13,0,1,0,9.13,9.13A9.13,9.13,0,0,0,794.14,91Zm0,36.52a9.13,9.13,0,1,0,9.13,9.13A9.13,9.13,0,0,0,794.14,127.57Zm0,36.52a9.13,9.13,0,1,0,9.13,9.13A9.13,9.13,0,0,0,794.14,164.1Zm0,36.52a9.13,9.13,0,1,0,9.13,9.13A9.13,9.13,0,0,0,794.14,200.62Zm0,36.52a9.13,9.13,0,1,0,9.13,9.13A9.13,9.13,0,0,0,794.14,237.15Zm0,36.52a9.13,9.13,0,1,0,9.13,9.13A9.13,9.13,0,0,0,794.14,273.67Zm0,36.52a9.13,9.13,0,1,0,9.13,9.13A9.13,9.13,0,0,0,794.14,310.19Zm0,36.52a9.13,9.13,0,1,0,9.13,9.13A9.13,9.13,0,0,0,794.14,346.72Zm0,36.52a9.13,9.13,0,1,0,9.13,9.13A9.13,9.13,0,0,0,794.14,383.24Zm0,36.52a9.13,9.13,0,1,0,9.13,9.13A9.13,9.13,0,0,0,794.14,419.77Zm0,36.52a9.13,9.13,0,1,0,9.13,9.13A9.13,9.13,0,0,0,794.14,456.29Zm0,36.52a9.13,9.13,0,1,0,9.13,9.13A9.13,9.13,0,0,0,794.14,492.82Zm0,36.52a9.13,9.13,0,1,0,9.13,9.13A9.13,9.13,0,0,0,794.14,529.34Zm0,36.52a9.13,9.13,0,1,0,9.13,9.13A9.13,9.13,0,0,0,794.14,565.86Zm0,36.52a9.13,9.13,0,1,0,9.13,9.13A9.13,9.13,0,0,0,794.14,602.39Zm0,36.52a9.13,9.13,0,1,0,9.13,9.13A9.13,9.13,0,0,0,794.14,638.91Zm0,36.52a9.13,9.13,0,1,0,9.13,9.13A9.13,9.13,0,0,0,794.14,675.44Zm0,36.52a9.13,9.13,0,1,0,9.13,9.13A9.13,9.13,0,0,0,794.14,712Zm0,36.52a9.13,9.13,0,1,0,9.13,9.13A9.13,9.13,0,0,0,794.14,748.49Zm0,36.52a9.13,9.13,0,1,0,9.13,9.13A9.13,9.13,0,0,0,794.14,785Zm0,36.52a9.13,9.13,0,1,0,9.13,9.13A9.13,9.13,0,0,0,794.14,821.53Zm0,36.52a9.13,9.13,0,1,0,9.13,9.13A9.13,9.13,0,0,0,794.14,858.06Zm0,36.52a9.13,9.13,0,1,0,9.13,9.13A9.13,9.13,0,0,0,794.14,894.58Zm0,36.52a9.13,9.13,0,1,0,9.13,9.13A9.13,9.13,0,0,0,794.14,931.11Zm0,36.52a9.13,9.13,0,1,0,9.13,9.13A9.13,9.13,0,0,0,794.14,967.63Zm0,36.52a9.13,9.13,0,1,0,9.13,9.13A9.13,9.13,0,0,0,794.14,1004.16Zm0,36.52a9.13,9.13,0,1,0,9.13,9.13A9.13,9.13,0,0,0,794.14,1040.68ZM830.67,18a9.13,9.13,0,1,0,9.13,9.13A9.13,9.13,0,0,0,830.67,18Zm0,36.52a9.13,9.13,0,1,0,9.13,9.13A9.13,9.13,0,0,0,830.67,54.52Zm0,36.52a9.13,9.13,0,1,0,9.13,9.13A9.13,9.13,0,0,0,830.67,91Zm0,36.52a9.13,9.13,0,1,0,9.13,9.13A9.13,9.13,0,0,0,830.67,127.57Zm0,36.52a9.13,9.13,0,1,0,9.13,9.13A9.13,9.13,0,0,0,830.67,164.1Zm0,36.52a9.13,9.13,0,1,0,9.13,9.13A9.13,9.13,0,0,0,830.67,200.62Zm0,36.52a9.13,9.13,0,1,0,9.13,9.13A9.13,9.13,0,0,0,830.67,237.15Zm0,36.52a9.13,9.13,0,1,0,9.13,9.13A9.13,9.13,0,0,0,830.67,273.67Zm0,36.52a9.13,9.13,0,1,0,9.13,9.13A9.13,9.13,0,0,0,830.67,310.19Zm0,36.52a9.13,9.13,0,1,0,9.13,9.13A9.13,9.13,0,0,0,830.67,346.72Zm0,36.52a9.13,9.13,0,1,0,9.13,9.13A9.13,9.13,0,0,0,830.67,383.24Zm0,36.52a9.13,9.13,0,1,0,9.13,9.13A9.13,9.13,0,0,0,830.67,419.77Zm0,36.52a9.13,9.13,0,1,0,9.13,9.13A9.13,9.13,0,0,0,830.67,456.29Zm0,36.52a9.13,9.13,0,1,0,9.13,9.13A9.13,9.13,0,0,0,830.67,492.82Zm0,36.52a9.13,9.13,0,1,0,9.13,9.13A9.13,9.13,0,0,0,830.67,529.34Zm0,36.52A9.13,9.13,0,1,0,839.8,575,9.13,9.13,0,0,0,830.67,565.86Zm0,36.52a9.13,9.13,0,1,0,9.13,9.13A9.13,9.13,0,0,0,830.67,602.39Zm0,36.52A9.13,9.13,0,1,0,839.8,648,9.13,9.13,0,0,0,830.67,638.91Zm0,36.52a9.13,9.13,0,1,0,9.13,9.13A9.13,9.13,0,0,0,830.67,675.44Zm0,36.52a9.13,9.13,0,1,0,9.13,9.13A9.13,9.13,0,0,0,830.67,712Zm0,36.52a9.13,9.13,0,1,0,9.13,9.13A9.13,9.13,0,0,0,830.67,748.49Zm0,36.52a9.13,9.13,0,1,0,9.13,9.13A9.13,9.13,0,0,0,830.67,785Zm0,36.52a9.13,9.13,0,1,0,9.13,9.13A9.13,9.13,0,0,0,830.67,821.53Zm0,36.52a9.13,9.13,0,1,0,9.13,9.13A9.13,9.13,0,0,0,830.67,858.06Zm0,36.52a9.13,9.13,0,1,0,9.13,9.13A9.13,9.13,0,0,0,830.67,894.58Zm0,36.52a9.13,9.13,0,1,0,9.13,9.13A9.13,9.13,0,0,0,830.67,931.11Zm0,36.52a9.13,9.13,0,1,0,9.13,9.13A9.13,9.13,0,0,0,830.67,967.63Zm0,36.52a9.13,9.13,0,1,0,9.13,9.13A9.13,9.13,0,0,0,830.67,1004.16Zm0,36.52a9.13,9.13,0,1,0,9.13,9.13A9.13,9.13,0,0,0,830.67,1040.68ZM867.19,18a9.13,9.13,0,1,0,9.13,9.13A9.13,9.13,0,0,0,867.19,18Zm0,36.52a9.13,9.13,0,1,0,9.13,9.13A9.13,9.13,0,0,0,867.19,54.52Zm0,36.52a9.13,9.13,0,1,0,9.13,9.13A9.13,9.13,0,0,0,867.19,91Zm0,36.52a9.13,9.13,0,1,0,9.13,9.13A9.13,9.13,0,0,0,867.19,127.57Zm0,36.52a9.13,9.13,0,1,0,9.13,9.13A9.13,9.13,0,0,0,867.19,164.1Zm0,36.52a9.13,9.13,0,1,0,9.13,9.13A9.13,9.13,0,0,0,867.19,200.62Zm0,36.52a9.13,9.13,0,1,0,9.13,9.13A9.13,9.13,0,0,0,867.19,237.15Zm0,36.52a9.13,9.13,0,1,0,9.13,9.13A9.13,9.13,0,0,0,867.19,273.67Zm0,36.52a9.13,9.13,0,1,0,9.13,9.13A9.13,9.13,0,0,0,867.19,310.19Zm0,36.52a9.13,9.13,0,1,0,9.13,9.13A9.13,9.13,0,0,0,867.19,346.72Zm0,36.52a9.13,9.13,0,1,0,9.13,9.13A9.13,9.13,0,0,0,867.19,383.24Zm0,36.52a9.13,9.13,0,1,0,9.13,9.13A9.13,9.13,0,0,0,867.19,419.77Zm0,36.52a9.13,9.13,0,1,0,9.13,9.13A9.13,9.13,0,0,0,867.19,456.29Zm0,36.52a9.13,9.13,0,1,0,9.13,9.13A9.13,9.13,0,0,0,867.19,492.82Zm0,36.52a9.13,9.13,0,1,0,9.13,9.13A9.13,9.13,0,0,0,867.19,529.34Zm0,36.52a9.13,9.13,0,1,0,9.13,9.13A9.13,9.13,0,0,0,867.19,565.86Zm0,36.52a9.13,9.13,0,1,0,9.13,9.13A9.13,9.13,0,0,0,867.19,602.39Zm0,36.52a9.13,9.13,0,1,0,9.13,9.13A9.13,9.13,0,0,0,867.19,638.91Zm0,36.52a9.13,9.13,0,1,0,9.13,9.13A9.13,9.13,0,0,0,867.19,675.44Zm0,36.52a9.13,9.13,0,1,0,9.13,9.13A9.13,9.13,0,0,0,867.19,712Zm0,36.52a9.13,9.13,0,1,0,9.13,9.13A9.13,9.13,0,0,0,867.19,748.49Zm0,36.52a9.13,9.13,0,1,0,9.13,9.13A9.13,9.13,0,0,0,867.19,785Zm0,36.52a9.13,9.13,0,1,0,9.13,9.13A9.13,9.13,0,0,0,867.19,821.53Zm0,36.52a9.13,9.13,0,1,0,9.13,9.13A9.13,9.13,0,0,0,867.19,858.06Zm0,36.52a9.13,9.13,0,1,0,9.13,9.13A9.13,9.13,0,0,0,867.19,894.58Zm0,36.52a9.13,9.13,0,1,0,9.13,9.13A9.13,9.13,0,0,0,867.19,931.11Zm0,36.52a9.13,9.13,0,1,0,9.13,9.13A9.13,9.13,0,0,0,867.19,967.63Zm0,36.52a9.13,9.13,0,1,0,9.13,9.13A9.13,9.13,0,0,0,867.19,1004.16Zm0,36.52a9.13,9.13,0,1,0,9.13,9.13A9.13,9.13,0,0,0,867.19,1040.68ZM903.71,18a9.13,9.13,0,1,0,9.13,9.13A9.13,9.13,0,0,0,903.71,18Zm0,36.52a9.13,9.13,0,1,0,9.13,9.13A9.13,9.13,0,0,0,903.71,54.52Zm0,36.52a9.13,9.13,0,1,0,9.13,9.13A9.13,9.13,0,0,0,903.71,91Zm0,36.52a9.13,9.13,0,1,0,9.13,9.13A9.13,9.13,0,0,0,903.71,127.57Zm0,36.52a9.13,9.13,0,1,0,9.13,9.13A9.13,9.13,0,0,0,903.71,164.1Zm0,36.52a9.13,9.13,0,1,0,9.13,9.13A9.13,9.13,0,0,0,903.71,200.62Zm0,36.52a9.13,9.13,0,1,0,9.13,9.13A9.13,9.13,0,0,0,903.71,237.15Zm0,36.52a9.13,9.13,0,1,0,9.13,9.13A9.13,9.13,0,0,0,903.71,273.67Zm0,36.52a9.13,9.13,0,1,0,9.13,9.13A9.13,9.13,0,0,0,903.71,310.19Zm0,36.52a9.13,9.13,0,1,0,9.13,9.13A9.13,9.13,0,0,0,903.71,346.72Zm0,36.52a9.13,9.13,0,1,0,9.13,9.13A9.13,9.13,0,0,0,903.71,383.24Zm0,36.52a9.13,9.13,0,1,0,9.13,9.13A9.13,9.13,0,0,0,903.71,419.77Zm0,36.52a9.13,9.13,0,1,0,9.13,9.13A9.13,9.13,0,0,0,903.71,456.29Zm0,36.52a9.13,9.13,0,1,0,9.13,9.13A9.13,9.13,0,0,0,903.71,492.82Zm0,36.52a9.13,9.13,0,1,0,9.13,9.13A9.13,9.13,0,0,0,903.71,529.34Zm0,36.52a9.13,9.13,0,1,0,9.13,9.13A9.13,9.13,0,0,0,903.71,565.86Zm0,36.52a9.13,9.13,0,1,0,9.13,9.13A9.13,9.13,0,0,0,903.71,602.39Zm0,36.52a9.13,9.13,0,1,0,9.13,9.13A9.13,9.13,0,0,0,903.71,638.91Zm0,36.52a9.13,9.13,0,1,0,9.13,9.13A9.13,9.13,0,0,0,903.71,675.44Zm0,36.52a9.13,9.13,0,1,0,9.13,9.13A9.13,9.13,0,0,0,903.71,712Zm0,36.52a9.13,9.13,0,1,0,9.13,9.13A9.13,9.13,0,0,0,903.71,748.49Zm0,36.52a9.13,9.13,0,1,0,9.13,9.13A9.13,9.13,0,0,0,903.71,785Zm0,36.52a9.13,9.13,0,1,0,9.13,9.13A9.13,9.13,0,0,0,903.71,821.53Zm0,36.52a9.13,9.13,0,1,0,9.13,9.13A9.13,9.13,0,0,0,903.71,858.06Zm0,36.52a9.13,9.13,0,1,0,9.13,9.13A9.13,9.13,0,0,0,903.71,894.58Zm0,36.52a9.13,9.13,0,1,0,9.13,9.13A9.13,9.13,0,0,0,903.71,931.11Zm0,36.52a9.13,9.13,0,1,0,9.13,9.13A9.13,9.13,0,0,0,903.71,967.63Zm0,36.52a9.13,9.13,0,1,0,9.13,9.13A9.13,9.13,0,0,0,903.71,1004.16Zm0,36.52a9.13,9.13,0,1,0,9.13,9.13A9.13,9.13,0,0,0,903.71,1040.68ZM940.24,18a9.13,9.13,0,1,0,9.13,9.13A9.13,9.13,0,0,0,940.24,18Zm0,36.52a9.13,9.13,0,1,0,9.13,9.13A9.13,9.13,0,0,0,940.24,54.52Zm0,36.52a9.13,9.13,0,1,0,9.13,9.13A9.13,9.13,0,0,0,940.24,91Zm0,36.52a9.13,9.13,0,1,0,9.13,9.13A9.13,9.13,0,0,0,940.24,127.57Zm0,36.52a9.13,9.13,0,1,0,9.13,9.13A9.13,9.13,0,0,0,940.24,164.1Zm0,36.52a9.13,9.13,0,1,0,9.13,9.13A9.13,9.13,0,0,0,940.24,200.62Zm0,36.52a9.13,9.13,0,1,0,9.13,9.13A9.13,9.13,0,0,0,940.24,237.15Zm0,36.52a9.13,9.13,0,1,0,9.13,9.13A9.13,9.13,0,0,0,940.24,273.67Zm0,36.52a9.13,9.13,0,1,0,9.13,9.13A9.13,9.13,0,0,0,940.24,310.19Zm0,36.52a9.13,9.13,0,1,0,9.13,9.13A9.13,9.13,0,0,0,940.24,346.72Zm0,36.52a9.13,9.13,0,1,0,9.13,9.13A9.13,9.13,0,0,0,940.24,383.24Zm0,36.52a9.13,9.13,0,1,0,9.13,9.13A9.13,9.13,0,0,0,940.24,419.77Zm0,36.52a9.13,9.13,0,1,0,9.13,9.13A9.13,9.13,0,0,0,940.24,456.29Zm0,36.52a9.13,9.13,0,1,0,9.13,9.13A9.13,9.13,0,0,0,940.24,492.82Zm0,36.52a9.13,9.13,0,1,0,9.13,9.13A9.13,9.13,0,0,0,940.24,529.34Zm0,36.52a9.13,9.13,0,1,0,9.13,9.13A9.13,9.13,0,0,0,940.24,565.86Zm0,36.52a9.13,9.13,0,1,0,9.13,9.13A9.13,9.13,0,0,0,940.24,602.39Zm0,36.52a9.13,9.13,0,1,0,9.13,9.13A9.13,9.13,0,0,0,940.24,638.91Zm0,36.52a9.13,9.13,0,1,0,9.13,9.13A9.13,9.13,0,0,0,940.24,675.44Zm0,36.52a9.13,9.13,0,1,0,9.13,9.13A9.13,9.13,0,0,0,940.24,712Zm0,36.52a9.13,9.13,0,1,0,9.13,9.13A9.13,9.13,0,0,0,940.24,748.49Zm0,36.52a9.13,9.13,0,1,0,9.13,9.13A9.13,9.13,0,0,0,940.24,785Zm0,36.52a9.13,9.13,0,1,0,9.13,9.13A9.13,9.13,0,0,0,940.24,821.53Zm0,36.52a9.13,9.13,0,1,0,9.13,9.13A9.13,9.13,0,0,0,940.24,858.06Zm0,36.52a9.13,9.13,0,1,0,9.13,9.13A9.13,9.13,0,0,0,940.24,894.58Zm0,36.52a9.13,9.13,0,1,0,9.13,9.13A9.13,9.13,0,0,0,940.24,931.11Zm0,36.52a9.13,9.13,0,1,0,9.13,9.13A9.13,9.13,0,0,0,940.24,967.63Zm0,36.52a9.13,9.13,0,1,0,9.13,9.13A9.13,9.13,0,0,0,940.24,1004.16Zm0,36.52a9.13,9.13,0,1,0,9.13,9.13A9.13,9.13,0,0,0,940.24,1040.68ZM976.76,18a9.13,9.13,0,1,0,9.13,9.13A9.13,9.13,0,0,0,976.76,18Zm0,36.52a9.13,9.13,0,1,0,9.13,9.13A9.13,9.13,0,0,0,976.76,54.52Zm0,36.52a9.13,9.13,0,1,0,9.13,9.13A9.13,9.13,0,0,0,976.76,91Zm0,36.52a9.13,9.13,0,1,0,9.13,9.13A9.13,9.13,0,0,0,976.76,127.57Zm0,36.52a9.13,9.13,0,1,0,9.13,9.13A9.13,9.13,0,0,0,976.76,164.1Zm0,36.52a9.13,9.13,0,1,0,9.13,9.13A9.13,9.13,0,0,0,976.76,200.62Zm0,36.52a9.13,9.13,0,1,0,9.13,9.13A9.13,9.13,0,0,0,976.76,237.15Zm0,36.52a9.13,9.13,0,1,0,9.13,9.13A9.13,9.13,0,0,0,976.76,273.67Zm0,36.52a9.13,9.13,0,1,0,9.13,9.13A9.13,9.13,0,0,0,976.76,310.19Zm0,36.52a9.13,9.13,0,1,0,9.13,9.13A9.13,9.13,0,0,0,976.76,346.72Zm0,36.52a9.13,9.13,0,1,0,9.13,9.13A9.13,9.13,0,0,0,976.76,383.24Zm0,36.52a9.13,9.13,0,1,0,9.13,9.13A9.13,9.13,0,0,0,976.76,419.77Zm0,36.52a9.13,9.13,0,1,0,9.13,9.13A9.13,9.13,0,0,0,976.76,456.29Zm0,36.52a9.13,9.13,0,1,0,9.13,9.13A9.13,9.13,0,0,0,976.76,492.82Zm0,36.52a9.13,9.13,0,1,0,9.13,9.13A9.13,9.13,0,0,0,976.76,529.34Zm0,36.52a9.13,9.13,0,1,0,9.13,9.13A9.13,9.13,0,0,0,976.76,565.86Zm0,36.52a9.13,9.13,0,1,0,9.13,9.13A9.13,9.13,0,0,0,976.76,602.39Zm0,36.52a9.13,9.13,0,1,0,9.13,9.13A9.13,9.13,0,0,0,976.76,638.91Zm0,36.52a9.13,9.13,0,1,0,9.13,9.13A9.13,9.13,0,0,0,976.76,675.44Zm0,36.52a9.13,9.13,0,1,0,9.13,9.13A9.13,9.13,0,0,0,976.76,712Zm0,36.52a9.13,9.13,0,1,0,9.13,9.13A9.13,9.13,0,0,0,976.76,748.49Zm0,36.52a9.13,9.13,0,1,0,9.13,9.13A9.13,9.13,0,0,0,976.76,785Zm0,36.52a9.13,9.13,0,1,0,9.13,9.13A9.13,9.13,0,0,0,976.76,821.53Zm0,36.52a9.13,9.13,0,1,0,9.13,9.13A9.13,9.13,0,0,0,976.76,858.06Zm0,36.52a9.13,9.13,0,1,0,9.13,9.13A9.13,9.13,0,0,0,976.76,894.58Zm0,36.52a9.13,9.13,0,1,0,9.13,9.13A9.13,9.13,0,0,0,976.76,931.11Zm0,36.52a9.13,9.13,0,1,0,9.13,9.13A9.13,9.13,0,0,0,976.76,967.63Zm0,36.52a9.13,9.13,0,1,0,9.13,9.13A9.13,9.13,0,0,0,976.76,1004.16Zm0,36.52a9.13,9.13,0,1,0,9.13,9.13A9.13,9.13,0,0,0,976.76,1040.68ZM1013.29,18a9.13,9.13,0,1,0,9.13,9.13A9.13,9.13,0,0,0,1013.29,18Zm0,36.52a9.13,9.13,0,1,0,9.13,9.13A9.13,9.13,0,0,0,1013.29,54.52Zm0,36.52a9.13,9.13,0,1,0,9.13,9.13A9.13,9.13,0,0,0,1013.29,91Zm0,36.52a9.13,9.13,0,1,0,9.13,9.13A9.13,9.13,0,0,0,1013.29,127.57Zm0,36.52a9.13,9.13,0,1,0,9.13,9.13A9.13,9.13,0,0,0,1013.29,164.1Zm0,36.52a9.13,9.13,0,1,0,9.13,9.13A9.13,9.13,0,0,0,1013.29,200.62Zm0,36.52a9.13,9.13,0,1,0,9.13,9.13A9.13,9.13,0,0,0,1013.29,237.15Zm0,36.52a9.13,9.13,0,1,0,9.13,9.13A9.13,9.13,0,0,0,1013.29,273.67Zm0,36.52a9.13,9.13,0,1,0,9.13,9.13A9.13,9.13,0,0,0,1013.29,310.19Zm0,36.52a9.13,9.13,0,1,0,9.13,9.13A9.13,9.13,0,0,0,1013.29,346.72Zm0,36.52a9.13,9.13,0,1,0,9.13,9.13A9.13,9.13,0,0,0,1013.29,383.24Zm0,36.52a9.13,9.13,0,1,0,9.13,9.13A9.13,9.13,0,0,0,1013.29,419.77Zm0,36.52a9.13,9.13,0,1,0,9.13,9.13A9.13,9.13,0,0,0,1013.29,456.29Zm0,36.52a9.13,9.13,0,1,0,9.13,9.13A9.13,9.13,0,0,0,1013.29,492.82Zm0,36.52a9.13,9.13,0,1,0,9.13,9.13A9.13,9.13,0,0,0,1013.29,529.34Zm0,36.52a9.13,9.13,0,1,0,9.13,9.13A9.13,9.13,0,0,0,1013.29,565.86Zm0,36.52a9.13,9.13,0,1,0,9.13,9.13A9.13,9.13,0,0,0,1013.29,602.39Zm0,36.52a9.13,9.13,0,1,0,9.13,9.13A9.13,9.13,0,0,0,1013.29,638.91Zm0,36.52a9.13,9.13,0,1,0,9.13,9.13A9.13,9.13,0,0,0,1013.29,675.44Zm0,36.52a9.13,9.13,0,1,0,9.13,9.13A9.13,9.13,0,0,0,1013.29,712Zm0,36.52a9.13,9.13,0,1,0,9.13,9.13A9.13,9.13,0,0,0,1013.29,748.49Zm0,36.52a9.13,9.13,0,1,0,9.13,9.13A9.13,9.13,0,0,0,1013.29,785Zm0,36.52a9.13,9.13,0,1,0,9.13,9.13A9.13,9.13,0,0,0,1013.29,821.53Zm0,36.52a9.13,9.13,0,1,0,9.13,9.13A9.13,9.13,0,0,0,1013.29,858.06Zm0,36.52a9.13,9.13,0,1,0,9.13,9.13A9.13,9.13,0,0,0,1013.29,894.58Zm0,36.52a9.13,9.13,0,1,0,9.13,9.13A9.13,9.13,0,0,0,1013.29,931.11Zm0,36.52a9.13,9.13,0,1,0,9.13,9.13A9.13,9.13,0,0,0,1013.29,967.63Zm0,36.52a9.13,9.13,0,1,0,9.13,9.13A9.13,9.13,0,0,0,1013.29,1004.16Zm0,36.52a9.13,9.13,0,1,0,9.13,9.13A9.13,9.13,0,0,0,1013.29,1040.68ZM1049.81,18a9.13,9.13,0,1,0,9.13,9.13A9.13,9.13,0,0,0,1049.81,18Zm0,36.52a9.13,9.13,0,1,0,9.13,9.13A9.13,9.13,0,0,0,1049.81,54.52Zm0,36.52a9.13,9.13,0,1,0,9.13,9.13A9.13,9.13,0,0,0,1049.81,91Zm0,36.52a9.13,9.13,0,1,0,9.13,9.13A9.13,9.13,0,0,0,1049.81,127.57Zm0,36.52a9.13,9.13,0,1,0,9.13,9.13A9.13,9.13,0,0,0,1049.81,164.1Zm0,36.52a9.13,9.13,0,1,0,9.13,9.13A9.13,9.13,0,0,0,1049.81,200.62Zm0,36.52a9.13,9.13,0,1,0,9.13,9.13A9.13,9.13,0,0,0,1049.81,237.15Zm0,36.52a9.13,9.13,0,1,0,9.13,9.13A9.13,9.13,0,0,0,1049.81,273.67Zm0,36.52a9.13,9.13,0,1,0,9.13,9.13A9.13,9.13,0,0,0,1049.81,310.19Zm0,36.52a9.13,9.13,0,1,0,9.13,9.13A9.13,9.13,0,0,0,1049.81,346.72Zm0,36.52a9.13,9.13,0,1,0,9.13,9.13A9.13,9.13,0,0,0,1049.81,383.24Zm0,36.52a9.13,9.13,0,1,0,9.13,9.13A9.13,9.13,0,0,0,1049.81,419.77Zm0,36.52a9.13,9.13,0,1,0,9.13,9.13A9.13,9.13,0,0,0,1049.81,456.29Zm0,36.52a9.13,9.13,0,1,0,9.13,9.13A9.13,9.13,0,0,0,1049.81,492.82Zm0,36.52a9.13,9.13,0,1,0,9.13,9.13A9.13,9.13,0,0,0,1049.81,529.34Zm0,36.52a9.13,9.13,0,1,0,9.13,9.13A9.13,9.13,0,0,0,1049.81,565.86Zm0,36.52a9.13,9.13,0,1,0,9.13,9.13A9.13,9.13,0,0,0,1049.81,602.39Zm0,36.52a9.13,9.13,0,1,0,9.13,9.13A9.13,9.13,0,0,0,1049.81,638.91Zm0,36.52a9.13,9.13,0,1,0,9.13,9.13A9.13,9.13,0,0,0,1049.81,675.44Zm0,36.52a9.13,9.13,0,1,0,9.13,9.13A9.13,9.13,0,0,0,1049.81,712Zm0,36.52a9.13,9.13,0,1,0,9.13,9.13A9.13,9.13,0,0,0,1049.81,748.49Zm0,36.52a9.13,9.13,0,1,0,9.13,9.13A9.13,9.13,0,0,0,1049.81,785Zm0,36.52a9.13,9.13,0,1,0,9.13,9.13A9.13,9.13,0,0,0,1049.81,821.53Zm0,36.52a9.13,9.13,0,1,0,9.13,9.13A9.13,9.13,0,0,0,1049.81,858.06Zm0,36.52a9.13,9.13,0,1,0,9.13,9.13A9.13,9.13,0,0,0,1049.81,894.58Zm0,36.52a9.13,9.13,0,1,0,9.13,9.13A9.13,9.13,0,0,0,1049.81,931.11Zm0,36.52a9.13,9.13,0,1,0,9.13,9.13A9.13,9.13,0,0,0,1049.81,967.63Zm0,36.52a9.13,9.13,0,1,0,9.13,9.13A9.13,9.13,0,0,0,1049.81,1004.16Zm0,36.52a9.13,9.13,0,1,0,9.13,9.13A9.13,9.13,0,0,0,1049.81,1040.68ZM1086.33,18a9.13,9.13,0,1,0,9.13,9.13A9.13,9.13,0,0,0,1086.33,18Zm0,36.52a9.13,9.13,0,1,0,9.13,9.13A9.13,9.13,0,0,0,1086.33,54.52Zm0,36.52a9.13,9.13,0,1,0,9.13,9.13A9.13,9.13,0,0,0,1086.33,91Zm0,36.52a9.13,9.13,0,1,0,9.13,9.13A9.13,9.13,0,0,0,1086.33,127.57Zm0,36.52a9.13,9.13,0,1,0,9.13,9.13A9.13,9.13,0,0,0,1086.33,164.1Zm0,36.52a9.13,9.13,0,1,0,9.13,9.13A9.13,9.13,0,0,0,1086.33,200.62Zm0,36.52a9.13,9.13,0,1,0,9.13,9.13A9.13,9.13,0,0,0,1086.33,237.15Zm0,36.52a9.13,9.13,0,1,0,9.13,9.13A9.13,9.13,0,0,0,1086.33,273.67Zm0,36.52a9.13,9.13,0,1,0,9.13,9.13A9.13,9.13,0,0,0,1086.33,310.19Zm0,36.52a9.13,9.13,0,1,0,9.13,9.13A9.13,9.13,0,0,0,1086.33,346.72Zm0,36.52a9.13,9.13,0,1,0,9.13,9.13A9.13,9.13,0,0,0,1086.33,383.24Zm0,36.52a9.13,9.13,0,1,0,9.13,9.13A9.13,9.13,0,0,0,1086.33,419.77Zm0,36.52a9.13,9.13,0,1,0,9.13,9.13A9.13,9.13,0,0,0,1086.33,456.29Zm0,36.52a9.13,9.13,0,1,0,9.13,9.13A9.13,9.13,0,0,0,1086.33,492.82Zm0,36.52a9.13,9.13,0,1,0,9.13,9.13A9.13,9.13,0,0,0,1086.33,529.34Zm0,36.52a9.13,9.13,0,1,0,9.13,9.13A9.13,9.13,0,0,0,1086.33,565.86Zm0,36.52a9.13,9.13,0,1,0,9.13,9.13A9.13,9.13,0,0,0,1086.33,602.39Zm0,36.52a9.13,9.13,0,1,0,9.13,9.13A9.13,9.13,0,0,0,1086.33,638.91Zm0,36.52a9.13,9.13,0,1,0,9.13,9.13A9.13,9.13,0,0,0,1086.33,675.44Zm0,36.52a9.13,9.13,0,1,0,9.13,9.13A9.13,9.13,0,0,0,1086.33,712Zm0,36.52a9.13,9.13,0,1,0,9.13,9.13A9.13,9.13,0,0,0,1086.33,748.49Zm0,36.52a9.13,9.13,0,1,0,9.13,9.13A9.13,9.13,0,0,0,1086.33,785Zm0,36.52a9.13,9.13,0,1,0,9.13,9.13A9.13,9.13,0,0,0,1086.33,821.53Zm0,36.52a9.13,9.13,0,1,0,9.13,9.13A9.13,9.13,0,0,0,1086.33,858.06Zm0,36.52a9.13,9.13,0,1,0,9.13,9.13A9.13,9.13,0,0,0,1086.33,894.58Zm0,36.52a9.13,9.13,0,1,0,9.13,9.13A9.13,9.13,0,0,0,1086.33,931.11Zm0,36.52a9.13,9.13,0,1,0,9.13,9.13A9.13,9.13,0,0,0,1086.33,967.63Zm0,36.52a9.13,9.13,0,1,0,9.13,9.13A9.13,9.13,0,0,0,1086.33,1004.16Zm0,36.52a9.13,9.13,0,1,0,9.13,9.13A9.13,9.13,0,0,0,1086.33,1040.68ZM1122.86,18a9.13,9.13,0,1,0,9.13,9.13A9.13,9.13,0,0,0,1122.86,18Zm0,36.52a9.13,9.13,0,1,0,9.13,9.13A9.13,9.13,0,0,0,1122.86,54.52Zm0,36.52a9.13,9.13,0,1,0,9.13,9.13A9.13,9.13,0,0,0,1122.86,91Zm0,36.52a9.13,9.13,0,1,0,9.13,9.13A9.13,9.13,0,0,0,1122.86,127.57Zm0,36.52a9.13,9.13,0,1,0,9.13,9.13A9.13,9.13,0,0,0,1122.86,164.1Zm0,36.52a9.13,9.13,0,1,0,9.13,9.13A9.13,9.13,0,0,0,1122.86,200.62Zm0,36.52a9.13,9.13,0,1,0,9.13,9.13A9.13,9.13,0,0,0,1122.86,237.15Zm0,36.52a9.13,9.13,0,1,0,9.13,9.13A9.13,9.13,0,0,0,1122.86,273.67Zm0,36.52a9.13,9.13,0,1,0,9.13,9.13A9.13,9.13,0,0,0,1122.86,310.19Zm0,36.52a9.13,9.13,0,1,0,9.13,9.13A9.13,9.13,0,0,0,1122.86,346.72Zm0,36.52a9.13,9.13,0,1,0,9.13,9.13A9.13,9.13,0,0,0,1122.86,383.24Zm0,36.52a9.13,9.13,0,1,0,9.13,9.13A9.13,9.13,0,0,0,1122.86,419.77Zm0,36.52a9.13,9.13,0,1,0,9.13,9.13A9.13,9.13,0,0,0,1122.86,456.29Zm0,36.52a9.13,9.13,0,1,0,9.13,9.13A9.13,9.13,0,0,0,1122.86,492.82Zm0,36.52a9.13,9.13,0,1,0,9.13,9.13A9.13,9.13,0,0,0,1122.86,529.34Zm0,36.52A9.13,9.13,0,1,0,1132,575,9.13,9.13,0,0,0,1122.86,565.86Zm0,36.52a9.13,9.13,0,1,0,9.13,9.13A9.13,9.13,0,0,0,1122.86,602.39Zm0,36.52A9.13,9.13,0,1,0,1132,648,9.13,9.13,0,0,0,1122.86,638.91Zm0,36.52a9.13,9.13,0,1,0,9.13,9.13A9.13,9.13,0,0,0,1122.86,675.44Zm0,36.52a9.13,9.13,0,1,0,9.13,9.13A9.13,9.13,0,0,0,1122.86,712Zm0,36.52a9.13,9.13,0,1,0,9.13,9.13A9.13,9.13,0,0,0,1122.86,748.49Zm0,36.52a9.13,9.13,0,1,0,9.13,9.13A9.13,9.13,0,0,0,1122.86,785Zm0,36.52a9.13,9.13,0,1,0,9.13,9.13A9.13,9.13,0,0,0,1122.86,821.53Zm0,36.52a9.13,9.13,0,1,0,9.13,9.13A9.13,9.13,0,0,0,1122.86,858.06Zm0,36.52a9.13,9.13,0,1,0,9.13,9.13A9.13,9.13,0,0,0,1122.86,894.58Zm0,36.52a9.13,9.13,0,1,0,9.13,9.13A9.13,9.13,0,0,0,1122.86,931.11Zm0,36.52a9.13,9.13,0,1,0,9.13,9.13A9.13,9.13,0,0,0,1122.86,967.63Zm0,36.52a9.13,9.13,0,1,0,9.13,9.13A9.13,9.13,0,0,0,1122.86,1004.16Zm0,36.52a9.13,9.13,0,1,0,9.13,9.13A9.13,9.13,0,0,0,1122.86,1040.68ZM1159.38,18a9.13,9.13,0,1,0,9.13,9.13A9.13,9.13,0,0,0,1159.38,18Zm0,36.52a9.13,9.13,0,1,0,9.13,9.13A9.13,9.13,0,0,0,1159.38,54.52Zm0,36.52a9.13,9.13,0,1,0,9.13,9.13A9.13,9.13,0,0,0,1159.38,91Zm0,36.52a9.13,9.13,0,1,0,9.13,9.13A9.13,9.13,0,0,0,1159.38,127.57Zm0,36.52a9.13,9.13,0,1,0,9.13,9.13A9.13,9.13,0,0,0,1159.38,164.1Zm0,36.52a9.13,9.13,0,1,0,9.13,9.13A9.13,9.13,0,0,0,1159.38,200.62Zm0,36.52a9.13,9.13,0,1,0,9.13,9.13A9.13,9.13,0,0,0,1159.38,237.15Zm0,36.52a9.13,9.13,0,1,0,9.13,9.13A9.13,9.13,0,0,0,1159.38,273.67Zm0,36.52a9.13,9.13,0,1,0,9.13,9.13A9.13,9.13,0,0,0,1159.38,310.19Zm0,36.52a9.13,9.13,0,1,0,9.13,9.13A9.13,9.13,0,0,0,1159.38,346.72Zm0,36.52a9.13,9.13,0,1,0,9.13,9.13A9.13,9.13,0,0,0,1159.38,383.24Zm0,36.52a9.13,9.13,0,1,0,9.13,9.13A9.13,9.13,0,0,0,1159.38,419.77Zm0,36.52a9.13,9.13,0,1,0,9.13,9.13A9.13,9.13,0,0,0,1159.38,456.29Zm0,36.52a9.13,9.13,0,1,0,9.13,9.13A9.13,9.13,0,0,0,1159.38,492.82Zm0,36.52a9.13,9.13,0,1,0,9.13,9.13A9.13,9.13,0,0,0,1159.38,529.34Zm0,36.52a9.13,9.13,0,1,0,9.13,9.13A9.13,9.13,0,0,0,1159.38,565.86Zm0,36.52a9.13,9.13,0,1,0,9.13,9.13A9.13,9.13,0,0,0,1159.38,602.39Zm0,36.52a9.13,9.13,0,1,0,9.13,9.13A9.13,9.13,0,0,0,1159.38,638.91Zm0,36.52a9.13,9.13,0,1,0,9.13,9.13A9.13,9.13,0,0,0,1159.38,675.44Zm0,36.52a9.13,9.13,0,1,0,9.13,9.13A9.13,9.13,0,0,0,1159.38,712Zm0,36.52a9.13,9.13,0,1,0,9.13,9.13A9.13,9.13,0,0,0,1159.38,748.49Zm0,36.52a9.13,9.13,0,1,0,9.13,9.13A9.13,9.13,0,0,0,1159.38,785Zm0,36.52a9.13,9.13,0,1,0,9.13,9.13A9.13,9.13,0,0,0,1159.38,821.53Zm0,36.52a9.13,9.13,0,1,0,9.13,9.13A9.13,9.13,0,0,0,1159.38,858.06Zm0,36.52a9.13,9.13,0,1,0,9.13,9.13A9.13,9.13,0,0,0,1159.38,894.58Zm0,36.52a9.13,9.13,0,1,0,9.13,9.13A9.13,9.13,0,0,0,1159.38,931.11Zm0,36.52a9.13,9.13,0,1,0,9.13,9.13A9.13,9.13,0,0,0,1159.38,967.63Zm0,36.52a9.13,9.13,0,1,0,9.13,9.13A9.13,9.13,0,0,0,1159.38,1004.16Zm0,36.52a9.13,9.13,0,1,0,9.13,9.13A9.13,9.13,0,0,0,1159.38,1040.68ZM1195.91,18a9.13,9.13,0,1,0,9.13,9.13A9.13,9.13,0,0,0,1195.91,18Zm0,36.52a9.13,9.13,0,1,0,9.13,9.13A9.13,9.13,0,0,0,1195.91,54.52Zm0,36.52a9.13,9.13,0,1,0,9.13,9.13A9.13,9.13,0,0,0,1195.91,91Zm0,36.52a9.13,9.13,0,1,0,9.13,9.13A9.13,9.13,0,0,0,1195.91,127.57Zm0,36.52a9.13,9.13,0,1,0,9.13,9.13A9.13,9.13,0,0,0,1195.91,164.1Zm0,36.52a9.13,9.13,0,1,0,9.13,9.13A9.13,9.13,0,0,0,1195.91,200.62Zm0,36.52a9.13,9.13,0,1,0,9.13,9.13A9.13,9.13,0,0,0,1195.91,237.15Zm0,36.52a9.13,9.13,0,1,0,9.13,9.13A9.13,9.13,0,0,0,1195.91,273.67Zm0,36.52a9.13,9.13,0,1,0,9.13,9.13A9.13,9.13,0,0,0,1195.91,310.19Zm0,36.52a9.13,9.13,0,1,0,9.13,9.13A9.13,9.13,0,0,0,1195.91,346.72Zm0,36.52a9.13,9.13,0,1,0,9.13,9.13A9.13,9.13,0,0,0,1195.91,383.24Zm0,36.52a9.13,9.13,0,1,0,9.13,9.13A9.13,9.13,0,0,0,1195.91,419.77Zm0,36.52a9.13,9.13,0,1,0,9.13,9.13A9.13,9.13,0,0,0,1195.91,456.29Zm0,36.52a9.13,9.13,0,1,0,9.13,9.13A9.13,9.13,0,0,0,1195.91,492.82Zm0,36.52a9.13,9.13,0,1,0,9.13,9.13A9.13,9.13,0,0,0,1195.91,529.34Zm0,36.52A9.13,9.13,0,1,0,1205,575,9.13,9.13,0,0,0,1195.91,565.86Zm0,36.52a9.13,9.13,0,1,0,9.13,9.13A9.13,9.13,0,0,0,1195.91,602.39Zm0,36.52A9.13,9.13,0,1,0,1205,648,9.13,9.13,0,0,0,1195.91,638.91Zm0,36.52a9.13,9.13,0,1,0,9.13,9.13A9.13,9.13,0,0,0,1195.91,675.44Zm0,36.52a9.13,9.13,0,1,0,9.13,9.13A9.13,9.13,0,0,0,1195.91,712Zm0,36.52a9.13,9.13,0,1,0,9.13,9.13A9.13,9.13,0,0,0,1195.91,748.49Zm0,36.52a9.13,9.13,0,1,0,9.13,9.13A9.13,9.13,0,0,0,1195.91,785Zm0,36.52a9.13,9.13,0,1,0,9.13,9.13A9.13,9.13,0,0,0,1195.91,821.53Zm0,36.52a9.13,9.13,0,1,0,9.13,9.13A9.13,9.13,0,0,0,1195.91,858.06Zm0,36.52a9.13,9.13,0,1,0,9.13,9.13A9.13,9.13,0,0,0,1195.91,894.58Zm0,36.52a9.13,9.13,0,1,0,9.13,9.13A9.13,9.13,0,0,0,1195.91,931.11Zm0,36.52a9.13,9.13,0,1,0,9.13,9.13A9.13,9.13,0,0,0,1195.91,967.63Zm0,36.52a9.13,9.13,0,1,0,9.13,9.13A9.13,9.13,0,0,0,1195.91,1004.16Zm0,36.52a9.13,9.13,0,1,0,9.13,9.13A9.13,9.13,0,0,0,1195.91,1040.68ZM1232.43,18a9.13,9.13,0,1,0,9.13,9.13A9.13,9.13,0,0,0,1232.43,18Zm0,36.52a9.13,9.13,0,1,0,9.13,9.13A9.13,9.13,0,0,0,1232.43,54.52Zm0,36.52a9.13,9.13,0,1,0,9.13,9.13A9.13,9.13,0,0,0,1232.43,91Zm0,36.52a9.13,9.13,0,1,0,9.13,9.13A9.13,9.13,0,0,0,1232.43,127.57Zm0,36.52a9.13,9.13,0,1,0,9.13,9.13A9.13,9.13,0,0,0,1232.43,164.1Zm0,36.52a9.13,9.13,0,1,0,9.13,9.13A9.13,9.13,0,0,0,1232.43,200.62Zm0,36.52a9.13,9.13,0,1,0,9.13,9.13A9.13,9.13,0,0,0,1232.43,237.15Zm0,36.52a9.13,9.13,0,1,0,9.13,9.13A9.13,9.13,0,0,0,1232.43,273.67Zm0,36.52a9.13,9.13,0,1,0,9.13,9.13A9.13,9.13,0,0,0,1232.43,310.19Zm0,36.52a9.13,9.13,0,1,0,9.13,9.13A9.13,9.13,0,0,0,1232.43,346.72Zm0,36.52a9.13,9.13,0,1,0,9.13,9.13A9.13,9.13,0,0,0,1232.43,383.24Zm0,36.52a9.13,9.13,0,1,0,9.13,9.13A9.13,9.13,0,0,0,1232.43,419.77Zm0,36.52a9.13,9.13,0,1,0,9.13,9.13A9.13,9.13,0,0,0,1232.43,456.29Zm0,36.52a9.13,9.13,0,1,0,9.13,9.13A9.13,9.13,0,0,0,1232.43,492.82Zm0,36.52a9.13,9.13,0,1,0,9.13,9.13A9.13,9.13,0,0,0,1232.43,529.34Zm0,36.52a9.13,9.13,0,1,0,9.13,9.13A9.13,9.13,0,0,0,1232.43,565.86Zm0,36.52a9.13,9.13,0,1,0,9.13,9.13A9.13,9.13,0,0,0,1232.43,602.39Zm0,36.52a9.13,9.13,0,1,0,9.13,9.13A9.13,9.13,0,0,0,1232.43,638.91Zm0,36.52a9.13,9.13,0,1,0,9.13,9.13A9.13,9.13,0,0,0,1232.43,675.44Zm0,36.52a9.13,9.13,0,1,0,9.13,9.13A9.13,9.13,0,0,0,1232.43,712Zm0,36.52a9.13,9.13,0,1,0,9.13,9.13A9.13,9.13,0,0,0,1232.43,748.49Zm0,36.52a9.13,9.13,0,1,0,9.13,9.13A9.13,9.13,0,0,0,1232.43,785Zm0,36.52a9.13,9.13,0,1,0,9.13,9.13A9.13,9.13,0,0,0,1232.43,821.53Zm0,36.52a9.13,9.13,0,1,0,9.13,9.13A9.13,9.13,0,0,0,1232.43,858.06Zm0,36.52a9.13,9.13,0,1,0,9.13,9.13A9.13,9.13,0,0,0,1232.43,894.58Zm0,36.52a9.13,9.13,0,1,0,9.13,9.13A9.13,9.13,0,0,0,1232.43,931.11Zm0,36.52a9.13,9.13,0,1,0,9.13,9.13A9.13,9.13,0,0,0,1232.43,967.63Zm0,36.52a9.13,9.13,0,1,0,9.13,9.13A9.13,9.13,0,0,0,1232.43,1004.16Zm0,36.52a9.13,9.13,0,1,0,9.13,9.13A9.13,9.13,0,0,0,1232.43,1040.68ZM1269,18a9.13,9.13,0,1,0,9.13,9.13A9.13,9.13,0,0,0,1269,18Zm0,36.52a9.13,9.13,0,1,0,9.13,9.13A9.13,9.13,0,0,0,1269,54.52ZM1269,91a9.13,9.13,0,1,0,9.13,9.13A9.13,9.13,0,0,0,1269,91Zm0,36.52a9.13,9.13,0,1,0,9.13,9.13A9.13,9.13,0,0,0,1269,127.57Zm0,36.52a9.13,9.13,0,1,0,9.13,9.13A9.13,9.13,0,0,0,1269,164.1Zm0,36.52a9.13,9.13,0,1,0,9.13,9.13A9.13,9.13,0,0,0,1269,200.62Zm0,36.52a9.13,9.13,0,1,0,9.13,9.13A9.13,9.13,0,0,0,1269,237.15Zm0,36.52a9.13,9.13,0,1,0,9.13,9.13A9.13,9.13,0,0,0,1269,273.67Zm0,36.52a9.13,9.13,0,1,0,9.13,9.13A9.13,9.13,0,0,0,1269,310.19Zm0,36.52a9.13,9.13,0,1,0,9.13,9.13A9.13,9.13,0,0,0,1269,346.72Zm0,36.52a9.13,9.13,0,1,0,9.13,9.13A9.13,9.13,0,0,0,1269,383.24Zm0,36.52a9.13,9.13,0,1,0,9.13,9.13A9.13,9.13,0,0,0,1269,419.77Zm0,36.52a9.13,9.13,0,1,0,9.13,9.13A9.13,9.13,0,0,0,1269,456.29Zm0,36.52a9.13,9.13,0,1,0,9.13,9.13A9.13,9.13,0,0,0,1269,492.82Zm0,36.52a9.13,9.13,0,1,0,9.13,9.13A9.13,9.13,0,0,0,1269,529.34Zm0,36.52a9.13,9.13,0,1,0,9.13,9.13A9.13,9.13,0,0,0,1269,565.86Zm0,36.52a9.13,9.13,0,1,0,9.13,9.13A9.13,9.13,0,0,0,1269,602.39Zm0,36.52a9.13,9.13,0,1,0,9.13,9.13A9.13,9.13,0,0,0,1269,638.91Zm0,36.52a9.13,9.13,0,1,0,9.13,9.13A9.13,9.13,0,0,0,1269,675.44Zm0,36.52a9.13,9.13,0,1,0,9.13,9.13A9.13,9.13,0,0,0,1269,712Zm0,36.52a9.13,9.13,0,1,0,9.13,9.13A9.13,9.13,0,0,0,1269,748.49Zm0,36.52a9.13,9.13,0,1,0,9.13,9.13A9.13,9.13,0,0,0,1269,785Zm0,36.52a9.13,9.13,0,1,0,9.13,9.13A9.13,9.13,0,0,0,1269,821.53Zm0,36.52a9.13,9.13,0,1,0,9.13,9.13A9.13,9.13,0,0,0,1269,858.06Zm0,36.52a9.13,9.13,0,1,0,9.13,9.13A9.13,9.13,0,0,0,1269,894.58Zm0,36.52a9.13,9.13,0,1,0,9.13,9.13A9.13,9.13,0,0,0,1269,931.11Zm0,36.52a9.13,9.13,0,1,0,9.13,9.13A9.13,9.13,0,0,0,1269,967.63Zm0,36.52a9.13,9.13,0,1,0,9.13,9.13A9.13,9.13,0,0,0,1269,1004.16Zm0,36.52a9.13,9.13,0,1,0,9.13,9.13A9.13,9.13,0,0,0,1269,1040.68ZM1305.48,18a9.13,9.13,0,1,0,9.13,9.13A9.13,9.13,0,0,0,1305.48,18Zm0,36.52a9.13,9.13,0,1,0,9.13,9.13A9.13,9.13,0,0,0,1305.48,54.52Zm0,36.52a9.13,9.13,0,1,0,9.13,9.13A9.13,9.13,0,0,0,1305.48,91Zm0,36.52a9.13,9.13,0,1,0,9.13,9.13A9.13,9.13,0,0,0,1305.48,127.57Zm0,36.52a9.13,9.13,0,1,0,9.13,9.13A9.13,9.13,0,0,0,1305.48,164.1Zm0,36.52a9.13,9.13,0,1,0,9.13,9.13A9.13,9.13,0,0,0,1305.48,200.62Zm0,36.52a9.13,9.13,0,1,0,9.13,9.13A9.13,9.13,0,0,0,1305.48,237.15Zm0,36.52a9.13,9.13,0,1,0,9.13,9.13A9.13,9.13,0,0,0,1305.48,273.67Zm0,36.52a9.13,9.13,0,1,0,9.13,9.13A9.13,9.13,0,0,0,1305.48,310.19Zm0,36.52a9.13,9.13,0,1,0,9.13,9.13A9.13,9.13,0,0,0,1305.48,346.72Zm0,36.52a9.13,9.13,0,1,0,9.13,9.13A9.13,9.13,0,0,0,1305.48,383.24Zm0,36.52a9.13,9.13,0,1,0,9.13,9.13A9.13,9.13,0,0,0,1305.48,419.77Zm0,36.52a9.13,9.13,0,1,0,9.13,9.13A9.13,9.13,0,0,0,1305.48,456.29Zm0,36.52a9.13,9.13,0,1,0,9.13,9.13A9.13,9.13,0,0,0,1305.48,492.82Zm0,36.52a9.13,9.13,0,1,0,9.13,9.13A9.13,9.13,0,0,0,1305.48,529.34Zm0,36.52a9.13,9.13,0,1,0,9.13,9.13A9.13,9.13,0,0,0,1305.48,565.86Zm0,36.52a9.13,9.13,0,1,0,9.13,9.13A9.13,9.13,0,0,0,1305.48,602.39Zm0,36.52a9.13,9.13,0,1,0,9.13,9.13A9.13,9.13,0,0,0,1305.48,638.91Zm0,36.52a9.13,9.13,0,1,0,9.13,9.13A9.13,9.13,0,0,0,1305.48,675.44Zm0,36.52a9.13,9.13,0,1,0,9.13,9.13A9.13,9.13,0,0,0,1305.48,712Zm0,36.52a9.13,9.13,0,1,0,9.13,9.13A9.13,9.13,0,0,0,1305.48,748.49Zm0,36.52a9.13,9.13,0,1,0,9.13,9.13A9.13,9.13,0,0,0,1305.48,785Zm0,36.52a9.13,9.13,0,1,0,9.13,9.13A9.13,9.13,0,0,0,1305.48,821.53Zm0,36.52a9.13,9.13,0,1,0,9.13,9.13A9.13,9.13,0,0,0,1305.48,858.06Zm0,36.52a9.13,9.13,0,1,0,9.13,9.13A9.13,9.13,0,0,0,1305.48,894.58Zm0,36.52a9.13,9.13,0,1,0,9.13,9.13A9.13,9.13,0,0,0,1305.48,931.11Zm0,36.52a9.13,9.13,0,1,0,9.13,9.13A9.13,9.13,0,0,0,1305.48,967.63Zm0,36.52a9.13,9.13,0,1,0,9.13,9.13A9.13,9.13,0,0,0,1305.48,1004.16Zm0,36.52a9.13,9.13,0,1,0,9.13,9.13A9.13,9.13,0,0,0,1305.48,1040.68ZM1342,18a9.13,9.13,0,1,0,9.13,9.13A9.13,9.13,0,0,0,1342,18Zm0,36.52a9.13,9.13,0,1,0,9.13,9.13A9.13,9.13,0,0,0,1342,54.52ZM1342,91a9.13,9.13,0,1,0,9.13,9.13A9.13,9.13,0,0,0,1342,91Zm0,36.52a9.13,9.13,0,1,0,9.13,9.13A9.13,9.13,0,0,0,1342,127.57Zm0,36.52a9.13,9.13,0,1,0,9.13,9.13A9.13,9.13,0,0,0,1342,164.1Zm0,36.52a9.13,9.13,0,1,0,9.13,9.13A9.13,9.13,0,0,0,1342,200.62Zm0,36.52a9.13,9.13,0,1,0,9.13,9.13A9.13,9.13,0,0,0,1342,237.15Zm0,36.52a9.13,9.13,0,1,0,9.13,9.13A9.13,9.13,0,0,0,1342,273.67Zm0,36.52a9.13,9.13,0,1,0,9.13,9.13A9.13,9.13,0,0,0,1342,310.19Zm0,36.52a9.13,9.13,0,1,0,9.13,9.13A9.13,9.13,0,0,0,1342,346.72Zm0,36.52a9.13,9.13,0,1,0,9.13,9.13A9.13,9.13,0,0,0,1342,383.24Zm0,36.52a9.13,9.13,0,1,0,9.13,9.13A9.13,9.13,0,0,0,1342,419.77Zm0,36.52a9.13,9.13,0,1,0,9.13,9.13A9.13,9.13,0,0,0,1342,456.29Zm0,36.52a9.13,9.13,0,1,0,9.13,9.13A9.13,9.13,0,0,0,1342,492.82Zm0,36.52a9.13,9.13,0,1,0,9.13,9.13A9.13,9.13,0,0,0,1342,529.34Zm0,36.52a9.13,9.13,0,1,0,9.13,9.13A9.13,9.13,0,0,0,1342,565.86Zm0,36.52a9.13,9.13,0,1,0,9.13,9.13A9.13,9.13,0,0,0,1342,602.39Zm0,36.52a9.13,9.13,0,1,0,9.13,9.13A9.13,9.13,0,0,0,1342,638.91Zm0,36.52a9.13,9.13,0,1,0,9.13,9.13A9.13,9.13,0,0,0,1342,675.44Zm0,36.52a9.13,9.13,0,1,0,9.13,9.13A9.13,9.13,0,0,0,1342,712Zm0,36.52a9.13,9.13,0,1,0,9.13,9.13A9.13,9.13,0,0,0,1342,748.49Zm0,36.52a9.13,9.13,0,1,0,9.13,9.13A9.13,9.13,0,0,0,1342,785Zm0,36.52a9.13,9.13,0,1,0,9.13,9.13A9.13,9.13,0,0,0,1342,821.53Zm0,36.52a9.13,9.13,0,1,0,9.13,9.13A9.13,9.13,0,0,0,1342,858.06Zm0,36.52a9.13,9.13,0,1,0,9.13,9.13A9.13,9.13,0,0,0,1342,894.58Zm0,36.52a9.13,9.13,0,1,0,9.13,9.13A9.13,9.13,0,0,0,1342,931.11Zm0,36.52a9.13,9.13,0,1,0,9.13,9.13A9.13,9.13,0,0,0,1342,967.63Zm0,36.52a9.13,9.13,0,1,0,9.13,9.13A9.13,9.13,0,0,0,1342,1004.16Zm0,36.52a9.13,9.13,0,1,0,9.13,9.13A9.13,9.13,0,0,0,1342,1040.68ZM1378.53,18a9.13,9.13,0,1,0,9.13,9.13A9.13,9.13,0,0,0,1378.53,18Zm0,36.52a9.13,9.13,0,1,0,9.13,9.13A9.13,9.13,0,0,0,1378.53,54.52Zm0,36.52a9.13,9.13,0,1,0,9.13,9.13A9.13,9.13,0,0,0,1378.53,91Zm0,36.52a9.13,9.13,0,1,0,9.13,9.13A9.13,9.13,0,0,0,1378.53,127.57Zm0,36.52a9.13,9.13,0,1,0,9.13,9.13A9.13,9.13,0,0,0,1378.53,164.1Zm0,36.52a9.13,9.13,0,1,0,9.13,9.13A9.13,9.13,0,0,0,1378.53,200.62Zm0,36.52a9.13,9.13,0,1,0,9.13,9.13A9.13,9.13,0,0,0,1378.53,237.15Zm0,36.52a9.13,9.13,0,1,0,9.13,9.13A9.13,9.13,0,0,0,1378.53,273.67Zm0,36.52a9.13,9.13,0,1,0,9.13,9.13A9.13,9.13,0,0,0,1378.53,310.19Zm0,36.52a9.13,9.13,0,1,0,9.13,9.13A9.13,9.13,0,0,0,1378.53,346.72Zm0,36.52a9.13,9.13,0,1,0,9.13,9.13A9.13,9.13,0,0,0,1378.53,383.24Zm0,36.52a9.13,9.13,0,1,0,9.13,9.13A9.13,9.13,0,0,0,1378.53,419.77Zm0,36.52a9.13,9.13,0,1,0,9.13,9.13A9.13,9.13,0,0,0,1378.53,456.29Zm0,36.52a9.13,9.13,0,1,0,9.13,9.13A9.13,9.13,0,0,0,1378.53,492.82Zm0,36.52a9.13,9.13,0,1,0,9.13,9.13A9.13,9.13,0,0,0,1378.53,529.34Zm0,36.52a9.13,9.13,0,1,0,9.13,9.13A9.13,9.13,0,0,0,1378.53,565.86Zm0,36.52a9.13,9.13,0,1,0,9.13,9.13A9.13,9.13,0,0,0,1378.53,602.39Zm0,36.52a9.13,9.13,0,1,0,9.13,9.13A9.13,9.13,0,0,0,1378.53,638.91Zm0,36.52a9.13,9.13,0,1,0,9.13,9.13A9.13,9.13,0,0,0,1378.53,675.44Zm0,36.52a9.13,9.13,0,1,0,9.13,9.13A9.13,9.13,0,0,0,1378.53,712Zm0,36.52a9.13,9.13,0,1,0,9.13,9.13A9.13,9.13,0,0,0,1378.53,748.49Zm0,36.52a9.13,9.13,0,1,0,9.13,9.13A9.13,9.13,0,0,0,1378.53,785Zm0,36.52a9.13,9.13,0,1,0,9.13,9.13A9.13,9.13,0,0,0,1378.53,821.53Zm0,36.52a9.13,9.13,0,1,0,9.13,9.13A9.13,9.13,0,0,0,1378.53,858.06Zm0,36.52a9.13,9.13,0,1,0,9.13,9.13A9.13,9.13,0,0,0,1378.53,894.58Zm0,36.52a9.13,9.13,0,1,0,9.13,9.13A9.13,9.13,0,0,0,1378.53,931.11Zm0,36.52a9.13,9.13,0,1,0,9.13,9.13A9.13,9.13,0,0,0,1378.53,967.63Zm0,36.52a9.13,9.13,0,1,0,9.13,9.13A9.13,9.13,0,0,0,1378.53,1004.16Zm0,36.52a9.13,9.13,0,1,0,9.13,9.13A9.13,9.13,0,0,0,1378.53,1040.68ZM1415.05,18a9.13,9.13,0,1,0,9.13,9.13A9.13,9.13,0,0,0,1415.05,18Zm0,36.52a9.13,9.13,0,1,0,9.13,9.13A9.13,9.13,0,0,0,1415.05,54.52Zm0,36.52a9.13,9.13,0,1,0,9.13,9.13A9.13,9.13,0,0,0,1415.05,91Zm0,36.52a9.13,9.13,0,1,0,9.13,9.13A9.13,9.13,0,0,0,1415.05,127.57Zm0,36.52a9.13,9.13,0,1,0,9.13,9.13A9.13,9.13,0,0,0,1415.05,164.1Zm0,36.52a9.13,9.13,0,1,0,9.13,9.13A9.13,9.13,0,0,0,1415.05,200.62Zm0,36.52a9.13,9.13,0,1,0,9.13,9.13A9.13,9.13,0,0,0,1415.05,237.15Zm0,36.52a9.13,9.13,0,1,0,9.13,9.13A9.13,9.13,0,0,0,1415.05,273.67Zm0,36.52a9.13,9.13,0,1,0,9.13,9.13A9.13,9.13,0,0,0,1415.05,310.19Zm0,36.52a9.13,9.13,0,1,0,9.13,9.13A9.13,9.13,0,0,0,1415.05,346.72Zm0,36.52a9.13,9.13,0,1,0,9.13,9.13A9.13,9.13,0,0,0,1415.05,383.24Zm0,36.52a9.13,9.13,0,1,0,9.13,9.13A9.13,9.13,0,0,0,1415.05,419.77Zm0,36.52a9.13,9.13,0,1,0,9.13,9.13A9.13,9.13,0,0,0,1415.05,456.29Zm0,36.52a9.13,9.13,0,1,0,9.13,9.13A9.13,9.13,0,0,0,1415.05,492.82Zm0,36.52a9.13,9.13,0,1,0,9.13,9.13A9.13,9.13,0,0,0,1415.05,529.34Zm0,36.52a9.13,9.13,0,1,0,9.13,9.13A9.13,9.13,0,0,0,1415.05,565.86Zm0,36.52a9.13,9.13,0,1,0,9.13,9.13A9.13,9.13,0,0,0,1415.05,602.39Zm0,36.52a9.13,9.13,0,1,0,9.13,9.13A9.13,9.13,0,0,0,1415.05,638.91Zm0,36.52a9.13,9.13,0,1,0,9.13,9.13A9.13,9.13,0,0,0,1415.05,675.44Zm0,36.52a9.13,9.13,0,1,0,9.13,9.13A9.13,9.13,0,0,0,1415.05,712Zm0,36.52a9.13,9.13,0,1,0,9.13,9.13A9.13,9.13,0,0,0,1415.05,748.49Zm0,36.52a9.13,9.13,0,1,0,9.13,9.13A9.13,9.13,0,0,0,1415.05,785Zm0,36.52a9.13,9.13,0,1,0,9.13,9.13A9.13,9.13,0,0,0,1415.05,821.53Zm0,36.52a9.13,9.13,0,1,0,9.13,9.13A9.13,9.13,0,0,0,1415.05,858.06Zm0,36.52a9.13,9.13,0,1,0,9.13,9.13A9.13,9.13,0,0,0,1415.05,894.58Zm0,36.52a9.13,9.13,0,1,0,9.13,9.13A9.13,9.13,0,0,0,1415.05,931.11Zm0,36.52a9.13,9.13,0,1,0,9.13,9.13A9.13,9.13,0,0,0,1415.05,967.63Zm0,36.52a9.13,9.13,0,1,0,9.13,9.13A9.13,9.13,0,0,0,1415.05,1004.16Zm0,36.52a9.13,9.13,0,1,0,9.13,9.13A9.13,9.13,0,0,0,1415.05,1040.68ZM1451.58,18a9.13,9.13,0,1,0,9.13,9.13A9.13,9.13,0,0,0,1451.58,18Zm0,36.52a9.13,9.13,0,1,0,9.13,9.13A9.13,9.13,0,0,0,1451.58,54.52Zm0,36.52a9.13,9.13,0,1,0,9.13,9.13A9.13,9.13,0,0,0,1451.58,91Zm0,36.52a9.13,9.13,0,1,0,9.13,9.13A9.13,9.13,0,0,0,1451.58,127.57Zm0,36.52a9.13,9.13,0,1,0,9.13,9.13A9.13,9.13,0,0,0,1451.58,164.1Zm0,36.52a9.13,9.13,0,1,0,9.13,9.13A9.13,9.13,0,0,0,1451.58,200.62Zm0,36.52a9.13,9.13,0,1,0,9.13,9.13A9.13,9.13,0,0,0,1451.58,237.15Zm0,36.52a9.13,9.13,0,1,0,9.13,9.13A9.13,9.13,0,0,0,1451.58,273.67Zm0,36.52a9.13,9.13,0,1,0,9.13,9.13A9.13,9.13,0,0,0,1451.58,310.19Zm0,36.52a9.13,9.13,0,1,0,9.13,9.13A9.13,9.13,0,0,0,1451.58,346.72Zm0,36.52a9.13,9.13,0,1,0,9.13,9.13A9.13,9.13,0,0,0,1451.58,383.24Zm0,36.52a9.13,9.13,0,1,0,9.13,9.13A9.13,9.13,0,0,0,1451.58,419.77Zm0,36.52a9.13,9.13,0,1,0,9.13,9.13A9.13,9.13,0,0,0,1451.58,456.29Zm0,36.52a9.13,9.13,0,1,0,9.13,9.13A9.13,9.13,0,0,0,1451.58,492.82Zm0,36.52a9.13,9.13,0,1,0,9.13,9.13A9.13,9.13,0,0,0,1451.58,529.34Zm0,36.52a9.13,9.13,0,1,0,9.13,9.13A9.13,9.13,0,0,0,1451.58,565.86Zm0,36.52a9.13,9.13,0,1,0,9.13,9.13A9.13,9.13,0,0,0,1451.58,602.39Zm0,36.52a9.13,9.13,0,1,0,9.13,9.13A9.13,9.13,0,0,0,1451.58,638.91Zm0,36.52a9.13,9.13,0,1,0,9.13,9.13A9.13,9.13,0,0,0,1451.58,675.44Zm0,36.52a9.13,9.13,0,1,0,9.13,9.13A9.13,9.13,0,0,0,1451.58,712Zm0,36.52a9.13,9.13,0,1,0,9.13,9.13A9.13,9.13,0,0,0,1451.58,748.49Zm0,36.52a9.13,9.13,0,1,0,9.13,9.13A9.13,9.13,0,0,0,1451.58,785Zm0,36.52a9.13,9.13,0,1,0,9.13,9.13A9.13,9.13,0,0,0,1451.58,821.53Zm0,36.52a9.13,9.13,0,1,0,9.13,9.13A9.13,9.13,0,0,0,1451.58,858.06Zm0,36.52a9.13,9.13,0,1,0,9.13,9.13A9.13,9.13,0,0,0,1451.58,894.58Zm0,36.52a9.13,9.13,0,1,0,9.13,9.13A9.13,9.13,0,0,0,1451.58,931.11Zm0,36.52a9.13,9.13,0,1,0,9.13,9.13A9.13,9.13,0,0,0,1451.58,967.63Zm0,36.52a9.13,9.13,0,1,0,9.13,9.13A9.13,9.13,0,0,0,1451.58,1004.16Zm0,36.52a9.13,9.13,0,1,0,9.13,9.13A9.13,9.13,0,0,0,1451.58,1040.68ZM1488.1,18a9.13,9.13,0,1,0,9.13,9.13A9.13,9.13,0,0,0,1488.1,18Zm0,36.52a9.13,9.13,0,1,0,9.13,9.13A9.13,9.13,0,0,0,1488.1,54.52Zm0,36.52a9.13,9.13,0,1,0,9.13,9.13A9.13,9.13,0,0,0,1488.1,91Zm0,36.52a9.13,9.13,0,1,0,9.13,9.13A9.13,9.13,0,0,0,1488.1,127.57Zm0,36.52a9.13,9.13,0,1,0,9.13,9.13A9.13,9.13,0,0,0,1488.1,164.1Zm0,36.52a9.13,9.13,0,1,0,9.13,9.13A9.13,9.13,0,0,0,1488.1,200.62Zm0,36.52a9.13,9.13,0,1,0,9.13,9.13A9.13,9.13,0,0,0,1488.1,237.15Zm0,36.52a9.13,9.13,0,1,0,9.13,9.13A9.13,9.13,0,0,0,1488.1,273.67Zm0,36.52a9.13,9.13,0,1,0,9.13,9.13A9.13,9.13,0,0,0,1488.1,310.19Zm0,36.52a9.13,9.13,0,1,0,9.13,9.13A9.13,9.13,0,0,0,1488.1,346.72Zm0,36.52a9.13,9.13,0,1,0,9.13,9.13A9.13,9.13,0,0,0,1488.1,383.24Zm0,36.52a9.13,9.13,0,1,0,9.13,9.13A9.13,9.13,0,0,0,1488.1,419.77Zm0,36.52a9.13,9.13,0,1,0,9.13,9.13A9.13,9.13,0,0,0,1488.1,456.29Zm0,36.52a9.13,9.13,0,1,0,9.13,9.13A9.13,9.13,0,0,0,1488.1,492.82Zm0,36.52a9.13,9.13,0,1,0,9.13,9.13A9.13,9.13,0,0,0,1488.1,529.34Zm0,36.52a9.13,9.13,0,1,0,9.13,9.13A9.13,9.13,0,0,0,1488.1,565.86Zm0,36.52a9.13,9.13,0,1,0,9.13,9.13A9.13,9.13,0,0,0,1488.1,602.39Zm0,36.52a9.13,9.13,0,1,0,9.13,9.13A9.13,9.13,0,0,0,1488.1,638.91Zm0,36.52a9.13,9.13,0,1,0,9.13,9.13A9.13,9.13,0,0,0,1488.1,675.44Zm0,36.52a9.13,9.13,0,1,0,9.13,9.13A9.13,9.13,0,0,0,1488.1,712Zm0,36.52a9.13,9.13,0,1,0,9.13,9.13A9.13,9.13,0,0,0,1488.1,748.49Zm0,36.52a9.13,9.13,0,1,0,9.13,9.13A9.13,9.13,0,0,0,1488.1,785Zm0,36.52a9.13,9.13,0,1,0,9.13,9.13A9.13,9.13,0,0,0,1488.1,821.53Zm0,36.52a9.13,9.13,0,1,0,9.13,9.13A9.13,9.13,0,0,0,1488.1,858.06Zm0,36.52a9.13,9.13,0,1,0,9.13,9.13A9.13,9.13,0,0,0,1488.1,894.58Zm0,36.52a9.13,9.13,0,1,0,9.13,9.13A9.13,9.13,0,0,0,1488.1,931.11Zm0,36.52a9.13,9.13,0,1,0,9.13,9.13A9.13,9.13,0,0,0,1488.1,967.63Zm0,36.52a9.13,9.13,0,1,0,9.13,9.13A9.13,9.13,0,0,0,1488.1,1004.16Zm0,36.52a9.13,9.13,0,1,0,9.13,9.13A9.13,9.13,0,0,0,1488.1,1040.68ZM1524.63,18a9.13,9.13,0,1,0,9.13,9.13A9.13,9.13,0,0,0,1524.63,18Zm0,36.52a9.13,9.13,0,1,0,9.13,9.13A9.13,9.13,0,0,0,1524.63,54.52Zm0,36.52a9.13,9.13,0,1,0,9.13,9.13A9.13,9.13,0,0,0,1524.63,91Zm0,36.52a9.13,9.13,0,1,0,9.13,9.13A9.13,9.13,0,0,0,1524.63,127.57Zm0,36.52a9.13,9.13,0,1,0,9.13,9.13A9.13,9.13,0,0,0,1524.63,164.1Zm0,36.52a9.13,9.13,0,1,0,9.13,9.13A9.13,9.13,0,0,0,1524.63,200.62Zm0,36.52a9.13,9.13,0,1,0,9.13,9.13A9.13,9.13,0,0,0,1524.63,237.15Zm0,36.52a9.13,9.13,0,1,0,9.13,9.13A9.13,9.13,0,0,0,1524.63,273.67Zm0,36.52a9.13,9.13,0,1,0,9.13,9.13A9.13,9.13,0,0,0,1524.63,310.19Zm0,36.52a9.13,9.13,0,1,0,9.13,9.13A9.13,9.13,0,0,0,1524.63,346.72Zm0,36.52a9.13,9.13,0,1,0,9.13,9.13A9.13,9.13,0,0,0,1524.63,383.24Zm0,36.52a9.13,9.13,0,1,0,9.13,9.13A9.13,9.13,0,0,0,1524.63,419.77Zm0,36.52a9.13,9.13,0,1,0,9.13,9.13A9.13,9.13,0,0,0,1524.63,456.29Zm0,36.52a9.13,9.13,0,1,0,9.13,9.13A9.13,9.13,0,0,0,1524.63,492.82Zm0,36.52a9.13,9.13,0,1,0,9.13,9.13A9.13,9.13,0,0,0,1524.63,529.34Zm0,36.52a9.13,9.13,0,1,0,9.13,9.13A9.13,9.13,0,0,0,1524.63,565.86Zm0,36.52a9.13,9.13,0,1,0,9.13,9.13A9.13,9.13,0,0,0,1524.63,602.39Zm0,36.52a9.13,9.13,0,1,0,9.13,9.13A9.13,9.13,0,0,0,1524.63,638.91Zm0,36.52a9.13,9.13,0,1,0,9.13,9.13A9.13,9.13,0,0,0,1524.63,675.44Zm0,36.52a9.13,9.13,0,1,0,9.13,9.13A9.13,9.13,0,0,0,1524.63,712Zm0,36.52a9.13,9.13,0,1,0,9.13,9.13A9.13,9.13,0,0,0,1524.63,748.49Zm0,36.52a9.13,9.13,0,1,0,9.13,9.13A9.13,9.13,0,0,0,1524.63,785Zm0,36.52a9.13,9.13,0,1,0,9.13,9.13A9.13,9.13,0,0,0,1524.63,821.53Zm0,36.52a9.13,9.13,0,1,0,9.13,9.13A9.13,9.13,0,0,0,1524.63,858.06Zm0,36.52a9.13,9.13,0,1,0,9.13,9.13A9.13,9.13,0,0,0,1524.63,894.58Zm0,36.52a9.13,9.13,0,1,0,9.13,9.13A9.13,9.13,0,0,0,1524.63,931.11Zm0,36.52a9.13,9.13,0,1,0,9.13,9.13A9.13,9.13,0,0,0,1524.63,967.63Zm0,36.52a9.13,9.13,0,1,0,9.13,9.13A9.13,9.13,0,0,0,1524.63,1004.16Zm0,36.52a9.13,9.13,0,1,0,9.13,9.13A9.13,9.13,0,0,0,1524.63,1040.68ZM1561.15,18a9.13,9.13,0,1,0,9.13,9.13A9.13,9.13,0,0,0,1561.15,18Zm0,36.52a9.13,9.13,0,1,0,9.13,9.13A9.13,9.13,0,0,0,1561.15,54.52Zm0,36.52a9.13,9.13,0,1,0,9.13,9.13A9.13,9.13,0,0,0,1561.15,91Zm0,36.52a9.13,9.13,0,1,0,9.13,9.13A9.13,9.13,0,0,0,1561.15,127.57Zm0,36.52a9.13,9.13,0,1,0,9.13,9.13A9.13,9.13,0,0,0,1561.15,164.1Zm0,36.52a9.13,9.13,0,1,0,9.13,9.13A9.13,9.13,0,0,0,1561.15,200.62Zm0,36.52a9.13,9.13,0,1,0,9.13,9.13A9.13,9.13,0,0,0,1561.15,237.15Zm0,36.52a9.13,9.13,0,1,0,9.13,9.13A9.13,9.13,0,0,0,1561.15,273.67Zm0,36.52a9.13,9.13,0,1,0,9.13,9.13A9.13,9.13,0,0,0,1561.15,310.19Zm0,36.52a9.13,9.13,0,1,0,9.13,9.13A9.13,9.13,0,0,0,1561.15,346.72Zm0,36.52a9.13,9.13,0,1,0,9.13,9.13A9.13,9.13,0,0,0,1561.15,383.24Zm0,36.52a9.13,9.13,0,1,0,9.13,9.13A9.13,9.13,0,0,0,1561.15,419.77Zm0,36.52a9.13,9.13,0,1,0,9.13,9.13A9.13,9.13,0,0,0,1561.15,456.29Zm0,36.52a9.13,9.13,0,1,0,9.13,9.13A9.13,9.13,0,0,0,1561.15,492.82Zm0,36.52a9.13,9.13,0,1,0,9.13,9.13A9.13,9.13,0,0,0,1561.15,529.34Zm0,36.52a9.13,9.13,0,1,0,9.13,9.13A9.13,9.13,0,0,0,1561.15,565.86Zm0,36.52a9.13,9.13,0,1,0,9.13,9.13A9.13,9.13,0,0,0,1561.15,602.39Zm0,36.52a9.13,9.13,0,1,0,9.13,9.13A9.13,9.13,0,0,0,1561.15,638.91Zm0,36.52a9.13,9.13,0,1,0,9.13,9.13A9.13,9.13,0,0,0,1561.15,675.44Zm0,36.52a9.13,9.13,0,1,0,9.13,9.13A9.13,9.13,0,0,0,1561.15,712Zm0,36.52a9.13,9.13,0,1,0,9.13,9.13A9.13,9.13,0,0,0,1561.15,748.49Zm0,36.52a9.13,9.13,0,1,0,9.13,9.13A9.13,9.13,0,0,0,1561.15,785Zm0,36.52a9.13,9.13,0,1,0,9.13,9.13A9.13,9.13,0,0,0,1561.15,821.53Zm0,36.52a9.13,9.13,0,1,0,9.13,9.13A9.13,9.13,0,0,0,1561.15,858.06Zm0,36.52a9.13,9.13,0,1,0,9.13,9.13A9.13,9.13,0,0,0,1561.15,894.58Zm0,36.52a9.13,9.13,0,1,0,9.13,9.13A9.13,9.13,0,0,0,1561.15,931.11Zm0,36.52a9.13,9.13,0,1,0,9.13,9.13A9.13,9.13,0,0,0,1561.15,967.63Zm0,36.52a9.13,9.13,0,1,0,9.13,9.13A9.13,9.13,0,0,0,1561.15,1004.16Zm0,36.52a9.13,9.13,0,1,0,9.13,9.13A9.13,9.13,0,0,0,1561.15,1040.68ZM1597.67,18a9.13,9.13,0,1,0,9.13,9.13A9.13,9.13,0,0,0,1597.67,18Zm0,36.52a9.13,9.13,0,1,0,9.13,9.13A9.13,9.13,0,0,0,1597.67,54.52Zm0,36.52a9.13,9.13,0,1,0,9.13,9.13A9.13,9.13,0,0,0,1597.67,91Zm0,36.52a9.13,9.13,0,1,0,9.13,9.13A9.13,9.13,0,0,0,1597.67,127.57Zm0,36.52a9.13,9.13,0,1,0,9.13,9.13A9.13,9.13,0,0,0,1597.67,164.1Zm0,36.52a9.13,9.13,0,1,0,9.13,9.13A9.13,9.13,0,0,0,1597.67,200.62Zm0,36.52a9.13,9.13,0,1,0,9.13,9.13A9.13,9.13,0,0,0,1597.67,237.15Zm0,36.52a9.13,9.13,0,1,0,9.13,9.13A9.13,9.13,0,0,0,1597.67,273.67Zm0,36.52a9.13,9.13,0,1,0,9.13,9.13A9.13,9.13,0,0,0,1597.67,310.19Zm0,36.52a9.13,9.13,0,1,0,9.13,9.13A9.13,9.13,0,0,0,1597.67,346.72Zm0,36.52a9.13,9.13,0,1,0,9.13,9.13A9.13,9.13,0,0,0,1597.67,383.24Zm0,36.52a9.13,9.13,0,1,0,9.13,9.13A9.13,9.13,0,0,0,1597.67,419.77Zm0,36.52a9.13,9.13,0,1,0,9.13,9.13A9.13,9.13,0,0,0,1597.67,456.29Zm0,36.52a9.13,9.13,0,1,0,9.13,9.13A9.13,9.13,0,0,0,1597.67,492.82Zm0,36.52a9.13,9.13,0,1,0,9.13,9.13A9.13,9.13,0,0,0,1597.67,529.34Zm0,36.52a9.13,9.13,0,1,0,9.13,9.13A9.13,9.13,0,0,0,1597.67,565.86Zm0,36.52a9.13,9.13,0,1,0,9.13,9.13A9.13,9.13,0,0,0,1597.67,602.39Zm0,36.52a9.13,9.13,0,1,0,9.13,9.13A9.13,9.13,0,0,0,1597.67,638.91Zm0,36.52a9.13,9.13,0,1,0,9.13,9.13A9.13,9.13,0,0,0,1597.67,675.44Zm0,36.52a9.13,9.13,0,1,0,9.13,9.13A9.13,9.13,0,0,0,1597.67,712Zm0,36.52a9.13,9.13,0,1,0,9.13,9.13A9.13,9.13,0,0,0,1597.67,748.49Zm0,36.52a9.13,9.13,0,1,0,9.13,9.13A9.13,9.13,0,0,0,1597.67,785Zm0,36.52a9.13,9.13,0,1,0,9.13,9.13A9.13,9.13,0,0,0,1597.67,821.53Zm0,36.52a9.13,9.13,0,1,0,9.13,9.13A9.13,9.13,0,0,0,1597.67,858.06Zm0,36.52a9.13,9.13,0,1,0,9.13,9.13A9.13,9.13,0,0,0,1597.67,894.58Zm0,36.52a9.13,9.13,0,1,0,9.13,9.13A9.13,9.13,0,0,0,1597.67,931.11Zm0,36.52a9.13,9.13,0,1,0,9.13,9.13A9.13,9.13,0,0,0,1597.67,967.63Zm0,36.52a9.13,9.13,0,1,0,9.13,9.13A9.13,9.13,0,0,0,1597.67,1004.16Zm0,36.52a9.13,9.13,0,1,0,9.13,9.13A9.13,9.13,0,0,0,1597.67,1040.68ZM1634.2,18a9.13,9.13,0,1,0,9.13,9.13A9.13,9.13,0,0,0,1634.2,18Zm0,36.52a9.13,9.13,0,1,0,9.13,9.13A9.13,9.13,0,0,0,1634.2,54.52Zm0,36.52a9.13,9.13,0,1,0,9.13,9.13A9.13,9.13,0,0,0,1634.2,91Zm0,36.52a9.13,9.13,0,1,0,9.13,9.13A9.13,9.13,0,0,0,1634.2,127.57Zm0,36.52a9.13,9.13,0,1,0,9.13,9.13A9.13,9.13,0,0,0,1634.2,164.1Zm0,36.52a9.13,9.13,0,1,0,9.13,9.13A9.13,9.13,0,0,0,1634.2,200.62Zm0,36.52a9.13,9.13,0,1,0,9.13,9.13A9.13,9.13,0,0,0,1634.2,237.15Zm0,36.52a9.13,9.13,0,1,0,9.13,9.13A9.13,9.13,0,0,0,1634.2,273.67Zm0,36.52a9.13,9.13,0,1,0,9.13,9.13A9.13,9.13,0,0,0,1634.2,310.19Zm0,36.52a9.13,9.13,0,1,0,9.13,9.13A9.13,9.13,0,0,0,1634.2,346.72Zm0,36.52a9.13,9.13,0,1,0,9.13,9.13A9.13,9.13,0,0,0,1634.2,383.24Zm0,36.52a9.13,9.13,0,1,0,9.13,9.13A9.13,9.13,0,0,0,1634.2,419.77Zm0,36.52a9.13,9.13,0,1,0,9.13,9.13A9.13,9.13,0,0,0,1634.2,456.29Zm0,36.52a9.13,9.13,0,1,0,9.13,9.13A9.13,9.13,0,0,0,1634.2,492.82Zm0,36.52a9.13,9.13,0,1,0,9.13,9.13A9.13,9.13,0,0,0,1634.2,529.34Zm0,36.52a9.13,9.13,0,1,0,9.13,9.13A9.13,9.13,0,0,0,1634.2,565.86Zm0,36.52a9.13,9.13,0,1,0,9.13,9.13A9.13,9.13,0,0,0,1634.2,602.39Zm0,36.52a9.13,9.13,0,1,0,9.13,9.13A9.13,9.13,0,0,0,1634.2,638.91Zm0,36.52a9.13,9.13,0,1,0,9.13,9.13A9.13,9.13,0,0,0,1634.2,675.44Zm0,36.52a9.13,9.13,0,1,0,9.13,9.13A9.13,9.13,0,0,0,1634.2,712Zm0,36.52a9.13,9.13,0,1,0,9.13,9.13A9.13,9.13,0,0,0,1634.2,748.49Zm0,36.52a9.13,9.13,0,1,0,9.13,9.13A9.13,9.13,0,0,0,1634.2,785Zm0,36.52a9.13,9.13,0,1,0,9.13,9.13A9.13,9.13,0,0,0,1634.2,821.53Zm0,36.52a9.13,9.13,0,1,0,9.13,9.13A9.13,9.13,0,0,0,1634.2,858.06Zm0,36.52a9.13,9.13,0,1,0,9.13,9.13A9.13,9.13,0,0,0,1634.2,894.58Zm0,36.52a9.13,9.13,0,1,0,9.13,9.13A9.13,9.13,0,0,0,1634.2,931.11Zm0,36.52a9.13,9.13,0,1,0,9.13,9.13A9.13,9.13,0,0,0,1634.2,967.63Zm0,36.52a9.13,9.13,0,1,0,9.13,9.13A9.13,9.13,0,0,0,1634.2,1004.16Zm0,36.52a9.13,9.13,0,1,0,9.13,9.13A9.13,9.13,0,0,0,1634.2,1040.68ZM1670.72,18a9.13,9.13,0,1,0,9.13,9.13A9.13,9.13,0,0,0,1670.72,18Zm0,36.52a9.13,9.13,0,1,0,9.13,9.13A9.13,9.13,0,0,0,1670.72,54.52Zm0,36.52a9.13,9.13,0,1,0,9.13,9.13A9.13,9.13,0,0,0,1670.72,91Zm0,36.52a9.13,9.13,0,1,0,9.13,9.13A9.13,9.13,0,0,0,1670.72,127.57Zm0,36.52a9.13,9.13,0,1,0,9.13,9.13A9.13,9.13,0,0,0,1670.72,164.1Zm0,36.52a9.13,9.13,0,1,0,9.13,9.13A9.13,9.13,0,0,0,1670.72,200.62Zm0,36.52a9.13,9.13,0,1,0,9.13,9.13A9.13,9.13,0,0,0,1670.72,237.15Zm0,36.52a9.13,9.13,0,1,0,9.13,9.13A9.13,9.13,0,0,0,1670.72,273.67Zm0,36.52a9.13,9.13,0,1,0,9.13,9.13A9.13,9.13,0,0,0,1670.72,310.19Zm0,36.52a9.13,9.13,0,1,0,9.13,9.13A9.13,9.13,0,0,0,1670.72,346.72Zm0,36.52a9.13,9.13,0,1,0,9.13,9.13A9.13,9.13,0,0,0,1670.72,383.24Zm0,36.52a9.13,9.13,0,1,0,9.13,9.13A9.13,9.13,0,0,0,1670.72,419.77Zm0,36.52a9.13,9.13,0,1,0,9.13,9.13A9.13,9.13,0,0,0,1670.72,456.29Zm0,36.52a9.13,9.13,0,1,0,9.13,9.13A9.13,9.13,0,0,0,1670.72,492.82Zm0,36.52a9.13,9.13,0,1,0,9.13,9.13A9.13,9.13,0,0,0,1670.72,529.34Zm0,36.52a9.13,9.13,0,1,0,9.13,9.13A9.13,9.13,0,0,0,1670.72,565.86Zm0,36.52a9.13,9.13,0,1,0,9.13,9.13A9.13,9.13,0,0,0,1670.72,602.39Zm0,36.52a9.13,9.13,0,1,0,9.13,9.13A9.13,9.13,0,0,0,1670.72,638.91Zm0,36.52a9.13,9.13,0,1,0,9.13,9.13A9.13,9.13,0,0,0,1670.72,675.44Zm0,36.52a9.13,9.13,0,1,0,9.13,9.13A9.13,9.13,0,0,0,1670.72,712Zm0,36.52a9.13,9.13,0,1,0,9.13,9.13A9.13,9.13,0,0,0,1670.72,748.49Zm0,36.52a9.13,9.13,0,1,0,9.13,9.13A9.13,9.13,0,0,0,1670.72,785Zm0,36.52a9.13,9.13,0,1,0,9.13,9.13A9.13,9.13,0,0,0,1670.72,821.53Zm0,36.52a9.13,9.13,0,1,0,9.13,9.13A9.13,9.13,0,0,0,1670.72,858.06Zm0,36.52a9.13,9.13,0,1,0,9.13,9.13A9.13,9.13,0,0,0,1670.72,894.58Zm0,36.52a9.13,9.13,0,1,0,9.13,9.13A9.13,9.13,0,0,0,1670.72,931.11Zm0,36.52a9.13,9.13,0,1,0,9.13,9.13A9.13,9.13,0,0,0,1670.72,967.63Zm0,36.52a9.13,9.13,0,1,0,9.13,9.13A9.13,9.13,0,0,0,1670.72,1004.16Zm0,36.52a9.13,9.13,0,1,0,9.13,9.13A9.13,9.13,0,0,0,1670.72,1040.68ZM1707.25,18a9.13,9.13,0,1,0,9.13,9.13A9.13,9.13,0,0,0,1707.25,18Zm0,36.52a9.13,9.13,0,1,0,9.13,9.13A9.13,9.13,0,0,0,1707.25,54.52Zm0,36.52a9.13,9.13,0,1,0,9.13,9.13A9.13,9.13,0,0,0,1707.25,91Zm0,36.52a9.13,9.13,0,1,0,9.13,9.13A9.13,9.13,0,0,0,1707.25,127.57Zm0,36.52a9.13,9.13,0,1,0,9.13,9.13A9.13,9.13,0,0,0,1707.25,164.1Zm0,36.52a9.13,9.13,0,1,0,9.13,9.13A9.13,9.13,0,0,0,1707.25,200.62Zm0,36.52a9.13,9.13,0,1,0,9.13,9.13A9.13,9.13,0,0,0,1707.25,237.15Zm0,36.52a9.13,9.13,0,1,0,9.13,9.13A9.13,9.13,0,0,0,1707.25,273.67Zm0,36.52a9.13,9.13,0,1,0,9.13,9.13A9.13,9.13,0,0,0,1707.25,310.19Zm0,36.52a9.13,9.13,0,1,0,9.13,9.13A9.13,9.13,0,0,0,1707.25,346.72Zm0,36.52a9.13,9.13,0,1,0,9.13,9.13A9.13,9.13,0,0,0,1707.25,383.24Zm0,36.52a9.13,9.13,0,1,0,9.13,9.13A9.13,9.13,0,0,0,1707.25,419.77Zm0,36.52a9.13,9.13,0,1,0,9.13,9.13A9.13,9.13,0,0,0,1707.25,456.29Zm0,36.52a9.13,9.13,0,1,0,9.13,9.13A9.13,9.13,0,0,0,1707.25,492.82Zm0,36.52a9.13,9.13,0,1,0,9.13,9.13A9.13,9.13,0,0,0,1707.25,529.34Zm0,36.52a9.13,9.13,0,1,0,9.13,9.13A9.13,9.13,0,0,0,1707.25,565.86Zm0,36.52a9.13,9.13,0,1,0,9.13,9.13A9.13,9.13,0,0,0,1707.25,602.39Zm0,36.52a9.13,9.13,0,1,0,9.13,9.13A9.13,9.13,0,0,0,1707.25,638.91Zm0,36.52a9.13,9.13,0,1,0,9.13,9.13A9.13,9.13,0,0,0,1707.25,675.44Zm0,36.52a9.13,9.13,0,1,0,9.13,9.13A9.13,9.13,0,0,0,1707.25,712Zm0,36.52a9.13,9.13,0,1,0,9.13,9.13A9.13,9.13,0,0,0,1707.25,748.49Zm0,36.52a9.13,9.13,0,1,0,9.13,9.13A9.13,9.13,0,0,0,1707.25,785Zm0,36.52a9.13,9.13,0,1,0,9.13,9.13A9.13,9.13,0,0,0,1707.25,821.53Zm0,36.52a9.13,9.13,0,1,0,9.13,9.13A9.13,9.13,0,0,0,1707.25,858.06Zm0,36.52a9.13,9.13,0,1,0,9.13,9.13A9.13,9.13,0,0,0,1707.25,894.58Zm0,36.52a9.13,9.13,0,1,0,9.13,9.13A9.13,9.13,0,0,0,1707.25,931.11Zm0,36.52a9.13,9.13,0,1,0,9.13,9.13A9.13,9.13,0,0,0,1707.25,967.63Zm0,36.52a9.13,9.13,0,1,0,9.13,9.13A9.13,9.13,0,0,0,1707.25,1004.16Zm0,36.52a9.13,9.13,0,1,0,9.13,9.13A9.13,9.13,0,0,0,1707.25,1040.68ZM1743.77,18a9.13,9.13,0,1,0,9.13,9.13A9.13,9.13,0,0,0,1743.77,18Zm0,36.52a9.13,9.13,0,1,0,9.13,9.13A9.13,9.13,0,0,0,1743.77,54.52Zm0,36.52a9.13,9.13,0,1,0,9.13,9.13A9.13,9.13,0,0,0,1743.77,91Zm0,36.52a9.13,9.13,0,1,0,9.13,9.13A9.13,9.13,0,0,0,1743.77,127.57Zm0,36.52a9.13,9.13,0,1,0,9.13,9.13A9.13,9.13,0,0,0,1743.77,164.1Zm0,36.52a9.13,9.13,0,1,0,9.13,9.13A9.13,9.13,0,0,0,1743.77,200.62Zm0,36.52a9.13,9.13,0,1,0,9.13,9.13A9.13,9.13,0,0,0,1743.77,237.15Zm0,36.52a9.13,9.13,0,1,0,9.13,9.13A9.13,9.13,0,0,0,1743.77,273.67Zm0,36.52a9.13,9.13,0,1,0,9.13,9.13A9.13,9.13,0,0,0,1743.77,310.19Zm0,36.52a9.13,9.13,0,1,0,9.13,9.13A9.13,9.13,0,0,0,1743.77,346.72Zm0,36.52a9.13,9.13,0,1,0,9.13,9.13A9.13,9.13,0,0,0,1743.77,383.24Zm0,36.52a9.13,9.13,0,1,0,9.13,9.13A9.13,9.13,0,0,0,1743.77,419.77Zm0,36.52a9.13,9.13,0,1,0,9.13,9.13A9.13,9.13,0,0,0,1743.77,456.29Zm0,36.52a9.13,9.13,0,1,0,9.13,9.13A9.13,9.13,0,0,0,1743.77,492.82Zm0,36.52a9.13,9.13,0,1,0,9.13,9.13A9.13,9.13,0,0,0,1743.77,529.34Zm0,36.52a9.13,9.13,0,1,0,9.13,9.13A9.13,9.13,0,0,0,1743.77,565.86Zm0,36.52a9.13,9.13,0,1,0,9.13,9.13A9.13,9.13,0,0,0,1743.77,602.39Zm0,36.52a9.13,9.13,0,1,0,9.13,9.13A9.13,9.13,0,0,0,1743.77,638.91Zm0,36.52a9.13,9.13,0,1,0,9.13,9.13A9.13,9.13,0,0,0,1743.77,675.44Zm0,36.52a9.13,9.13,0,1,0,9.13,9.13A9.13,9.13,0,0,0,1743.77,712Zm0,36.52a9.13,9.13,0,1,0,9.13,9.13A9.13,9.13,0,0,0,1743.77,748.49Zm0,36.52a9.13,9.13,0,1,0,9.13,9.13A9.13,9.13,0,0,0,1743.77,785Zm0,36.52a9.13,9.13,0,1,0,9.13,9.13A9.13,9.13,0,0,0,1743.77,821.53Zm0,36.52a9.13,9.13,0,1,0,9.13,9.13A9.13,9.13,0,0,0,1743.77,858.06Zm0,36.52a9.13,9.13,0,1,0,9.13,9.13A9.13,9.13,0,0,0,1743.77,894.58Zm0,36.52a9.13,9.13,0,1,0,9.13,9.13A9.13,9.13,0,0,0,1743.77,931.11Zm0,36.52a9.13,9.13,0,1,0,9.13,9.13A9.13,9.13,0,0,0,1743.77,967.63Zm0,36.52a9.13,9.13,0,1,0,9.13,9.13A9.13,9.13,0,0,0,1743.77,1004.16Zm0,36.52a9.13,9.13,0,1,0,9.13,9.13A9.13,9.13,0,0,0,1743.77,1040.68ZM1780.3,18a9.13,9.13,0,1,0,9.13,9.13A9.13,9.13,0,0,0,1780.3,18Zm0,36.52a9.13,9.13,0,1,0,9.13,9.13A9.13,9.13,0,0,0,1780.3,54.52Zm0,36.52a9.13,9.13,0,1,0,9.13,9.13A9.13,9.13,0,0,0,1780.3,91Zm0,36.52a9.13,9.13,0,1,0,9.13,9.13A9.13,9.13,0,0,0,1780.3,127.57Zm0,36.52a9.13,9.13,0,1,0,9.13,9.13A9.13,9.13,0,0,0,1780.3,164.1Zm0,36.52a9.13,9.13,0,1,0,9.13,9.13A9.13,9.13,0,0,0,1780.3,200.62Zm0,36.52a9.13,9.13,0,1,0,9.13,9.13A9.13,9.13,0,0,0,1780.3,237.15Zm0,36.52a9.13,9.13,0,1,0,9.13,9.13A9.13,9.13,0,0,0,1780.3,273.67Zm0,36.52a9.13,9.13,0,1,0,9.13,9.13A9.13,9.13,0,0,0,1780.3,310.19Zm0,36.52a9.13,9.13,0,1,0,9.13,9.13A9.13,9.13,0,0,0,1780.3,346.72Zm0,36.52a9.13,9.13,0,1,0,9.13,9.13A9.13,9.13,0,0,0,1780.3,383.24Zm0,36.52a9.13,9.13,0,1,0,9.13,9.13A9.13,9.13,0,0,0,1780.3,419.77Zm0,36.52a9.13,9.13,0,1,0,9.13,9.13A9.13,9.13,0,0,0,1780.3,456.29Zm0,36.52a9.13,9.13,0,1,0,9.13,9.13A9.13,9.13,0,0,0,1780.3,492.82Zm0,36.52a9.13,9.13,0,1,0,9.13,9.13A9.13,9.13,0,0,0,1780.3,529.34Zm0,36.52a9.13,9.13,0,1,0,9.13,9.13A9.13,9.13,0,0,0,1780.3,565.86Zm0,36.52a9.13,9.13,0,1,0,9.13,9.13A9.13,9.13,0,0,0,1780.3,602.39Zm0,36.52a9.13,9.13,0,1,0,9.13,9.13A9.13,9.13,0,0,0,1780.3,638.91Zm0,36.52a9.13,9.13,0,1,0,9.13,9.13A9.13,9.13,0,0,0,1780.3,675.44Zm0,36.52a9.13,9.13,0,1,0,9.13,9.13A9.13,9.13,0,0,0,1780.3,712Zm0,36.52a9.13,9.13,0,1,0,9.13,9.13A9.13,9.13,0,0,0,1780.3,748.49Zm0,36.52a9.13,9.13,0,1,0,9.13,9.13A9.13,9.13,0,0,0,1780.3,785Zm0,36.52a9.13,9.13,0,1,0,9.13,9.13A9.13,9.13,0,0,0,1780.3,821.53Zm0,36.52a9.13,9.13,0,1,0,9.13,9.13A9.13,9.13,0,0,0,1780.3,858.06Zm0,36.52a9.13,9.13,0,1,0,9.13,9.13A9.13,9.13,0,0,0,1780.3,894.58Zm0,36.52a9.13,9.13,0,1,0,9.13,9.13A9.13,9.13,0,0,0,1780.3,931.11Zm0,36.52a9.13,9.13,0,1,0,9.13,9.13A9.13,9.13,0,0,0,1780.3,967.63Zm0,36.52a9.13,9.13,0,1,0,9.13,9.13A9.13,9.13,0,0,0,1780.3,1004.16Zm0,36.52a9.13,9.13,0,1,0,9.13,9.13A9.13,9.13,0,0,0,1780.3,1040.68ZM1816.82,18a9.13,9.13,0,1,0,9.13,9.13A9.13,9.13,0,0,0,1816.82,18Zm0,36.52a9.13,9.13,0,1,0,9.13,9.13A9.13,9.13,0,0,0,1816.82,54.52Zm0,36.52a9.13,9.13,0,1,0,9.13,9.13A9.13,9.13,0,0,0,1816.82,91Zm0,36.52a9.13,9.13,0,1,0,9.13,9.13A9.13,9.13,0,0,0,1816.82,127.57Zm0,36.52a9.13,9.13,0,1,0,9.13,9.13A9.13,9.13,0,0,0,1816.82,164.1Zm0,36.52a9.13,9.13,0,1,0,9.13,9.13A9.13,9.13,0,0,0,1816.82,200.62Zm0,36.52a9.13,9.13,0,1,0,9.13,9.13A9.13,9.13,0,0,0,1816.82,237.15Zm0,36.52a9.13,9.13,0,1,0,9.13,9.13A9.13,9.13,0,0,0,1816.82,273.67Zm0,36.52a9.13,9.13,0,1,0,9.13,9.13A9.13,9.13,0,0,0,1816.82,310.19Zm0,36.52a9.13,9.13,0,1,0,9.13,9.13A9.13,9.13,0,0,0,1816.82,346.72Zm0,36.52a9.13,9.13,0,1,0,9.13,9.13A9.13,9.13,0,0,0,1816.82,383.24Zm0,36.52a9.13,9.13,0,1,0,9.13,9.13A9.13,9.13,0,0,0,1816.82,419.77Zm0,36.52a9.13,9.13,0,1,0,9.13,9.13A9.13,9.13,0,0,0,1816.82,456.29Zm0,36.52a9.13,9.13,0,1,0,9.13,9.13A9.13,9.13,0,0,0,1816.82,492.82Zm0,36.52a9.13,9.13,0,1,0,9.13,9.13A9.13,9.13,0,0,0,1816.82,529.34Zm0,36.52A9.13,9.13,0,1,0,1826,575,9.13,9.13,0,0,0,1816.82,565.86Zm0,36.52a9.13,9.13,0,1,0,9.13,9.13A9.13,9.13,0,0,0,1816.82,602.39Zm0,36.52A9.13,9.13,0,1,0,1826,648,9.13,9.13,0,0,0,1816.82,638.91Zm0,36.52a9.13,9.13,0,1,0,9.13,9.13A9.13,9.13,0,0,0,1816.82,675.44Zm0,36.52a9.13,9.13,0,1,0,9.13,9.13A9.13,9.13,0,0,0,1816.82,712Zm0,36.52a9.13,9.13,0,1,0,9.13,9.13A9.13,9.13,0,0,0,1816.82,748.49Zm0,36.52a9.13,9.13,0,1,0,9.13,9.13A9.13,9.13,0,0,0,1816.82,785Zm0,36.52a9.13,9.13,0,1,0,9.13,9.13A9.13,9.13,0,0,0,1816.82,821.53Zm0,36.52a9.13,9.13,0,1,0,9.13,9.13A9.13,9.13,0,0,0,1816.82,858.06Zm0,36.52a9.13,9.13,0,1,0,9.13,9.13A9.13,9.13,0,0,0,1816.82,894.58Zm0,36.52a9.13,9.13,0,1,0,9.13,9.13A9.13,9.13,0,0,0,1816.82,931.11Zm0,36.52a9.13,9.13,0,1,0,9.13,9.13A9.13,9.13,0,0,0,1816.82,967.63Zm0,36.52a9.13,9.13,0,1,0,9.13,9.13A9.13,9.13,0,0,0,1816.82,1004.16Zm0,36.52a9.13,9.13,0,1,0,9.13,9.13A9.13,9.13,0,0,0,1816.82,1040.68ZM1853.34,18a9.13,9.13,0,1,0,9.13,9.13A9.13,9.13,0,0,0,1853.34,18Zm0,36.52a9.13,9.13,0,1,0,9.13,9.13A9.13,9.13,0,0,0,1853.34,54.52Zm0,36.52a9.13,9.13,0,1,0,9.13,9.13A9.13,9.13,0,0,0,1853.34,91Zm0,36.52a9.13,9.13,0,1,0,9.13,9.13A9.13,9.13,0,0,0,1853.34,127.57Zm0,36.52a9.13,9.13,0,1,0,9.13,9.13A9.13,9.13,0,0,0,1853.34,164.1Zm0,36.52a9.13,9.13,0,1,0,9.13,9.13A9.13,9.13,0,0,0,1853.34,200.62Zm0,36.52a9.13,9.13,0,1,0,9.13,9.13A9.13,9.13,0,0,0,1853.34,237.15Zm0,36.52a9.13,9.13,0,1,0,9.13,9.13A9.13,9.13,0,0,0,1853.34,273.67Zm0,36.52a9.13,9.13,0,1,0,9.13,9.13A9.13,9.13,0,0,0,1853.34,310.19Zm0,36.52a9.13,9.13,0,1,0,9.13,9.13A9.13,9.13,0,0,0,1853.34,346.72Zm0,36.52a9.13,9.13,0,1,0,9.13,9.13A9.13,9.13,0,0,0,1853.34,383.24Zm0,36.52a9.13,9.13,0,1,0,9.13,9.13A9.13,9.13,0,0,0,1853.34,419.77Zm0,36.52a9.13,9.13,0,1,0,9.13,9.13A9.13,9.13,0,0,0,1853.34,456.29Zm0,36.52a9.13,9.13,0,1,0,9.13,9.13A9.13,9.13,0,0,0,1853.34,492.82Zm0,36.52a9.13,9.13,0,1,0,9.13,9.13A9.13,9.13,0,0,0,1853.34,529.34Zm0,36.52a9.13,9.13,0,1,0,9.13,9.13A9.13,9.13,0,0,0,1853.34,565.86Zm0,36.52a9.13,9.13,0,1,0,9.13,9.13A9.13,9.13,0,0,0,1853.34,602.39Zm0,36.52a9.13,9.13,0,1,0,9.13,9.13A9.13,9.13,0,0,0,1853.34,638.91Zm0,36.52a9.13,9.13,0,1,0,9.13,9.13A9.13,9.13,0,0,0,1853.34,675.44Zm0,36.52a9.13,9.13,0,1,0,9.13,9.13A9.13,9.13,0,0,0,1853.34,712Zm0,36.52a9.13,9.13,0,1,0,9.13,9.13A9.13,9.13,0,0,0,1853.34,748.49Zm0,36.52a9.13,9.13,0,1,0,9.13,9.13A9.13,9.13,0,0,0,1853.34,785Zm0,36.52a9.13,9.13,0,1,0,9.13,9.13A9.13,9.13,0,0,0,1853.34,821.53Zm0,36.52a9.13,9.13,0,1,0,9.13,9.13A9.13,9.13,0,0,0,1853.34,858.06Zm0,36.52a9.13,9.13,0,1,0,9.13,9.13A9.13,9.13,0,0,0,1853.34,894.58Zm0,36.52a9.13,9.13,0,1,0,9.13,9.13A9.13,9.13,0,0,0,1853.34,931.11Zm0,36.52a9.13,9.13,0,1,0,9.13,9.13A9.13,9.13,0,0,0,1853.34,967.63Zm0,36.52a9.13,9.13,0,1,0,9.13,9.13A9.13,9.13,0,0,0,1853.34,1004.16Zm0,36.52a9.13,9.13,0,1,0,9.13,9.13A9.13,9.13,0,0,0,1853.34,1040.68ZM1889.87,18a9.13,9.13,0,1,0,9.13,9.13A9.13,9.13,0,0,0,1889.87,18Zm0,36.52a9.13,9.13,0,1,0,9.13,9.13A9.13,9.13,0,0,0,1889.87,54.52Zm0,36.52a9.13,9.13,0,1,0,9.13,9.13A9.13,9.13,0,0,0,1889.87,91Zm0,36.52a9.13,9.13,0,1,0,9.13,9.13A9.13,9.13,0,0,0,1889.87,127.57Zm0,36.52a9.13,9.13,0,1,0,9.13,9.13A9.13,9.13,0,0,0,1889.87,164.1Zm0,36.52a9.13,9.13,0,1,0,9.13,9.13A9.13,9.13,0,0,0,1889.87,200.62Zm0,36.52a9.13,9.13,0,1,0,9.13,9.13A9.13,9.13,0,0,0,1889.87,237.15Zm0,36.52a9.13,9.13,0,1,0,9.13,9.13A9.13,9.13,0,0,0,1889.87,273.67Zm0,36.52a9.13,9.13,0,1,0,9.13,9.13A9.13,9.13,0,0,0,1889.87,310.19Zm0,36.52a9.13,9.13,0,1,0,9.13,9.13A9.13,9.13,0,0,0,1889.87,346.72Zm0,36.52a9.13,9.13,0,1,0,9.13,9.13A9.13,9.13,0,0,0,1889.87,383.24Zm0,36.52a9.13,9.13,0,1,0,9.13,9.13A9.13,9.13,0,0,0,1889.87,419.77Zm0,36.52a9.13,9.13,0,1,0,9.13,9.13A9.13,9.13,0,0,0,1889.87,456.29Zm0,36.52a9.13,9.13,0,1,0,9.13,9.13A9.13,9.13,0,0,0,1889.87,492.82Zm0,36.52a9.13,9.13,0,1,0,9.13,9.13A9.13,9.13,0,0,0,1889.87,529.34Zm0,36.52A9.13,9.13,0,1,0,1899,575,9.13,9.13,0,0,0,1889.87,565.86Zm0,36.52a9.13,9.13,0,1,0,9.13,9.13A9.13,9.13,0,0,0,1889.87,602.39Zm0,36.52A9.13,9.13,0,1,0,1899,648,9.13,9.13,0,0,0,1889.87,638.91Zm0,36.52a9.13,9.13,0,1,0,9.13,9.13A9.13,9.13,0,0,0,1889.87,675.44Zm0,36.52a9.13,9.13,0,1,0,9.13,9.13A9.13,9.13,0,0,0,1889.87,712Zm0,36.52a9.13,9.13,0,1,0,9.13,9.13A9.13,9.13,0,0,0,1889.87,748.49Zm0,36.52a9.13,9.13,0,1,0,9.13,9.13A9.13,9.13,0,0,0,1889.87,785Zm0,36.52a9.13,9.13,0,1,0,9.13,9.13A9.13,9.13,0,0,0,1889.87,821.53Zm0,36.52a9.13,9.13,0,1,0,9.13,9.13A9.13,9.13,0,0,0,1889.87,858.06Zm0,36.52a9.13,9.13,0,1,0,9.13,9.13A9.13,9.13,0,0,0,1889.87,894.58Zm0,36.52a9.13,9.13,0,1,0,9.13,9.13A9.13,9.13,0,0,0,1889.87,931.11Zm0,36.52a9.13,9.13,0,1,0,9.13,9.13A9.13,9.13,0,0,0,1889.87,967.63Zm0,36.52a9.13,9.13,0,1,0,9.13,9.13A9.13,9.13,0,0,0,1889.87,1004.16Zm0,36.52a9.13,9.13,0,1,0,9.13,9.13A9.13,9.13,0,0,0,1889.87,1040.68Z"/>
    </mask>
  </defs>
  <title>circleGrid</title>
  <g class="cls-2">
    <rect class="cls-3" width="1920" height="1080"/>
  </g>
</svg>
