<svg id="Layer_1" data-name="Layer 1" xmlns="http://www.w3.org/2000/svg" viewBox="0 0 380 380">
  <defs>
    <style>
      .cls-1 {
        fill: #fff;
      }
    </style>
  </defs>
  <title>circleGrid</title>
  <g>
    <path class="cls-1" d="M250,120a10,10,0,0,1,10,10,10,10,0,0,1,10-10,10,10,0,0,1-10-10A10,10,0,0,1,250,120Z"/>
    <path class="cls-1" d="M240,30a10,10,0,0,1,10-10,10,10,0,0,1-10-10,10,10,0,0,1-10,10A10,10,0,0,1,240,30Z"/>
    <path class="cls-1" d="M260,110a10,10,0,0,1,10-10,10,10,0,0,1-10-10,10,10,0,0,1-10,10A10,10,0,0,1,260,110Z"/>
    <path class="cls-1" d="M260,30a10,10,0,0,1,10-10,10,10,0,0,1-10-10,10,10,0,0,1-10,10A10,10,0,0,1,260,30Z"/>
    <path class="cls-1" d="M250,140a10,10,0,0,1,10,10,10,10,0,0,1,10-10,10,10,0,0,1-10-10A10,10,0,0,1,250,140Z"/>
    <path class="cls-1" d="M200,30a10,10,0,0,1,10-10,10,10,0,0,1-10-10,10,10,0,0,1-10,10A10,10,0,0,1,200,30Z"/>
    <path class="cls-1" d="M220,30a10,10,0,0,1,10-10,10,10,0,0,1-10-10,10,10,0,0,1-10,10A10,10,0,0,1,220,30Z"/>
    <path class="cls-1" d="M200,110a10,10,0,0,1,10-10,10,10,0,0,1-10-10,10,10,0,0,1-10,10A10,10,0,0,1,200,110Z"/>
    <path class="cls-1" d="M240,110a10,10,0,0,1,10-10,10,10,0,0,1-10-10,10,10,0,0,1-10,10A10,10,0,0,1,240,110Z"/>
    <path class="cls-1" d="M300,30a10,10,0,0,1,10-10,10,10,0,0,1-10-10,10,10,0,0,1-10,10A10,10,0,0,1,300,30Z"/>
    <path class="cls-1" d="M250,200a10,10,0,0,1,10,10,10,10,0,0,1,10-10,10,10,0,0,1-10-10A10,10,0,0,1,250,200Z"/>
    <path class="cls-1" d="M220,110a10,10,0,0,1,10-10,10,10,0,0,1-10-10,10,10,0,0,1-10,10A10,10,0,0,1,220,110Z"/>
    <path class="cls-1" d="M160,30a10,10,0,0,1,10-10,10,10,0,0,1-10-10,10,10,0,0,1-10,10A10,10,0,0,1,160,30Z"/>
    <path class="cls-1" d="M90,180a10,10,0,0,1-10-10,10,10,0,0,1-10,10,10,10,0,0,1,10,10A10,10,0,0,1,90,180Z"/>
    <path class="cls-1" d="M120,30a10,10,0,0,1,10-10,10,10,0,0,1-10-10,10,10,0,0,1-10,10A10,10,0,0,1,120,30Z"/>
    <path class="cls-1" d="M290,140a10,10,0,0,1,10,10,10,10,0,0,1,10-10,10,10,0,0,1-10-10A10,10,0,0,1,290,140Z"/>
    <path class="cls-1" d="M250,160a10,10,0,0,1,10,10,10,10,0,0,1,10-10,10,10,0,0,1-10-10A10,10,0,0,1,250,160Z"/>
    <path class="cls-1" d="M100,30a10,10,0,0,1,10-10,10,10,0,0,1-10-10A10,10,0,0,1,90,20,10,10,0,0,1,100,30Z"/>
    <path class="cls-1" d="M290,160a10,10,0,0,1,10,10,10,10,0,0,1,10-10,10,10,0,0,1-10-10A10,10,0,0,1,290,160Z"/>
    <path class="cls-1" d="M180,30a10,10,0,0,1,10-10,10,10,0,0,1-10-10,10,10,0,0,1-10,10A10,10,0,0,1,180,30Z"/>
    <path class="cls-1" d="M330,260a10,10,0,0,1,10,10,10,10,0,0,1,10-10,10,10,0,0,1-10-10A10,10,0,0,1,330,260Z"/>
    <path class="cls-1" d="M140,30a10,10,0,0,1,10-10,10,10,0,0,1-10-10,10,10,0,0,1-10,10A10,10,0,0,1,140,30Z"/>
    <path class="cls-1" d="M80,30A10,10,0,0,1,90,20,10,10,0,0,1,80,10,10,10,0,0,1,70,20,10,10,0,0,1,80,30Z"/>
    <path class="cls-1" d="M320,30a10,10,0,0,1,10-10,10,10,0,0,1-10-10,10,10,0,0,1-10,10A10,10,0,0,1,320,30Z"/>
    <path class="cls-1" d="M250,180a10,10,0,0,1,10,10,10,10,0,0,1,10-10,10,10,0,0,1-10-10A10,10,0,0,1,250,180Z"/>
    <path class="cls-1" d="M330,180a10,10,0,0,1,10,10,10,10,0,0,1,10-10,10,10,0,0,1-10-10A10,10,0,0,1,330,180Z"/>
    <path class="cls-1" d="M90,160a10,10,0,0,1-10-10,10,10,0,0,1-10,10,10,10,0,0,1,10,10A10,10,0,0,1,90,160Z"/>
    <path class="cls-1" d="M330,140a10,10,0,0,1,10,10,10,10,0,0,1,10-10,10,10,0,0,1-10-10A10,10,0,0,1,330,140Z"/>
    <path class="cls-1" d="M180,110a10,10,0,0,1,10-10,10,10,0,0,1-10-10,10,10,0,0,1-10,10A10,10,0,0,1,180,110Z"/>
    <path class="cls-1" d="M330,200a10,10,0,0,1,10,10,10,10,0,0,1,10-10,10,10,0,0,1-10-10A10,10,0,0,1,330,200Z"/>
    <path class="cls-1" d="M290,100a10,10,0,0,1,10,10,10,10,0,0,1,10-10,10,10,0,0,1-10-10A10,10,0,0,1,290,100Z"/>
    <path class="cls-1" d="M110,120a10,10,0,0,1-10-10,10,10,0,0,1-10,10,10,10,0,0,1,10,10A10,10,0,0,1,110,120Z"/>
    <path class="cls-1" d="M110,140a10,10,0,0,1-10-10,10,10,0,0,1-10,10,10,10,0,0,1,10,10A10,10,0,0,1,110,140Z"/>
    <path class="cls-1" d="M330,240a10,10,0,0,1,10,10,10,10,0,0,1,10-10,10,10,0,0,1-10-10A10,10,0,0,1,330,240Z"/>
    <path class="cls-1" d="M110,160a10,10,0,0,1-10-10,10,10,0,0,1-10,10,10,10,0,0,1,10,10A10,10,0,0,1,110,160Z"/>
    <path class="cls-1" d="M330,220a10,10,0,0,1,10,10,10,10,0,0,1,10-10,10,10,0,0,1-10-10A10,10,0,0,1,330,220Z"/>
    <path class="cls-1" d="M290,80a10,10,0,0,1,10,10,10,10,0,0,1,10-10,10,10,0,0,1-10-10A10,10,0,0,1,290,80Z"/>
    <path class="cls-1" d="M330,160a10,10,0,0,1,10,10,10,10,0,0,1,10-10,10,10,0,0,1-10-10A10,10,0,0,1,330,160Z"/>
    <path class="cls-1" d="M140,110a10,10,0,0,1,10-10,10,10,0,0,1-10-10,10,10,0,0,1-10,10A10,10,0,0,1,140,110Z"/>
    <path class="cls-1" d="M330,60a10,10,0,0,1,10,10,10,10,0,0,1,10-10,10,10,0,0,1-10-10A10,10,0,0,1,330,60Z"/>
    <path class="cls-1" d="M160,110a10,10,0,0,1,10-10,10,10,0,0,1-10-10,10,10,0,0,1-10,10A10,10,0,0,1,160,110Z"/>
    <path class="cls-1" d="M110,100a10,10,0,0,1-10-10,10,10,0,0,1-10,10,10,10,0,0,1,10,10A10,10,0,0,1,110,100Z"/>
    <path class="cls-1" d="M330,40a10,10,0,0,1,10,10,10,10,0,0,1,10-10,10,10,0,0,1-10-10A10,10,0,0,1,330,40Z"/>
    <path class="cls-1" d="M340,30a10,10,0,0,1,10-10,10,10,0,0,1-10-10,10,10,0,0,1-10,10A10,10,0,0,1,340,30Z"/>
    <path class="cls-1" d="M330,80a10,10,0,0,1,10,10,10,10,0,0,1,10-10,10,10,0,0,1-10-10A10,10,0,0,1,330,80Z"/>
    <path class="cls-1" d="M120,110a10,10,0,0,1,10-10,10,10,0,0,1-10-10,10,10,0,0,1-10,10A10,10,0,0,1,120,110Z"/>
    <path class="cls-1" d="M330,120a10,10,0,0,1,10,10,10,10,0,0,1,10-10,10,10,0,0,1-10-10A10,10,0,0,1,330,120Z"/>
    <path class="cls-1" d="M290,120a10,10,0,0,1,10,10,10,10,0,0,1,10-10,10,10,0,0,1-10-10A10,10,0,0,1,290,120Z"/>
    <path class="cls-1" d="M330,100a10,10,0,0,1,10,10,10,10,0,0,1,10-10,10,10,0,0,1-10-10A10,10,0,0,1,330,100Z"/>
    <path class="cls-1" d="M220,90a10,10,0,0,1,10-10,10,10,0,0,1-10-10,10,10,0,0,1-10,10A10,10,0,0,1,220,90Z"/>
    <path class="cls-1" d="M70,100A10,10,0,0,1,60,90a10,10,0,0,1-10,10,10,10,0,0,1,10,10A10,10,0,0,1,70,100Z"/>
    <path class="cls-1" d="M30,300a10,10,0,0,1-10-10,10,10,0,0,1-10,10,10,10,0,0,1,10,10A10,10,0,0,1,30,300Z"/>
    <path class="cls-1" d="M220,310a10,10,0,0,1-10,10,10,10,0,0,1,10,10,10,10,0,0,1,10-10A10,10,0,0,1,220,310Z"/>
    <path class="cls-1" d="M30,320a10,10,0,0,1-10-10,10,10,0,0,1-10,10,10,10,0,0,1,10,10A10,10,0,0,1,30,320Z"/>
    <path class="cls-1" d="M30,340a10,10,0,0,1-10-10,10,10,0,0,1-10,10,10,10,0,0,1,10,10A10,10,0,0,1,30,340Z"/>
    <path class="cls-1" d="M200,310a10,10,0,0,1-10,10,10,10,0,0,1,10,10,10,10,0,0,1,10-10A10,10,0,0,1,200,310Z"/>
    <path class="cls-1" d="M140,90a10,10,0,0,1,10-10,10,10,0,0,1-10-10,10,10,0,0,1-10,10A10,10,0,0,1,140,90Z"/>
    <path class="cls-1" d="M30,240a10,10,0,0,1-10-10,10,10,0,0,1-10,10,10,10,0,0,1,10,10A10,10,0,0,1,30,240Z"/>
    <path class="cls-1" d="M90,200a10,10,0,0,1-10-10,10,10,0,0,1-10,10,10,10,0,0,1,10,10A10,10,0,0,1,90,200Z"/>
    <path class="cls-1" d="M240,310a10,10,0,0,1-10,10,10,10,0,0,1,10,10,10,10,0,0,1,10-10A10,10,0,0,1,240,310Z"/>
    <path class="cls-1" d="M30,260a10,10,0,0,1-10-10,10,10,0,0,1-10,10,10,10,0,0,1,10,10A10,10,0,0,1,30,260Z"/>
    <path class="cls-1" d="M20,350a10,10,0,0,1-10,10,10,10,0,0,1,10,10,10,10,0,0,1,10-10A10,10,0,0,1,20,350Z"/>
    <path class="cls-1" d="M120,350a10,10,0,0,1-10,10,10,10,0,0,1,10,10,10,10,0,0,1,10-10A10,10,0,0,1,120,350Z"/>
    <path class="cls-1" d="M290,220a10,10,0,0,1,10,10,10,10,0,0,1,10-10,10,10,0,0,1-10-10A10,10,0,0,1,290,220Z"/>
    <path class="cls-1" d="M100,350a10,10,0,0,1-10,10,10,10,0,0,1,10,10,10,10,0,0,1,10-10A10,10,0,0,1,100,350Z"/>
    <path class="cls-1" d="M160,90a10,10,0,0,1,10-10,10,10,0,0,1-10-10,10,10,0,0,1-10,10A10,10,0,0,1,160,90Z"/>
    <path class="cls-1" d="M290,240a10,10,0,0,1,10,10,10,10,0,0,1,10-10,10,10,0,0,1-10-10A10,10,0,0,1,290,240Z"/>
    <path class="cls-1" d="M90,220a10,10,0,0,1-10-10,10,10,0,0,1-10,10,10,10,0,0,1,10,10A10,10,0,0,1,90,220Z"/>
    <path class="cls-1" d="M140,350a10,10,0,0,1-10,10,10,10,0,0,1,10,10,10,10,0,0,1,10-10A10,10,0,0,1,140,350Z"/>
    <path class="cls-1" d="M40,350a10,10,0,0,1-10,10,10,10,0,0,1,10,10,10,10,0,0,1,10-10A10,10,0,0,1,40,350Z"/>
    <path class="cls-1" d="M290,180a10,10,0,0,1,10,10,10,10,0,0,1,10-10,10,10,0,0,1-10-10A10,10,0,0,1,290,180Z"/>
    <path class="cls-1" d="M120,90a10,10,0,0,1,10-10,10,10,0,0,1-10-10,10,10,0,0,1-10,10A10,10,0,0,1,120,90Z"/>
    <path class="cls-1" d="M80,350a10,10,0,0,1-10,10,10,10,0,0,1,10,10,10,10,0,0,1,10-10A10,10,0,0,1,80,350Z"/>
    <path class="cls-1" d="M60,350a10,10,0,0,1-10,10,10,10,0,0,1,10,10,10,10,0,0,1,10-10A10,10,0,0,1,60,350Z"/>
    <path class="cls-1" d="M310,140a10,10,0,0,1,10,10,10,10,0,0,1,10-10,10,10,0,0,1-10-10A10,10,0,0,1,310,140Z"/>
    <path class="cls-1" d="M30,280a10,10,0,0,1-10-10,10,10,0,0,1-10,10,10,10,0,0,1,10,10A10,10,0,0,1,30,280Z"/>
    <path class="cls-1" d="M30,40A10,10,0,0,1,20,30,10,10,0,0,1,10,40,10,10,0,0,1,20,50,10,10,0,0,1,30,40Z"/>
    <path class="cls-1" d="M240,90a10,10,0,0,1,10-10,10,10,0,0,1-10-10,10,10,0,0,1-10,10A10,10,0,0,1,240,90Z"/>
    <path class="cls-1" d="M310,300a10,10,0,0,1,10,10,10,10,0,0,1,10-10,10,10,0,0,1-10-10A10,10,0,0,1,310,300Z"/>
    <path class="cls-1" d="M30,60A10,10,0,0,1,20,50,10,10,0,0,1,10,60,10,10,0,0,1,20,70,10,10,0,0,1,30,60Z"/>
    <path class="cls-1" d="M30,80A10,10,0,0,1,20,70,10,10,0,0,1,10,80,10,10,0,0,1,20,90,10,10,0,0,1,30,80Z"/>
    <path class="cls-1" d="M300,70a10,10,0,0,1,10-10,10,10,0,0,1-10-10,10,10,0,0,1-10,10A10,10,0,0,1,300,70Z"/>
    <path class="cls-1" d="M30,220a10,10,0,0,1-10-10,10,10,0,0,1-10,10,10,10,0,0,1,10,10A10,10,0,0,1,30,220Z"/>
    <path class="cls-1" d="M260,90a10,10,0,0,1,10-10,10,10,0,0,1-10-10,10,10,0,0,1-10,10A10,10,0,0,1,260,90Z"/>
    <path class="cls-1" d="M60,30A10,10,0,0,1,70,20,10,10,0,0,1,60,10,10,10,0,0,1,50,20,10,10,0,0,1,60,30Z"/>
    <path class="cls-1" d="M30,20A10,10,0,0,1,20,10,10,10,0,0,1,10,20,10,10,0,0,1,20,30,10,10,0,0,1,30,20Z"/>
    <path class="cls-1" d="M40,30A10,10,0,0,1,50,20,10,10,0,0,1,40,10,10,10,0,0,1,30,20,10,10,0,0,1,40,30Z"/>
    <path class="cls-1" d="M310,280a10,10,0,0,1,10,10,10,10,0,0,1,10-10,10,10,0,0,1-10-10A10,10,0,0,1,310,280Z"/>
    <path class="cls-1" d="M30,100A10,10,0,0,1,20,90a10,10,0,0,1-10,10,10,10,0,0,1,10,10A10,10,0,0,1,30,100Z"/>
    <path class="cls-1" d="M180,90a10,10,0,0,1,10-10,10,10,0,0,1-10-10,10,10,0,0,1-10,10A10,10,0,0,1,180,90Z"/>
    <path class="cls-1" d="M30,180a10,10,0,0,1-10-10,10,10,0,0,1-10,10,10,10,0,0,1,10,10A10,10,0,0,1,30,180Z"/>
    <path class="cls-1" d="M260,310a10,10,0,0,1-10,10,10,10,0,0,1,10,10,10,10,0,0,1,10-10A10,10,0,0,1,260,310Z"/>
    <path class="cls-1" d="M30,200a10,10,0,0,1-10-10,10,10,0,0,1-10,10,10,10,0,0,1,10,10A10,10,0,0,1,30,200Z"/>
    <path class="cls-1" d="M280,310a10,10,0,0,1-10,10,10,10,0,0,1,10,10,10,10,0,0,1,10-10A10,10,0,0,1,280,310Z"/>
    <path class="cls-1" d="M200,90a10,10,0,0,1,10-10,10,10,0,0,1-10-10,10,10,0,0,1-10,10A10,10,0,0,1,200,90Z"/>
    <path class="cls-1" d="M30,160a10,10,0,0,1-10-10,10,10,0,0,1-10,10,10,10,0,0,1,10,10A10,10,0,0,1,30,160Z"/>
    <path class="cls-1" d="M300,310a10,10,0,0,1-10,10,10,10,0,0,1,10,10,10,10,0,0,1,10-10A10,10,0,0,1,300,310Z"/>
    <path class="cls-1" d="M30,120a10,10,0,0,1-10-10,10,10,0,0,1-10,10,10,10,0,0,1,10,10A10,10,0,0,1,30,120Z"/>
    <path class="cls-1" d="M310,320a10,10,0,0,1,10,10,10,10,0,0,1,10-10,10,10,0,0,1-10-10A10,10,0,0,1,310,320Z"/>
    <path class="cls-1" d="M30,140a10,10,0,0,1-10-10,10,10,0,0,1-10,10,10,10,0,0,1,10,10A10,10,0,0,1,30,140Z"/>
    <path class="cls-1" d="M280,30a10,10,0,0,1,10-10,10,10,0,0,1-10-10,10,10,0,0,1-10,10A10,10,0,0,1,280,30Z"/>
    <path class="cls-1" d="M80,50A10,10,0,0,1,90,40,10,10,0,0,1,80,30,10,10,0,0,1,70,40,10,10,0,0,1,80,50Z"/>
    <path class="cls-1" d="M270,180a10,10,0,0,1,10,10,10,10,0,0,1,10-10,10,10,0,0,1-10-10A10,10,0,0,1,270,180Z"/>
    <path class="cls-1" d="M100,70a10,10,0,0,1,10-10,10,10,0,0,1-10-10A10,10,0,0,1,90,60,10,10,0,0,1,100,70Z"/>
    <path class="cls-1" d="M100,50a10,10,0,0,1,10-10,10,10,0,0,1-10-10A10,10,0,0,1,90,40,10,10,0,0,1,100,50Z"/>
    <path class="cls-1" d="M60,50A10,10,0,0,1,70,40,10,10,0,0,1,60,30,10,10,0,0,1,50,40,10,10,0,0,1,60,50Z"/>
    <path class="cls-1" d="M50,40A10,10,0,0,1,40,30,10,10,0,0,1,30,40,10,10,0,0,1,40,50,10,10,0,0,1,50,40Z"/>
    <path class="cls-1" d="M120,70a10,10,0,0,1,10-10,10,10,0,0,1-10-10,10,10,0,0,1-10,10A10,10,0,0,1,120,70Z"/>
    <path class="cls-1" d="M140,50a10,10,0,0,1,10-10,10,10,0,0,1-10-10,10,10,0,0,1-10,10A10,10,0,0,1,140,50Z"/>
    <path class="cls-1" d="M80,70A10,10,0,0,1,90,60,10,10,0,0,1,80,50,10,10,0,0,1,70,60,10,10,0,0,1,80,70Z"/>
    <path class="cls-1" d="M70,80A10,10,0,0,1,60,70,10,10,0,0,1,50,80,10,10,0,0,1,60,90,10,10,0,0,1,70,80Z"/>
    <path class="cls-1" d="M120,50a10,10,0,0,1,10-10,10,10,0,0,1-10-10,10,10,0,0,1-10,10A10,10,0,0,1,120,50Z"/>
    <path class="cls-1" d="M70,60A10,10,0,0,1,60,50,10,10,0,0,1,50,60,10,10,0,0,1,60,70,10,10,0,0,1,70,60Z"/>
    <path class="cls-1" d="M50,80A10,10,0,0,1,40,70,10,10,0,0,1,30,80,10,10,0,0,1,40,90,10,10,0,0,1,50,80Z"/>
    <path class="cls-1" d="M50,180a10,10,0,0,1-10-10,10,10,0,0,1-10,10,10,10,0,0,1,10,10A10,10,0,0,1,50,180Z"/>
    <path class="cls-1" d="M50,60A10,10,0,0,1,40,50,10,10,0,0,1,30,60,10,10,0,0,1,40,70,10,10,0,0,1,50,60Z"/>
    <path class="cls-1" d="M270,140a10,10,0,0,1,10,10,10,10,0,0,1,10-10,10,10,0,0,1-10-10A10,10,0,0,1,270,140Z"/>
    <path class="cls-1" d="M270,120a10,10,0,0,1,10,10,10,10,0,0,1,10-10,10,10,0,0,1-10-10A10,10,0,0,1,270,120Z"/>
    <path class="cls-1" d="M50,160a10,10,0,0,1-10-10,10,10,0,0,1-10,10,10,10,0,0,1,10,10A10,10,0,0,1,50,160Z"/>
    <path class="cls-1" d="M50,120a10,10,0,0,1-10-10,10,10,0,0,1-10,10,10,10,0,0,1,10,10A10,10,0,0,1,50,120Z"/>
    <path class="cls-1" d="M310,200a10,10,0,0,1,10,10,10,10,0,0,1,10-10,10,10,0,0,1-10-10A10,10,0,0,1,310,200Z"/>
    <path class="cls-1" d="M160,50a10,10,0,0,1,10-10,10,10,0,0,1-10-10,10,10,0,0,1-10,10A10,10,0,0,1,160,50Z"/>
    <path class="cls-1" d="M310,160a10,10,0,0,1,10,10,10,10,0,0,1,10-10,10,10,0,0,1-10-10A10,10,0,0,1,310,160Z"/>
    <path class="cls-1" d="M270,160a10,10,0,0,1,10,10,10,10,0,0,1,10-10,10,10,0,0,1-10-10A10,10,0,0,1,270,160Z"/>
    <path class="cls-1" d="M310,180a10,10,0,0,1,10,10,10,10,0,0,1,10-10,10,10,0,0,1-10-10A10,10,0,0,1,310,180Z"/>
    <path class="cls-1" d="M50,100A10,10,0,0,1,40,90a10,10,0,0,1-10,10,10,10,0,0,1,10,10A10,10,0,0,1,50,100Z"/>
    <path class="cls-1" d="M50,140a10,10,0,0,1-10-10,10,10,0,0,1-10,10,10,10,0,0,1,10,10A10,10,0,0,1,50,140Z"/>
    <path class="cls-1" d="M310,60a10,10,0,0,1,10,10,10,10,0,0,1,10-10,10,10,0,0,1-10-10A10,10,0,0,1,310,60Z"/>
    <path class="cls-1" d="M270,260a10,10,0,0,1,10,10,10,10,0,0,1,10-10,10,10,0,0,1-10-10A10,10,0,0,1,270,260Z"/>
    <path class="cls-1" d="M320,50a10,10,0,0,1,10-10,10,10,0,0,1-10-10,10,10,0,0,1-10,10A10,10,0,0,1,320,50Z"/>
    <path class="cls-1" d="M270,280a10,10,0,0,1,10,10,10,10,0,0,1,10-10,10,10,0,0,1-10-10A10,10,0,0,1,270,280Z"/>
    <path class="cls-1" d="M260,270a10,10,0,0,1-10,10,10,10,0,0,1,10,10,10,10,0,0,1,10-10A10,10,0,0,1,260,270Z"/>
    <path class="cls-1" d="M310,80a10,10,0,0,1,10,10,10,10,0,0,1,10-10,10,10,0,0,1-10-10A10,10,0,0,1,310,80Z"/>
    <path class="cls-1" d="M300,50a10,10,0,0,1,10-10,10,10,0,0,1-10-10,10,10,0,0,1-10,10A10,10,0,0,1,300,50Z"/>
    <path class="cls-1" d="M310,120a10,10,0,0,1,10,10,10,10,0,0,1,10-10,10,10,0,0,1-10-10A10,10,0,0,1,310,120Z"/>
    <path class="cls-1" d="M270,240a10,10,0,0,1,10,10,10,10,0,0,1,10-10,10,10,0,0,1-10-10A10,10,0,0,1,270,240Z"/>
    <path class="cls-1" d="M270,200a10,10,0,0,1,10,10,10,10,0,0,1,10-10,10,10,0,0,1-10-10A10,10,0,0,1,270,200Z"/>
    <path class="cls-1" d="M310,100a10,10,0,0,1,10,10,10,10,0,0,1,10-10,10,10,0,0,1-10-10A10,10,0,0,1,310,100Z"/>
    <path class="cls-1" d="M270,220a10,10,0,0,1,10,10,10,10,0,0,1,10-10,10,10,0,0,1-10-10A10,10,0,0,1,270,220Z"/>
    <path class="cls-1" d="M200,270a10,10,0,0,1-10,10,10,10,0,0,1,10,10,10,10,0,0,1,10-10A10,10,0,0,1,200,270Z"/>
    <path class="cls-1" d="M180,270a10,10,0,0,1-10,10,10,10,0,0,1,10,10,10,10,0,0,1,10-10A10,10,0,0,1,180,270Z"/>
    <path class="cls-1" d="M200,50a10,10,0,0,1,10-10,10,10,0,0,1-10-10,10,10,0,0,1-10,10A10,10,0,0,1,200,50Z"/>
    <path class="cls-1" d="M280,50a10,10,0,0,1,10-10,10,10,0,0,1-10-10,10,10,0,0,1-10,10A10,10,0,0,1,280,50Z"/>
    <path class="cls-1" d="M220,50a10,10,0,0,1,10-10,10,10,0,0,1-10-10,10,10,0,0,1-10,10A10,10,0,0,1,220,50Z"/>
    <path class="cls-1" d="M180,50a10,10,0,0,1,10-10,10,10,0,0,1-10-10,10,10,0,0,1-10,10A10,10,0,0,1,180,50Z"/>
    <path class="cls-1" d="M160,270a10,10,0,0,1-10,10,10,10,0,0,1,10,10,10,10,0,0,1,10-10A10,10,0,0,1,160,270Z"/>
    <path class="cls-1" d="M140,270a10,10,0,0,1-10,10,10,10,0,0,1,10,10,10,10,0,0,1,10-10A10,10,0,0,1,140,270Z"/>
    <path class="cls-1" d="M260,50a10,10,0,0,1,10-10,10,10,0,0,1-10-10,10,10,0,0,1-10,10A10,10,0,0,1,260,50Z"/>
    <path class="cls-1" d="M240,270a10,10,0,0,1-10,10,10,10,0,0,1,10,10,10,10,0,0,1,10-10A10,10,0,0,1,240,270Z"/>
    <path class="cls-1" d="M240,50a10,10,0,0,1,10-10,10,10,0,0,1-10-10,10,10,0,0,1-10,10A10,10,0,0,1,240,50Z"/>
    <path class="cls-1" d="M220,270a10,10,0,0,1-10,10,10,10,0,0,1,10,10,10,10,0,0,1,10-10A10,10,0,0,1,220,270Z"/>
    <path class="cls-1" d="M50,300a10,10,0,0,1-10-10,10,10,0,0,1-10,10,10,10,0,0,1,10,10A10,10,0,0,1,50,300Z"/>
    <path class="cls-1" d="M260,70a10,10,0,0,1,10-10,10,10,0,0,1-10-10,10,10,0,0,1-10,10A10,10,0,0,1,260,70Z"/>
    <path class="cls-1" d="M220,330a10,10,0,0,1-10,10,10,10,0,0,1,10,10,10,10,0,0,1,10-10A10,10,0,0,1,220,330Z"/>
    <path class="cls-1" d="M240,330a10,10,0,0,1-10,10,10,10,0,0,1,10,10,10,10,0,0,1,10-10A10,10,0,0,1,240,330Z"/>
    <path class="cls-1" d="M110,240a10,10,0,0,1-10-10,10,10,0,0,1-10,10,10,10,0,0,1,10,10A10,10,0,0,1,110,240Z"/>
    <path class="cls-1" d="M110,260a10,10,0,0,1-10-10,10,10,0,0,1-10,10,10,10,0,0,1,10,10A10,10,0,0,1,110,260Z"/>
    <path class="cls-1" d="M260,330a10,10,0,0,1-10,10,10,10,0,0,1,10,10,10,10,0,0,1,10-10A10,10,0,0,1,260,330Z"/>
    <path class="cls-1" d="M240,70a10,10,0,0,1,10-10,10,10,0,0,1-10-10,10,10,0,0,1-10,10A10,10,0,0,1,240,70Z"/>
    <path class="cls-1" d="M90,120a10,10,0,0,1-10-10,10,10,0,0,1-10,10,10,10,0,0,1,10,10A10,10,0,0,1,90,120Z"/>
    <path class="cls-1" d="M160,330a10,10,0,0,1-10,10,10,10,0,0,1,10,10,10,10,0,0,1,10-10A10,10,0,0,1,160,330Z"/>
    <path class="cls-1" d="M100,270a10,10,0,0,1-10,10,10,10,0,0,1,10,10,10,10,0,0,1,10-10A10,10,0,0,1,100,270Z"/>
    <path class="cls-1" d="M200,330a10,10,0,0,1-10,10,10,10,0,0,1,10,10,10,10,0,0,1,10-10A10,10,0,0,1,200,330Z"/>
    <path class="cls-1" d="M180,330a10,10,0,0,1-10,10,10,10,0,0,1,10,10,10,10,0,0,1,10-10A10,10,0,0,1,180,330Z"/>
    <path class="cls-1" d="M320,330a10,10,0,0,1-10,10,10,10,0,0,1,10,10,10,10,0,0,1,10-10A10,10,0,0,1,320,330Z"/>
    <path class="cls-1" d="M330,320a10,10,0,0,1,10,10,10,10,0,0,1,10-10,10,10,0,0,1-10-10A10,10,0,0,1,330,320Z"/>
    <path class="cls-1" d="M280,70a10,10,0,0,1,10-10,10,10,0,0,1-10-10,10,10,0,0,1-10,10A10,10,0,0,1,280,70Z"/>
    <path class="cls-1" d="M330,300a10,10,0,0,1,10,10,10,10,0,0,1,10-10,10,10,0,0,1-10-10A10,10,0,0,1,330,300Z"/>
    <path class="cls-1" d="M310,220a10,10,0,0,1,10,10,10,10,0,0,1,10-10,10,10,0,0,1-10-10A10,10,0,0,1,310,220Z"/>
    <path class="cls-1" d="M110,180a10,10,0,0,1-10-10,10,10,0,0,1-10,10,10,10,0,0,1,10,10A10,10,0,0,1,110,180Z"/>
    <path class="cls-1" d="M280,330a10,10,0,0,1-10,10,10,10,0,0,1,10,10,10,10,0,0,1,10-10A10,10,0,0,1,280,330Z"/>
    <path class="cls-1" d="M300,330a10,10,0,0,1-10,10,10,10,0,0,1,10,10,10,10,0,0,1,10-10A10,10,0,0,1,300,330Z"/>
    <path class="cls-1" d="M110,220a10,10,0,0,1-10-10,10,10,0,0,1-10,10,10,10,0,0,1,10,10A10,10,0,0,1,110,220Z"/>
    <path class="cls-1" d="M330,340a10,10,0,0,1,10,10,10,10,0,0,1,10-10,10,10,0,0,1-10-10A10,10,0,0,1,330,340Z"/>
    <path class="cls-1" d="M90,140a10,10,0,0,1-10-10,10,10,0,0,1-10,10,10,10,0,0,1,10,10A10,10,0,0,1,90,140Z"/>
    <path class="cls-1" d="M120,270a10,10,0,0,1-10,10,10,10,0,0,1,10,10,10,10,0,0,1,10-10A10,10,0,0,1,120,270Z"/>
    <path class="cls-1" d="M110,200a10,10,0,0,1-10-10,10,10,0,0,1-10,10,10,10,0,0,1,10,10A10,10,0,0,1,110,200Z"/>
    <path class="cls-1" d="M50,280a10,10,0,0,1-10-10,10,10,0,0,1-10,10,10,10,0,0,1,10,10A10,10,0,0,1,50,280Z"/>
    <path class="cls-1" d="M90,80A10,10,0,0,1,80,70,10,10,0,0,1,70,80,10,10,0,0,1,80,90,10,10,0,0,1,90,80Z"/>
    <path class="cls-1" d="M50,260a10,10,0,0,1-10-10,10,10,0,0,1-10,10,10,10,0,0,1,10,10A10,10,0,0,1,50,260Z"/>
    <path class="cls-1" d="M310,260a10,10,0,0,1,10,10,10,10,0,0,1,10-10,10,10,0,0,1-10-10A10,10,0,0,1,310,260Z"/>
    <path class="cls-1" d="M140,70a10,10,0,0,1,10-10,10,10,0,0,1-10-10,10,10,0,0,1-10,10A10,10,0,0,1,140,70Z"/>
    <path class="cls-1" d="M330,280a10,10,0,0,1,10,10,10,10,0,0,1,10-10,10,10,0,0,1-10-10A10,10,0,0,1,330,280Z"/>
    <path class="cls-1" d="M280,90a10,10,0,0,1,10-10,10,10,0,0,1-10-10,10,10,0,0,1-10,10A10,10,0,0,1,280,90Z"/>
    <path class="cls-1" d="M270,100a10,10,0,0,1,10,10,10,10,0,0,1,10-10,10,10,0,0,1-10-10A10,10,0,0,1,270,100Z"/>
    <path class="cls-1" d="M50,200a10,10,0,0,1-10-10,10,10,0,0,1-10,10,10,10,0,0,1,10,10A10,10,0,0,1,50,200Z"/>
    <path class="cls-1" d="M50,240a10,10,0,0,1-10-10,10,10,0,0,1-10,10,10,10,0,0,1,10,10A10,10,0,0,1,50,240Z"/>
    <path class="cls-1" d="M50,220a10,10,0,0,1-10-10,10,10,0,0,1-10,10,10,10,0,0,1,10,10A10,10,0,0,1,50,220Z"/>
    <path class="cls-1" d="M310,240a10,10,0,0,1,10,10,10,10,0,0,1,10-10,10,10,0,0,1-10-10A10,10,0,0,1,310,240Z"/>
    <path class="cls-1" d="M200,70a10,10,0,0,1,10-10,10,10,0,0,1-10-10,10,10,0,0,1-10,10A10,10,0,0,1,200,70Z"/>
    <path class="cls-1" d="M100,330a10,10,0,0,1-10,10,10,10,0,0,1,10,10,10,10,0,0,1,10-10A10,10,0,0,1,100,330Z"/>
    <path class="cls-1" d="M90,100A10,10,0,0,1,80,90a10,10,0,0,1-10,10,10,10,0,0,1,10,10A10,10,0,0,1,90,100Z"/>
    <path class="cls-1" d="M140,330a10,10,0,0,1-10,10,10,10,0,0,1,10,10,10,10,0,0,1,10-10A10,10,0,0,1,140,330Z"/>
    <path class="cls-1" d="M120,330a10,10,0,0,1-10,10,10,10,0,0,1,10,10,10,10,0,0,1,10-10A10,10,0,0,1,120,330Z"/>
    <path class="cls-1" d="M220,70a10,10,0,0,1,10-10,10,10,0,0,1-10-10,10,10,0,0,1-10,10A10,10,0,0,1,220,70Z"/>
    <path class="cls-1" d="M50,320a10,10,0,0,1-10-10,10,10,0,0,1-10,10,10,10,0,0,1,10,10A10,10,0,0,1,50,320Z"/>
    <path class="cls-1" d="M160,70a10,10,0,0,1,10-10,10,10,0,0,1-10-10,10,10,0,0,1-10,10A10,10,0,0,1,160,70Z"/>
    <path class="cls-1" d="M40,330a10,10,0,0,1-10,10,10,10,0,0,1,10,10,10,10,0,0,1,10-10A10,10,0,0,1,40,330Z"/>
    <path class="cls-1" d="M60,330a10,10,0,0,1-10,10,10,10,0,0,1,10,10,10,10,0,0,1,10-10A10,10,0,0,1,60,330Z"/>
    <path class="cls-1" d="M80,330a10,10,0,0,1-10,10,10,10,0,0,1,10,10,10,10,0,0,1,10-10A10,10,0,0,1,80,330Z"/>
    <path class="cls-1" d="M180,70a10,10,0,0,1,10-10,10,10,0,0,1-10-10,10,10,0,0,1-10,10A10,10,0,0,1,180,70Z"/>
    <path class="cls-1" d="M290,200a10,10,0,0,1,10,10,10,10,0,0,1,10-10,10,10,0,0,1-10-10A10,10,0,0,1,290,200Z"/>
    <path class="cls-1" d="M60,370a10,10,0,0,1-10,10H70A10,10,0,0,1,60,370Z"/>
    <path class="cls-1" d="M180,290a10,10,0,0,1-10,10,10,10,0,0,1,10,10,10,10,0,0,1,10-10A10,10,0,0,1,180,290Z"/>
    <path class="cls-1" d="M160,290a10,10,0,0,1-10,10,10,10,0,0,1,10,10,10,10,0,0,1,10-10A10,10,0,0,1,160,290Z"/>
    <path class="cls-1" d="M80,370a10,10,0,0,1-10,10H90A10,10,0,0,1,80,370Z"/>
    <path class="cls-1" d="M120,290a10,10,0,0,1-10,10,10,10,0,0,1,10,10,10,10,0,0,1,10-10A10,10,0,0,1,120,290Z"/>
    <path class="cls-1" d="M120,370a10,10,0,0,1-10,10h20A10,10,0,0,1,120,370Z"/>
    <path class="cls-1" d="M100,370a10,10,0,0,1-10,10h20A10,10,0,0,1,100,370Z"/>
    <path class="cls-1" d="M20,370a10,10,0,0,1-10,10H30A10,10,0,0,1,20,370Z"/>
    <path class="cls-1" d="M0,370v10H10A10,10,0,0,1,0,370Z"/>
    <path class="cls-1" d="M70,280a10,10,0,0,1-10-10,10,10,0,0,1-10,10,10,10,0,0,1,10,10A10,10,0,0,1,70,280Z"/>
    <path class="cls-1" d="M40,370a10,10,0,0,1-10,10H50A10,10,0,0,1,40,370Z"/>
    <path class="cls-1" d="M70,240a10,10,0,0,1-10-10,10,10,0,0,1-10,10,10,10,0,0,1,10,10A10,10,0,0,1,70,240Z"/>
    <path class="cls-1" d="M100,290a10,10,0,0,1-10,10,10,10,0,0,1,10,10,10,10,0,0,1,10-10A10,10,0,0,1,100,290Z"/>
    <path class="cls-1" d="M160,230a10,10,0,0,1-10,10,10,10,0,0,1,10,10,10,10,0,0,1,10-10A10,10,0,0,1,160,230Z"/>
    <path class="cls-1" d="M200,370a10,10,0,0,1-10,10h20A10,10,0,0,1,200,370Z"/>
    <path class="cls-1" d="M180,230a10,10,0,0,1-10,10,10,10,0,0,1,10,10,10,10,0,0,1,10-10A10,10,0,0,1,180,230Z"/>
    <path class="cls-1" d="M220,370a10,10,0,0,1-10,10h20A10,10,0,0,1,220,370Z"/>
    <path class="cls-1" d="M140,230a10,10,0,0,1-10,10,10,10,0,0,1,10,10,10,10,0,0,1,10-10A10,10,0,0,1,140,230Z"/>
    <path class="cls-1" d="M240,370a10,10,0,0,1-10,10h20A10,10,0,0,1,240,370Z"/>
    <path class="cls-1" d="M160,370a10,10,0,0,1-10,10h20A10,10,0,0,1,160,370Z"/>
    <path class="cls-1" d="M220,230a10,10,0,0,1-10,10,10,10,0,0,1,10,10,10,10,0,0,1,10-10A10,10,0,0,1,220,230Z"/>
    <path class="cls-1" d="M180,370a10,10,0,0,1-10,10h20A10,10,0,0,1,180,370Z"/>
    <path class="cls-1" d="M140,370a10,10,0,0,1-10,10h20A10,10,0,0,1,140,370Z"/>
    <path class="cls-1" d="M200,230a10,10,0,0,1-10,10,10,10,0,0,1,10,10,10,10,0,0,1,10-10A10,10,0,0,1,200,230Z"/>
    <path class="cls-1" d="M140,290a10,10,0,0,1-10,10,10,10,0,0,1,10,10,10,10,0,0,1,10-10A10,10,0,0,1,140,290Z"/>
    <path class="cls-1" d="M60,310a10,10,0,0,1-10,10,10,10,0,0,1,10,10,10,10,0,0,1,10-10A10,10,0,0,1,60,310Z"/>
    <path class="cls-1" d="M70,160a10,10,0,0,1-10-10,10,10,0,0,1-10,10,10,10,0,0,1,10,10A10,10,0,0,1,70,160Z"/>
    <path class="cls-1" d="M10,200A10,10,0,0,1,0,190v20A10,10,0,0,1,10,200Z"/>
    <path class="cls-1" d="M120,310a10,10,0,0,1-10,10,10,10,0,0,1,10,10,10,10,0,0,1,10-10A10,10,0,0,1,120,310Z"/>
    <path class="cls-1" d="M10,180A10,10,0,0,1,0,170v20A10,10,0,0,1,10,180Z"/>
    <path class="cls-1" d="M10,220A10,10,0,0,1,0,210v20A10,10,0,0,1,10,220Z"/>
    <path class="cls-1" d="M100,310a10,10,0,0,1-10,10,10,10,0,0,1,10,10,10,10,0,0,1,10-10A10,10,0,0,1,100,310Z"/>
    <path class="cls-1" d="M70,140a10,10,0,0,1-10-10,10,10,0,0,1-10,10,10,10,0,0,1,10,10A10,10,0,0,1,70,140Z"/>
    <path class="cls-1" d="M100,90a10,10,0,0,1,10-10,10,10,0,0,1-10-10A10,10,0,0,1,90,80,10,10,0,0,1,100,90Z"/>
    <path class="cls-1" d="M10,140A10,10,0,0,1,0,130v20A10,10,0,0,1,10,140Z"/>
    <path class="cls-1" d="M10,240A10,10,0,0,1,0,230v20A10,10,0,0,1,10,240Z"/>
    <path class="cls-1" d="M10,160A10,10,0,0,1,0,150v20A10,10,0,0,1,10,160Z"/>
    <path class="cls-1" d="M140,310a10,10,0,0,1-10,10,10,10,0,0,1,10,10,10,10,0,0,1,10-10A10,10,0,0,1,140,310Z"/>
    <path class="cls-1" d="M10,320A10,10,0,0,1,0,310v20A10,10,0,0,1,10,320Z"/>
    <path class="cls-1" d="M10,360A10,10,0,0,1,0,350v20A10,10,0,0,1,10,360Z"/>
    <path class="cls-1" d="M70,300a10,10,0,0,1-10-10,10,10,0,0,1-10,10,10,10,0,0,1,10,10A10,10,0,0,1,70,300Z"/>
    <path class="cls-1" d="M150,220a10,10,0,0,1-10-10,10,10,0,0,1-10,10,10,10,0,0,1,10,10A10,10,0,0,1,150,220Z"/>
    <path class="cls-1" d="M10,340A10,10,0,0,1,0,330v20A10,10,0,0,1,10,340Z"/>
    <path class="cls-1" d="M70,220a10,10,0,0,1-10-10,10,10,0,0,1-10,10,10,10,0,0,1,10,10A10,10,0,0,1,70,220Z"/>
    <path class="cls-1" d="M10,260A10,10,0,0,1,0,250v20A10,10,0,0,1,10,260Z"/>
    <path class="cls-1" d="M70,180a10,10,0,0,1-10-10,10,10,0,0,1-10,10,10,10,0,0,1,10,10A10,10,0,0,1,70,180Z"/>
    <path class="cls-1" d="M80,310a10,10,0,0,1-10,10,10,10,0,0,1,10,10,10,10,0,0,1,10-10A10,10,0,0,1,80,310Z"/>
    <path class="cls-1" d="M10,300A10,10,0,0,1,0,290v20A10,10,0,0,1,10,300Z"/>
    <path class="cls-1" d="M10,280A10,10,0,0,1,0,270v20A10,10,0,0,1,10,280Z"/>
    <path class="cls-1" d="M70,200a10,10,0,0,1-10-10,10,10,0,0,1-10,10,10,10,0,0,1,10,10A10,10,0,0,1,70,200Z"/>
    <path class="cls-1" d="M280,370a10,10,0,0,1-10,10h20A10,10,0,0,1,280,370Z"/>
    <path class="cls-1" d="M370,160a10,10,0,0,1,10,10V150A10,10,0,0,1,370,160Z"/>
    <path class="cls-1" d="M170,200a10,10,0,0,1-10-10,10,10,0,0,1-10,10,10,10,0,0,1,10,10A10,10,0,0,1,170,200Z"/>
    <path class="cls-1" d="M370,180a10,10,0,0,1,10,10V170A10,10,0,0,1,370,180Z"/>
    <path class="cls-1" d="M170,180a10,10,0,0,1-10-10,10,10,0,0,1-10,10,10,10,0,0,1,10,10A10,10,0,0,1,170,180Z"/>
    <path class="cls-1" d="M170,160a10,10,0,0,1-10-10,10,10,0,0,1-10,10,10,10,0,0,1,10,10A10,10,0,0,1,170,160Z"/>
    <path class="cls-1" d="M370,140a10,10,0,0,1,10,10V130A10,10,0,0,1,370,140Z"/>
    <path class="cls-1" d="M160,210a10,10,0,0,1-10,10,10,10,0,0,1,10,10,10,10,0,0,1,10-10A10,10,0,0,1,160,210Z"/>
    <path class="cls-1" d="M200,210a10,10,0,0,1-10,10,10,10,0,0,1,10,10,10,10,0,0,1,10-10A10,10,0,0,1,200,210Z"/>
    <path class="cls-1" d="M370,220a10,10,0,0,1,10,10V210A10,10,0,0,1,370,220Z"/>
    <path class="cls-1" d="M370,120a10,10,0,0,1,10,10V110A10,10,0,0,1,370,120Z"/>
    <path class="cls-1" d="M180,210a10,10,0,0,1-10,10,10,10,0,0,1,10,10,10,10,0,0,1,10-10A10,10,0,0,1,180,210Z"/>
    <path class="cls-1" d="M370,200a10,10,0,0,1,10,10V190A10,10,0,0,1,370,200Z"/>
    <path class="cls-1" d="M370,60a10,10,0,0,1,10,10V50A10,10,0,0,1,370,60Z"/>
    <path class="cls-1" d="M180,190a10,10,0,0,1-10,10,10,10,0,0,1,10,10,10,10,0,0,1,10-10A10,10,0,0,1,180,190Z"/>
    <path class="cls-1" d="M190,200a10,10,0,0,1,10,10,10,10,0,0,1,10-10,10,10,0,0,1-10-10A10,10,0,0,1,190,200Z"/>
    <path class="cls-1" d="M370,20a10,10,0,0,1,10,10V10A10,10,0,0,1,370,20Z"/>
    <path class="cls-1" d="M370,40a10,10,0,0,1,10,10V30A10,10,0,0,1,370,40Z"/>
    <path class="cls-1" d="M370,0a10,10,0,0,1,10,10V0Z"/>
    <path class="cls-1" d="M190,180a10,10,0,0,1-10-10,10,10,0,0,1-10,10,10,10,0,0,1,10,10A10,10,0,0,1,190,180Z"/>
    <path class="cls-1" d="M370,240a10,10,0,0,1,10,10V230A10,10,0,0,1,370,240Z"/>
    <path class="cls-1" d="M200,170a10,10,0,0,1,10-10,10,10,0,0,1-10-10,10,10,0,0,1-10,10A10,10,0,0,1,200,170Z"/>
    <path class="cls-1" d="M370,100a10,10,0,0,1,10,10V90A10,10,0,0,1,370,100Z"/>
    <path class="cls-1" d="M180,170a10,10,0,0,1,10-10,10,10,0,0,1-10-10,10,10,0,0,1-10,10A10,10,0,0,1,180,170Z"/>
    <path class="cls-1" d="M370,80a10,10,0,0,1,10,10V70A10,10,0,0,1,370,80Z"/>
    <path class="cls-1" d="M190,180a10,10,0,0,1,10,10,10,10,0,0,1,10-10,10,10,0,0,1-10-10A10,10,0,0,1,190,180Z"/>
    <path class="cls-1" d="M150,140a10,10,0,0,1-10-10,10,10,0,0,1-10,10,10,10,0,0,1,10,10A10,10,0,0,1,150,140Z"/>
    <path class="cls-1" d="M320,370a10,10,0,0,1-10,10h20A10,10,0,0,1,320,370Z"/>
    <path class="cls-1" d="M340,370a10,10,0,0,1-10,10h20A10,10,0,0,1,340,370Z"/>
    <path class="cls-1" d="M260,370a10,10,0,0,1-10,10h20A10,10,0,0,1,260,370Z"/>
    <path class="cls-1" d="M160,150a10,10,0,0,1,10-10,10,10,0,0,1-10-10,10,10,0,0,1-10,10A10,10,0,0,1,160,150Z"/>
    <path class="cls-1" d="M360,370a10,10,0,0,1-10,10h20A10,10,0,0,1,360,370Z"/>
    <path class="cls-1" d="M370,380h10V370A10,10,0,0,1,370,380Z"/>
    <path class="cls-1" d="M150,160a10,10,0,0,1-10-10,10,10,0,0,1-10,10,10,10,0,0,1,10,10A10,10,0,0,1,150,160Z"/>
    <path class="cls-1" d="M10,120A10,10,0,0,1,0,110v20A10,10,0,0,1,10,120Z"/>
    <path class="cls-1" d="M150,200a10,10,0,0,1-10-10,10,10,0,0,1-10,10,10,10,0,0,1,10,10A10,10,0,0,1,150,200Z"/>
    <path class="cls-1" d="M150,180a10,10,0,0,1-10-10,10,10,0,0,1-10,10,10,10,0,0,1,10,10A10,10,0,0,1,150,180Z"/>
    <path class="cls-1" d="M180,150a10,10,0,0,1,10-10,10,10,0,0,1-10-10,10,10,0,0,1-10,10A10,10,0,0,1,180,150Z"/>
    <path class="cls-1" d="M300,370a10,10,0,0,1-10,10h20A10,10,0,0,1,300,370Z"/>
    <path class="cls-1" d="M370,360a10,10,0,0,1,10,10V350A10,10,0,0,1,370,360Z"/>
    <path class="cls-1" d="M370,300a10,10,0,0,1,10,10V290A10,10,0,0,1,370,300Z"/>
    <path class="cls-1" d="M210,180a10,10,0,0,1,10,10,10,10,0,0,1,10-10,10,10,0,0,1-10-10A10,10,0,0,1,210,180Z"/>
    <path class="cls-1" d="M370,280a10,10,0,0,1,10,10V270A10,10,0,0,1,370,280Z"/>
    <path class="cls-1" d="M210,200a10,10,0,0,1,10,10,10,10,0,0,1,10-10,10,10,0,0,1-10-10A10,10,0,0,1,210,200Z"/>
    <path class="cls-1" d="M370,260a10,10,0,0,1,10,10V250A10,10,0,0,1,370,260Z"/>
    <path class="cls-1" d="M370,340a10,10,0,0,1,10,10V330A10,10,0,0,1,370,340Z"/>
    <path class="cls-1" d="M200,150a10,10,0,0,1,10-10,10,10,0,0,1-10-10,10,10,0,0,1-10,10A10,10,0,0,1,200,150Z"/>
    <path class="cls-1" d="M210,220a10,10,0,0,1,10,10,10,10,0,0,1,10-10,10,10,0,0,1-10-10A10,10,0,0,1,210,220Z"/>
    <path class="cls-1" d="M370,320a10,10,0,0,1,10,10V310A10,10,0,0,1,370,320Z"/>
    <path class="cls-1" d="M210,160a10,10,0,0,1,10,10,10,10,0,0,1,10-10,10,10,0,0,1-10-10A10,10,0,0,1,210,160Z"/>
    <path class="cls-1" d="M220,150a10,10,0,0,1,10-10,10,10,0,0,1-10-10,10,10,0,0,1-10,10A10,10,0,0,1,220,150Z"/>
    <path class="cls-1" d="M350,360a10,10,0,0,1,10,10,10,10,0,0,1,10-10,10,10,0,0,1-10-10A10,10,0,0,1,350,360Z"/>
    <path class="cls-1" d="M350,220a10,10,0,0,1,10,10,10,10,0,0,1,10-10,10,10,0,0,1-10-10A10,10,0,0,1,350,220Z"/>
    <path class="cls-1" d="M350,180a10,10,0,0,1,10,10,10,10,0,0,1,10-10,10,10,0,0,1-10-10A10,10,0,0,1,350,180Z"/>
    <path class="cls-1" d="M350,240a10,10,0,0,1,10,10,10,10,0,0,1,10-10,10,10,0,0,1-10-10A10,10,0,0,1,350,240Z"/>
    <path class="cls-1" d="M130,200a10,10,0,0,1-10-10,10,10,0,0,1-10,10,10,10,0,0,1,10,10A10,10,0,0,1,130,200Z"/>
    <path class="cls-1" d="M350,200a10,10,0,0,1,10,10,10,10,0,0,1,10-10,10,10,0,0,1-10-10A10,10,0,0,1,350,200Z"/>
    <path class="cls-1" d="M130,180a10,10,0,0,1-10-10,10,10,0,0,1-10,10,10,10,0,0,1,10,10A10,10,0,0,1,130,180Z"/>
    <path class="cls-1" d="M90,260a10,10,0,0,1-10-10,10,10,0,0,1-10,10,10,10,0,0,1,10,10A10,10,0,0,1,90,260Z"/>
    <path class="cls-1" d="M350,280a10,10,0,0,1,10,10,10,10,0,0,1,10-10,10,10,0,0,1-10-10A10,10,0,0,1,350,280Z"/>
    <path class="cls-1" d="M290,260a10,10,0,0,1,10,10,10,10,0,0,1,10-10,10,10,0,0,1-10-10A10,10,0,0,1,290,260Z"/>
    <path class="cls-1" d="M290,280a10,10,0,0,1,10,10,10,10,0,0,1,10-10,10,10,0,0,1-10-10A10,10,0,0,1,290,280Z"/>
    <path class="cls-1" d="M130,220a10,10,0,0,1-10-10,10,10,0,0,1-10,10,10,10,0,0,1,10,10A10,10,0,0,1,130,220Z"/>
    <path class="cls-1" d="M350,260a10,10,0,0,1,10,10,10,10,0,0,1,10-10,10,10,0,0,1-10-10A10,10,0,0,1,350,260Z"/>
    <path class="cls-1" d="M350,300a10,10,0,0,1,10,10,10,10,0,0,1,10-10,10,10,0,0,1-10-10A10,10,0,0,1,350,300Z"/>
    <path class="cls-1" d="M130,140a10,10,0,0,1-10-10,10,10,0,0,1-10,10,10,10,0,0,1,10,10A10,10,0,0,1,130,140Z"/>
    <path class="cls-1" d="M350,100a10,10,0,0,1,10,10,10,10,0,0,1,10-10,10,10,0,0,1-10-10A10,10,0,0,1,350,100Z"/>
    <path class="cls-1" d="M350,80a10,10,0,0,1,10,10,10,10,0,0,1,10-10,10,10,0,0,1-10-10A10,10,0,0,1,350,80Z"/>
    <path class="cls-1" d="M260,290a10,10,0,0,1-10,10,10,10,0,0,1,10,10,10,10,0,0,1,10-10A10,10,0,0,1,260,290Z"/>
    <path class="cls-1" d="M350,60a10,10,0,0,1,10,10,10,10,0,0,1,10-10,10,10,0,0,1-10-10A10,10,0,0,1,350,60Z"/>
    <path class="cls-1" d="M130,120a10,10,0,0,1-10-10,10,10,0,0,1-10,10,10,10,0,0,1,10,10A10,10,0,0,1,130,120Z"/>
    <path class="cls-1" d="M350,120a10,10,0,0,1,10,10,10,10,0,0,1,10-10,10,10,0,0,1-10-10A10,10,0,0,1,350,120Z"/>
    <path class="cls-1" d="M130,160a10,10,0,0,1-10-10,10,10,0,0,1-10,10,10,10,0,0,1,10,10A10,10,0,0,1,130,160Z"/>
    <path class="cls-1" d="M290,300a10,10,0,0,1,10,10,10,10,0,0,1,10-10,10,10,0,0,1-10-10A10,10,0,0,1,290,300Z"/>
    <path class="cls-1" d="M350,160a10,10,0,0,1,10,10,10,10,0,0,1,10-10,10,10,0,0,1-10-10A10,10,0,0,1,350,160Z"/>
    <path class="cls-1" d="M280,290a10,10,0,0,1-10,10,10,10,0,0,1,10,10,10,10,0,0,1,10-10A10,10,0,0,1,280,290Z"/>
    <path class="cls-1" d="M350,140a10,10,0,0,1,10,10,10,10,0,0,1,10-10,10,10,0,0,1-10-10A10,10,0,0,1,350,140Z"/>
    <path class="cls-1" d="M180,250a10,10,0,0,1-10,10,10,10,0,0,1,10,10,10,10,0,0,1,10-10A10,10,0,0,1,180,250Z"/>
    <path class="cls-1" d="M220,350a10,10,0,0,1-10,10,10,10,0,0,1,10,10,10,10,0,0,1,10-10A10,10,0,0,1,220,350Z"/>
    <path class="cls-1" d="M220,250a10,10,0,0,1-10,10,10,10,0,0,1,10,10,10,10,0,0,1,10-10A10,10,0,0,1,220,250Z"/>
    <path class="cls-1" d="M280,350a10,10,0,0,1-10,10,10,10,0,0,1,10,10,10,10,0,0,1,10-10A10,10,0,0,1,280,350Z"/>
    <path class="cls-1" d="M240,350a10,10,0,0,1-10,10,10,10,0,0,1,10,10,10,10,0,0,1,10-10A10,10,0,0,1,240,350Z"/>
    <path class="cls-1" d="M260,350a10,10,0,0,1-10,10,10,10,0,0,1,10,10,10,10,0,0,1,10-10A10,10,0,0,1,260,350Z"/>
    <path class="cls-1" d="M200,250a10,10,0,0,1-10,10,10,10,0,0,1,10,10,10,10,0,0,1,10-10A10,10,0,0,1,200,250Z"/>
    <path class="cls-1" d="M240,250a10,10,0,0,1-10,10,10,10,0,0,1,10,10,10,10,0,0,1,10-10A10,10,0,0,1,240,250Z"/>
    <path class="cls-1" d="M180,350a10,10,0,0,1-10,10,10,10,0,0,1,10,10,10,10,0,0,1,10-10A10,10,0,0,1,180,350Z"/>
    <path class="cls-1" d="M250,220a10,10,0,0,1,10,10,10,10,0,0,1,10-10,10,10,0,0,1-10-10A10,10,0,0,1,250,220Z"/>
    <path class="cls-1" d="M250,260a10,10,0,0,1,10,10,10,10,0,0,1,10-10,10,10,0,0,1-10-10A10,10,0,0,1,250,260Z"/>
    <path class="cls-1" d="M250,240a10,10,0,0,1,10,10,10,10,0,0,1,10-10,10,10,0,0,1-10-10A10,10,0,0,1,250,240Z"/>
    <path class="cls-1" d="M200,350a10,10,0,0,1-10,10,10,10,0,0,1,10,10,10,10,0,0,1,10-10A10,10,0,0,1,200,350Z"/>
    <path class="cls-1" d="M160,250a10,10,0,0,1-10,10,10,10,0,0,1,10,10,10,10,0,0,1,10-10A10,10,0,0,1,160,250Z"/>
    <path class="cls-1" d="M140,130a10,10,0,0,1,10-10,10,10,0,0,1-10-10,10,10,0,0,1-10,10A10,10,0,0,1,140,130Z"/>
    <path class="cls-1" d="M350,340a10,10,0,0,1,10,10,10,10,0,0,1,10-10,10,10,0,0,1-10-10A10,10,0,0,1,350,340Z"/>
    <path class="cls-1" d="M160,350a10,10,0,0,1-10,10,10,10,0,0,1,10,10,10,10,0,0,1,10-10A10,10,0,0,1,160,350Z"/>
    <path class="cls-1" d="M350,320a10,10,0,0,1,10,10,10,10,0,0,1,10-10,10,10,0,0,1-10-10A10,10,0,0,1,350,320Z"/>
    <path class="cls-1" d="M120,250a10,10,0,0,1-10,10,10,10,0,0,1,10,10,10,10,0,0,1,10-10A10,10,0,0,1,120,250Z"/>
    <path class="cls-1" d="M90,240a10,10,0,0,1-10-10,10,10,0,0,1-10,10,10,10,0,0,1,10,10A10,10,0,0,1,90,240Z"/>
    <path class="cls-1" d="M340,350a10,10,0,0,1-10,10,10,10,0,0,1,10,10,10,10,0,0,1,10-10A10,10,0,0,1,340,350Z"/>
    <path class="cls-1" d="M300,350a10,10,0,0,1-10,10,10,10,0,0,1,10,10,10,10,0,0,1,10-10A10,10,0,0,1,300,350Z"/>
    <path class="cls-1" d="M130,240a10,10,0,0,1-10-10,10,10,0,0,1-10,10,10,10,0,0,1,10,10A10,10,0,0,1,130,240Z"/>
    <path class="cls-1" d="M140,250a10,10,0,0,1-10,10,10,10,0,0,1,10,10,10,10,0,0,1,10-10A10,10,0,0,1,140,250Z"/>
    <path class="cls-1" d="M320,350a10,10,0,0,1-10,10,10,10,0,0,1,10,10,10,10,0,0,1,10-10A10,10,0,0,1,320,350Z"/>
    <path class="cls-1" d="M230,180a10,10,0,0,1,10,10,10,10,0,0,1,10-10,10,10,0,0,1-10-10A10,10,0,0,1,230,180Z"/>
    <path class="cls-1" d="M80,10A10,10,0,0,1,90,0H70A10,10,0,0,1,80,10Z"/>
    <path class="cls-1" d="M220,290a10,10,0,0,1-10,10,10,10,0,0,1,10,10,10,10,0,0,1,10-10A10,10,0,0,1,220,290Z"/>
    <path class="cls-1" d="M60,10A10,10,0,0,1,70,0H50A10,10,0,0,1,60,10Z"/>
    <path class="cls-1" d="M180,310a10,10,0,0,1-10,10,10,10,0,0,1,10,10,10,10,0,0,1,10-10A10,10,0,0,1,180,310Z"/>
    <path class="cls-1" d="M200,290a10,10,0,0,1-10,10,10,10,0,0,1,10,10,10,10,0,0,1,10-10A10,10,0,0,1,200,290Z"/>
    <path class="cls-1" d="M100,10A10,10,0,0,1,110,0H90A10,10,0,0,1,100,10Z"/>
    <path class="cls-1" d="M90,280a10,10,0,0,1-10-10,10,10,0,0,1-10,10,10,10,0,0,1,10,10A10,10,0,0,1,90,280Z"/>
    <path class="cls-1" d="M140,10A10,10,0,0,1,150,0H130A10,10,0,0,1,140,10Z"/>
    <path class="cls-1" d="M80,290a10,10,0,0,1-10,10,10,10,0,0,1,10,10,10,10,0,0,1,10-10A10,10,0,0,1,80,290Z"/>
    <path class="cls-1" d="M120,10A10,10,0,0,1,130,0H110A10,10,0,0,1,120,10Z"/>
    <path class="cls-1" d="M240,290a10,10,0,0,1-10,10,10,10,0,0,1,10,10,10,10,0,0,1,10-10A10,10,0,0,1,240,290Z"/>
    <path class="cls-1" d="M70,120a10,10,0,0,1-10-10,10,10,0,0,1-10,10,10,10,0,0,1,10,10A10,10,0,0,1,70,120Z"/>
    <path class="cls-1" d="M10,60A10,10,0,0,1,0,50V70A10,10,0,0,1,10,60Z"/>
    <path class="cls-1" d="M40,10A10,10,0,0,1,50,0H30A10,10,0,0,1,40,10Z"/>
    <path class="cls-1" d="M350,40a10,10,0,0,1,10,10,10,10,0,0,1,10-10,10,10,0,0,1-10-10A10,10,0,0,1,350,40Z"/>
    <path class="cls-1" d="M10,100A10,10,0,0,1,0,90v20A10,10,0,0,1,10,100Z"/>
    <path class="cls-1" d="M70,260a10,10,0,0,1-10-10,10,10,0,0,1-10,10,10,10,0,0,1,10,10A10,10,0,0,1,70,260Z"/>
    <path class="cls-1" d="M10,80A10,10,0,0,1,0,70V90A10,10,0,0,1,10,80Z"/>
    <path class="cls-1" d="M160,10A10,10,0,0,1,170,0H150A10,10,0,0,1,160,10Z"/>
    <path class="cls-1" d="M20,10A10,10,0,0,1,30,0H10A10,10,0,0,1,20,10Z"/>
    <path class="cls-1" d="M10,0H0V10A10,10,0,0,1,10,0Z"/>
    <path class="cls-1" d="M10,20A10,10,0,0,1,0,10V30A10,10,0,0,1,10,20Z"/>
    <path class="cls-1" d="M10,40A10,10,0,0,1,0,30V50A10,10,0,0,1,10,40Z"/>
    <path class="cls-1" d="M200,130a10,10,0,0,1,10-10,10,10,0,0,1-10-10,10,10,0,0,1-10,10A10,10,0,0,1,200,130Z"/>
    <path class="cls-1" d="M320,10A10,10,0,0,1,330,0H310A10,10,0,0,1,320,10Z"/>
    <path class="cls-1" d="M220,130a10,10,0,0,1,10-10,10,10,0,0,1-10-10,10,10,0,0,1-10,10A10,10,0,0,1,220,130Z"/>
    <path class="cls-1" d="M300,10A10,10,0,0,1,310,0H290A10,10,0,0,1,300,10Z"/>
    <path class="cls-1" d="M280,10A10,10,0,0,1,290,0H270A10,10,0,0,1,280,10Z"/>
    <path class="cls-1" d="M240,130a10,10,0,0,1,10-10,10,10,0,0,1-10-10,10,10,0,0,1-10,10A10,10,0,0,1,240,130Z"/>
    <path class="cls-1" d="M340,10A10,10,0,0,1,350,0H330A10,10,0,0,1,340,10Z"/>
    <path class="cls-1" d="M160,130a10,10,0,0,1,10-10,10,10,0,0,1-10-10,10,10,0,0,1-10,10A10,10,0,0,1,160,130Z"/>
    <path class="cls-1" d="M350,20a10,10,0,0,1,10,10,10,10,0,0,1,10-10,10,10,0,0,1-10-10A10,10,0,0,1,350,20Z"/>
    <path class="cls-1" d="M360,10A10,10,0,0,1,370,0H350A10,10,0,0,1,360,10Z"/>
    <path class="cls-1" d="M180,130a10,10,0,0,1,10-10,10,10,0,0,1-10-10,10,10,0,0,1-10,10A10,10,0,0,1,180,130Z"/>
    <path class="cls-1" d="M230,200a10,10,0,0,1,10,10,10,10,0,0,1,10-10,10,10,0,0,1-10-10A10,10,0,0,1,230,200Z"/>
    <path class="cls-1" d="M220,10A10,10,0,0,1,230,0H210A10,10,0,0,1,220,10Z"/>
    <path class="cls-1" d="M200,10A10,10,0,0,1,210,0H190A10,10,0,0,1,200,10Z"/>
    <path class="cls-1" d="M230,240a10,10,0,0,1,10,10,10,10,0,0,1,10-10,10,10,0,0,1-10-10A10,10,0,0,1,230,240Z"/>
    <path class="cls-1" d="M180,10A10,10,0,0,1,190,0H170A10,10,0,0,1,180,10Z"/>
    <path class="cls-1" d="M230,140a10,10,0,0,1,10,10,10,10,0,0,1,10-10,10,10,0,0,1-10-10A10,10,0,0,1,230,140Z"/>
    <path class="cls-1" d="M230,220a10,10,0,0,1,10,10,10,10,0,0,1,10-10,10,10,0,0,1-10-10A10,10,0,0,1,230,220Z"/>
    <path class="cls-1" d="M230,160a10,10,0,0,1,10,10,10,10,0,0,1,10-10,10,10,0,0,1-10-10A10,10,0,0,1,230,160Z"/>
    <path class="cls-1" d="M240,10A10,10,0,0,1,250,0H230A10,10,0,0,1,240,10Z"/>
    <path class="cls-1" d="M260,10A10,10,0,0,1,270,0H250A10,10,0,0,1,260,10Z"/>
    <path class="cls-1" d="M160,310a10,10,0,0,1-10,10,10,10,0,0,1,10,10,10,10,0,0,1,10-10A10,10,0,0,1,160,310Z"/>
  </g>
</svg>
