<svg id="dots" xmlns="http://www.w3.org/2000/svg" viewBox="0 0 380 380">
  <defs>
    <style>
      .cls-1 {
        fill: #fff;
      }
    </style>
  </defs>
  <title>dotsGrid</title>
  <path class="cls-1" d="M0,0V380H380V0ZM10,375a5,5,0,1,1,5-5A5,5,0,0,1,10,375Zm0-20a5,5,0,1,1,5-5A5,5,0,0,1,10,355Zm0-20a5,5,0,1,1,5-5A5,5,0,0,1,10,335Zm0-20a5,5,0,1,1,5-5A5,5,0,0,1,10,315Zm0-20a5,5,0,1,1,5-5A5,5,0,0,1,10,295Zm0-20a5,5,0,1,1,5-5A5,5,0,0,1,10,275Zm0-20a5,5,0,1,1,5-5A5,5,0,0,1,10,255Zm0-20a5,5,0,1,1,5-5A5,5,0,0,1,10,235Zm0-20a5,5,0,1,1,5-5A5,5,0,0,1,10,215Zm0-20a5,5,0,1,1,5-5A5,5,0,0,1,10,195Zm0-20a5,5,0,1,1,5-5A5,5,0,0,1,10,175Zm0-20a5,5,0,1,1,5-5A5,5,0,0,1,10,155Zm0-20a5,5,0,1,1,5-5A5,5,0,0,1,10,135Zm0-20a5,5,0,1,1,5-5A5,5,0,0,1,10,115Zm0-20a5,5,0,1,1,5-5A5,5,0,0,1,10,95Zm0-20a5,5,0,1,1,5-5A5,5,0,0,1,10,75Zm0-20a5,5,0,1,1,5-5A5,5,0,0,1,10,55Zm0-20a5,5,0,1,1,5-5A5,5,0,0,1,10,35Zm0-20a5,5,0,1,1,5-5A5,5,0,0,1,10,15ZM30,375a5,5,0,1,1,5-5A5,5,0,0,1,30,375Zm0-20a5,5,0,1,1,5-5A5,5,0,0,1,30,355Zm0-20a5,5,0,1,1,5-5A5,5,0,0,1,30,335Zm0-20a5,5,0,1,1,5-5A5,5,0,0,1,30,315Zm0-20a5,5,0,1,1,5-5A5,5,0,0,1,30,295Zm0-20a5,5,0,1,1,5-5A5,5,0,0,1,30,275Zm0-20a5,5,0,1,1,5-5A5,5,0,0,1,30,255Zm0-20a5,5,0,1,1,5-5A5,5,0,0,1,30,235Zm0-20a5,5,0,1,1,5-5A5,5,0,0,1,30,215Zm0-20a5,5,0,1,1,5-5A5,5,0,0,1,30,195Zm0-20a5,5,0,1,1,5-5A5,5,0,0,1,30,175Zm0-20a5,5,0,1,1,5-5A5,5,0,0,1,30,155Zm0-20a5,5,0,1,1,5-5A5,5,0,0,1,30,135Zm0-20a5,5,0,1,1,5-5A5,5,0,0,1,30,115Zm0-20a5,5,0,1,1,5-5A5,5,0,0,1,30,95Zm0-20a5,5,0,1,1,5-5A5,5,0,0,1,30,75Zm0-20a5,5,0,1,1,5-5A5,5,0,0,1,30,55Zm0-20a5,5,0,1,1,5-5A5,5,0,0,1,30,35Zm0-20a5,5,0,1,1,5-5A5,5,0,0,1,30,15ZM50,375a5,5,0,1,1,5-5A5,5,0,0,1,50,375Zm0-20a5,5,0,1,1,5-5A5,5,0,0,1,50,355Zm0-20a5,5,0,1,1,5-5A5,5,0,0,1,50,335Zm0-20a5,5,0,1,1,5-5A5,5,0,0,1,50,315Zm0-20a5,5,0,1,1,5-5A5,5,0,0,1,50,295Zm0-20a5,5,0,1,1,5-5A5,5,0,0,1,50,275Zm0-20a5,5,0,1,1,5-5A5,5,0,0,1,50,255Zm0-20a5,5,0,1,1,5-5A5,5,0,0,1,50,235Zm0-20a5,5,0,1,1,5-5A5,5,0,0,1,50,215Zm0-20a5,5,0,1,1,5-5A5,5,0,0,1,50,195Zm0-20a5,5,0,1,1,5-5A5,5,0,0,1,50,175Zm0-20a5,5,0,1,1,5-5A5,5,0,0,1,50,155Zm0-20a5,5,0,1,1,5-5A5,5,0,0,1,50,135Zm0-20a5,5,0,1,1,5-5A5,5,0,0,1,50,115Zm0-20a5,5,0,1,1,5-5A5,5,0,0,1,50,95Zm0-20a5,5,0,1,1,5-5A5,5,0,0,1,50,75Zm0-20a5,5,0,1,1,5-5A5,5,0,0,1,50,55Zm0-20a5,5,0,1,1,5-5A5,5,0,0,1,50,35Zm0-20a5,5,0,1,1,5-5A5,5,0,0,1,50,15ZM70,375a5,5,0,1,1,5-5A5,5,0,0,1,70,375Zm0-20a5,5,0,1,1,5-5A5,5,0,0,1,70,355Zm0-20a5,5,0,1,1,5-5A5,5,0,0,1,70,335Zm0-20a5,5,0,1,1,5-5A5,5,0,0,1,70,315Zm0-20a5,5,0,1,1,5-5A5,5,0,0,1,70,295Zm0-20a5,5,0,1,1,5-5A5,5,0,0,1,70,275Zm0-20a5,5,0,1,1,5-5A5,5,0,0,1,70,255Zm0-20a5,5,0,1,1,5-5A5,5,0,0,1,70,235Zm0-20a5,5,0,1,1,5-5A5,5,0,0,1,70,215Zm0-20a5,5,0,1,1,5-5A5,5,0,0,1,70,195Zm0-20a5,5,0,1,1,5-5A5,5,0,0,1,70,175Zm0-20a5,5,0,1,1,5-5A5,5,0,0,1,70,155Zm0-20a5,5,0,1,1,5-5A5,5,0,0,1,70,135Zm0-20a5,5,0,1,1,5-5A5,5,0,0,1,70,115Zm0-20a5,5,0,1,1,5-5A5,5,0,0,1,70,95Zm0-20a5,5,0,1,1,5-5A5,5,0,0,1,70,75Zm0-20a5,5,0,1,1,5-5A5,5,0,0,1,70,55Zm0-20a5,5,0,1,1,5-5A5,5,0,0,1,70,35Zm0-20a5,5,0,1,1,5-5A5,5,0,0,1,70,15ZM90,375a5,5,0,1,1,5-5A5,5,0,0,1,90,375Zm0-20a5,5,0,1,1,5-5A5,5,0,0,1,90,355Zm0-20a5,5,0,1,1,5-5A5,5,0,0,1,90,335Zm0-20a5,5,0,1,1,5-5A5,5,0,0,1,90,315Zm0-20a5,5,0,1,1,5-5A5,5,0,0,1,90,295Zm0-20a5,5,0,1,1,5-5A5,5,0,0,1,90,275Zm0-20a5,5,0,1,1,5-5A5,5,0,0,1,90,255Zm0-20a5,5,0,1,1,5-5A5,5,0,0,1,90,235Zm0-20a5,5,0,1,1,5-5A5,5,0,0,1,90,215Zm0-20a5,5,0,1,1,5-5A5,5,0,0,1,90,195Zm0-20a5,5,0,1,1,5-5A5,5,0,0,1,90,175Zm0-20a5,5,0,1,1,5-5A5,5,0,0,1,90,155Zm0-20a5,5,0,1,1,5-5A5,5,0,0,1,90,135Zm0-20a5,5,0,1,1,5-5A5,5,0,0,1,90,115Zm0-20a5,5,0,1,1,5-5A5,5,0,0,1,90,95Zm0-20a5,5,0,1,1,5-5A5,5,0,0,1,90,75Zm0-20a5,5,0,1,1,5-5A5,5,0,0,1,90,55Zm0-20a5,5,0,1,1,5-5A5,5,0,0,1,90,35Zm0-20a5,5,0,1,1,5-5A5,5,0,0,1,90,15Zm20,360a5,5,0,1,1,5-5A5,5,0,0,1,110,375Zm0-20a5,5,0,1,1,5-5A5,5,0,0,1,110,355Zm0-20a5,5,0,1,1,5-5A5,5,0,0,1,110,335Zm0-20a5,5,0,1,1,5-5A5,5,0,0,1,110,315Zm0-20a5,5,0,1,1,5-5A5,5,0,0,1,110,295Zm0-20a5,5,0,1,1,5-5A5,5,0,0,1,110,275Zm0-20a5,5,0,1,1,5-5A5,5,0,0,1,110,255Zm0-20a5,5,0,1,1,5-5A5,5,0,0,1,110,235Zm0-20a5,5,0,1,1,5-5A5,5,0,0,1,110,215Zm0-20a5,5,0,1,1,5-5A5,5,0,0,1,110,195Zm0-20a5,5,0,1,1,5-5A5,5,0,0,1,110,175Zm0-20a5,5,0,1,1,5-5A5,5,0,0,1,110,155Zm0-20a5,5,0,1,1,5-5A5,5,0,0,1,110,135Zm0-20a5,5,0,1,1,5-5A5,5,0,0,1,110,115Zm0-20a5,5,0,1,1,5-5A5,5,0,0,1,110,95Zm0-20a5,5,0,1,1,5-5A5,5,0,0,1,110,75Zm0-20a5,5,0,1,1,5-5A5,5,0,0,1,110,55Zm0-20a5,5,0,1,1,5-5A5,5,0,0,1,110,35Zm0-20a5,5,0,1,1,5-5A5,5,0,0,1,110,15Zm20,360a5,5,0,1,1,5-5A5,5,0,0,1,130,375Zm0-20a5,5,0,1,1,5-5A5,5,0,0,1,130,355Zm0-20a5,5,0,1,1,5-5A5,5,0,0,1,130,335Zm0-20a5,5,0,1,1,5-5A5,5,0,0,1,130,315Zm0-20a5,5,0,1,1,5-5A5,5,0,0,1,130,295Zm0-20a5,5,0,1,1,5-5A5,5,0,0,1,130,275Zm0-20a5,5,0,1,1,5-5A5,5,0,0,1,130,255Zm0-20a5,5,0,1,1,5-5A5,5,0,0,1,130,235Zm0-20a5,5,0,1,1,5-5A5,5,0,0,1,130,215Zm0-20a5,5,0,1,1,5-5A5,5,0,0,1,130,195Zm0-20a5,5,0,1,1,5-5A5,5,0,0,1,130,175Zm0-20a5,5,0,1,1,5-5A5,5,0,0,1,130,155Zm0-20a5,5,0,1,1,5-5A5,5,0,0,1,130,135Zm0-20a5,5,0,1,1,5-5A5,5,0,0,1,130,115Zm0-20a5,5,0,1,1,5-5A5,5,0,0,1,130,95Zm0-20a5,5,0,1,1,5-5A5,5,0,0,1,130,75Zm0-20a5,5,0,1,1,5-5A5,5,0,0,1,130,55Zm0-20a5,5,0,1,1,5-5A5,5,0,0,1,130,35Zm0-20a5,5,0,1,1,5-5A5,5,0,0,1,130,15Zm20,360a5,5,0,1,1,5-5A5,5,0,0,1,150,375Zm0-20a5,5,0,1,1,5-5A5,5,0,0,1,150,355Zm0-20a5,5,0,1,1,5-5A5,5,0,0,1,150,335Zm0-20a5,5,0,1,1,5-5A5,5,0,0,1,150,315Zm0-20a5,5,0,1,1,5-5A5,5,0,0,1,150,295Zm0-20a5,5,0,1,1,5-5A5,5,0,0,1,150,275Zm0-20a5,5,0,1,1,5-5A5,5,0,0,1,150,255Zm0-20a5,5,0,1,1,5-5A5,5,0,0,1,150,235Zm0-20a5,5,0,1,1,5-5A5,5,0,0,1,150,215Zm0-20a5,5,0,1,1,5-5A5,5,0,0,1,150,195Zm0-20a5,5,0,1,1,5-5A5,5,0,0,1,150,175Zm0-20a5,5,0,1,1,5-5A5,5,0,0,1,150,155Zm0-20a5,5,0,1,1,5-5A5,5,0,0,1,150,135Zm0-20a5,5,0,1,1,5-5A5,5,0,0,1,150,115Zm0-20a5,5,0,1,1,5-5A5,5,0,0,1,150,95Zm0-20a5,5,0,1,1,5-5A5,5,0,0,1,150,75Zm0-20a5,5,0,1,1,5-5A5,5,0,0,1,150,55Zm0-20a5,5,0,1,1,5-5A5,5,0,0,1,150,35Zm0-20a5,5,0,1,1,5-5A5,5,0,0,1,150,15Zm20,360a5,5,0,1,1,5-5A5,5,0,0,1,170,375Zm0-20a5,5,0,1,1,5-5A5,5,0,0,1,170,355Zm0-20a5,5,0,1,1,5-5A5,5,0,0,1,170,335Zm0-20a5,5,0,1,1,5-5A5,5,0,0,1,170,315Zm0-20a5,5,0,1,1,5-5A5,5,0,0,1,170,295Zm0-20a5,5,0,1,1,5-5A5,5,0,0,1,170,275Zm0-20a5,5,0,1,1,5-5A5,5,0,0,1,170,255Zm0-20a5,5,0,1,1,5-5A5,5,0,0,1,170,235Zm0-20a5,5,0,1,1,5-5A5,5,0,0,1,170,215Zm0-20a5,5,0,1,1,5-5A5,5,0,0,1,170,195Zm0-20a5,5,0,1,1,5-5A5,5,0,0,1,170,175Zm0-20a5,5,0,1,1,5-5A5,5,0,0,1,170,155Zm0-20a5,5,0,1,1,5-5A5,5,0,0,1,170,135Zm0-20a5,5,0,1,1,5-5A5,5,0,0,1,170,115Zm0-20a5,5,0,1,1,5-5A5,5,0,0,1,170,95Zm0-20a5,5,0,1,1,5-5A5,5,0,0,1,170,75Zm0-20a5,5,0,1,1,5-5A5,5,0,0,1,170,55Zm0-20a5,5,0,1,1,5-5A5,5,0,0,1,170,35Zm0-20a5,5,0,1,1,5-5A5,5,0,0,1,170,15Zm20,360a5,5,0,1,1,5-5A5,5,0,0,1,190,375Zm0-20a5,5,0,1,1,5-5A5,5,0,0,1,190,355Zm0-20a5,5,0,1,1,5-5A5,5,0,0,1,190,335Zm0-20a5,5,0,1,1,5-5A5,5,0,0,1,190,315Zm0-20a5,5,0,1,1,5-5A5,5,0,0,1,190,295Zm0-20a5,5,0,1,1,5-5A5,5,0,0,1,190,275Zm0-20a5,5,0,1,1,5-5A5,5,0,0,1,190,255Zm0-20a5,5,0,1,1,5-5A5,5,0,0,1,190,235Zm0-20a5,5,0,1,1,5-5A5,5,0,0,1,190,215Zm0-20a5,5,0,1,1,5-5A5,5,0,0,1,190,195Zm0-20a5,5,0,1,1,5-5A5,5,0,0,1,190,175Zm0-20a5,5,0,1,1,5-5A5,5,0,0,1,190,155Zm0-20a5,5,0,1,1,5-5A5,5,0,0,1,190,135Zm0-20a5,5,0,1,1,5-5A5,5,0,0,1,190,115Zm0-20a5,5,0,1,1,5-5A5,5,0,0,1,190,95Zm0-20a5,5,0,1,1,5-5A5,5,0,0,1,190,75Zm0-20a5,5,0,1,1,5-5A5,5,0,0,1,190,55Zm0-20a5,5,0,1,1,5-5A5,5,0,0,1,190,35Zm0-20a5,5,0,1,1,5-5A5,5,0,0,1,190,15Zm20,360a5,5,0,1,1,5-5A5,5,0,0,1,210,375Zm0-20a5,5,0,1,1,5-5A5,5,0,0,1,210,355Zm0-20a5,5,0,1,1,5-5A5,5,0,0,1,210,335Zm0-20a5,5,0,1,1,5-5A5,5,0,0,1,210,315Zm0-20a5,5,0,1,1,5-5A5,5,0,0,1,210,295Zm0-20a5,5,0,1,1,5-5A5,5,0,0,1,210,275Zm0-20a5,5,0,1,1,5-5A5,5,0,0,1,210,255Zm0-20a5,5,0,1,1,5-5A5,5,0,0,1,210,235Zm0-20a5,5,0,1,1,5-5A5,5,0,0,1,210,215Zm0-20a5,5,0,1,1,5-5A5,5,0,0,1,210,195Zm0-20a5,5,0,1,1,5-5A5,5,0,0,1,210,175Zm0-20a5,5,0,1,1,5-5A5,5,0,0,1,210,155Zm0-20a5,5,0,1,1,5-5A5,5,0,0,1,210,135Zm0-20a5,5,0,1,1,5-5A5,5,0,0,1,210,115Zm0-20a5,5,0,1,1,5-5A5,5,0,0,1,210,95Zm0-20a5,5,0,1,1,5-5A5,5,0,0,1,210,75Zm0-20a5,5,0,1,1,5-5A5,5,0,0,1,210,55Zm0-20a5,5,0,1,1,5-5A5,5,0,0,1,210,35Zm0-20a5,5,0,1,1,5-5A5,5,0,0,1,210,15Zm20,360a5,5,0,1,1,5-5A5,5,0,0,1,230,375Zm0-20a5,5,0,1,1,5-5A5,5,0,0,1,230,355Zm0-20a5,5,0,1,1,5-5A5,5,0,0,1,230,335Zm0-20a5,5,0,1,1,5-5A5,5,0,0,1,230,315Zm0-20a5,5,0,1,1,5-5A5,5,0,0,1,230,295Zm0-20a5,5,0,1,1,5-5A5,5,0,0,1,230,275Zm0-20a5,5,0,1,1,5-5A5,5,0,0,1,230,255Zm0-20a5,5,0,1,1,5-5A5,5,0,0,1,230,235Zm0-20a5,5,0,1,1,5-5A5,5,0,0,1,230,215Zm0-20a5,5,0,1,1,5-5A5,5,0,0,1,230,195Zm0-20a5,5,0,1,1,5-5A5,5,0,0,1,230,175Zm0-20a5,5,0,1,1,5-5A5,5,0,0,1,230,155Zm0-20a5,5,0,1,1,5-5A5,5,0,0,1,230,135Zm0-20a5,5,0,1,1,5-5A5,5,0,0,1,230,115Zm0-20a5,5,0,1,1,5-5A5,5,0,0,1,230,95Zm0-20a5,5,0,1,1,5-5A5,5,0,0,1,230,75Zm0-20a5,5,0,1,1,5-5A5,5,0,0,1,230,55Zm0-20a5,5,0,1,1,5-5A5,5,0,0,1,230,35Zm0-20a5,5,0,1,1,5-5A5,5,0,0,1,230,15Zm20,360a5,5,0,1,1,5-5A5,5,0,0,1,250,375Zm0-20a5,5,0,1,1,5-5A5,5,0,0,1,250,355Zm0-20a5,5,0,1,1,5-5A5,5,0,0,1,250,335Zm0-20a5,5,0,1,1,5-5A5,5,0,0,1,250,315Zm0-20a5,5,0,1,1,5-5A5,5,0,0,1,250,295Zm0-20a5,5,0,1,1,5-5A5,5,0,0,1,250,275Zm0-20a5,5,0,1,1,5-5A5,5,0,0,1,250,255Zm0-20a5,5,0,1,1,5-5A5,5,0,0,1,250,235Zm0-20a5,5,0,1,1,5-5A5,5,0,0,1,250,215Zm0-20a5,5,0,1,1,5-5A5,5,0,0,1,250,195Zm0-20a5,5,0,1,1,5-5A5,5,0,0,1,250,175Zm0-20a5,5,0,1,1,5-5A5,5,0,0,1,250,155Zm0-20a5,5,0,1,1,5-5A5,5,0,0,1,250,135Zm0-20a5,5,0,1,1,5-5A5,5,0,0,1,250,115Zm0-20a5,5,0,1,1,5-5A5,5,0,0,1,250,95Zm0-20a5,5,0,1,1,5-5A5,5,0,0,1,250,75Zm0-20a5,5,0,1,1,5-5A5,5,0,0,1,250,55Zm0-20a5,5,0,1,1,5-5A5,5,0,0,1,250,35Zm0-20a5,5,0,1,1,5-5A5,5,0,0,1,250,15Zm20,360a5,5,0,1,1,5-5A5,5,0,0,1,270,375Zm0-20a5,5,0,1,1,5-5A5,5,0,0,1,270,355Zm0-20a5,5,0,1,1,5-5A5,5,0,0,1,270,335Zm0-20a5,5,0,1,1,5-5A5,5,0,0,1,270,315Zm0-20a5,5,0,1,1,5-5A5,5,0,0,1,270,295Zm0-20a5,5,0,1,1,5-5A5,5,0,0,1,270,275Zm0-20a5,5,0,1,1,5-5A5,5,0,0,1,270,255Zm0-20a5,5,0,1,1,5-5A5,5,0,0,1,270,235Zm0-20a5,5,0,1,1,5-5A5,5,0,0,1,270,215Zm0-20a5,5,0,1,1,5-5A5,5,0,0,1,270,195Zm0-20a5,5,0,1,1,5-5A5,5,0,0,1,270,175Zm0-20a5,5,0,1,1,5-5A5,5,0,0,1,270,155Zm0-20a5,5,0,1,1,5-5A5,5,0,0,1,270,135Zm0-20a5,5,0,1,1,5-5A5,5,0,0,1,270,115Zm0-20a5,5,0,1,1,5-5A5,5,0,0,1,270,95Zm0-20a5,5,0,1,1,5-5A5,5,0,0,1,270,75Zm0-20a5,5,0,1,1,5-5A5,5,0,0,1,270,55Zm0-20a5,5,0,1,1,5-5A5,5,0,0,1,270,35Zm0-20a5,5,0,1,1,5-5A5,5,0,0,1,270,15Zm20,360a5,5,0,1,1,5-5A5,5,0,0,1,290,375Zm0-20a5,5,0,1,1,5-5A5,5,0,0,1,290,355Zm0-20a5,5,0,1,1,5-5A5,5,0,0,1,290,335Zm0-20a5,5,0,1,1,5-5A5,5,0,0,1,290,315Zm0-20a5,5,0,1,1,5-5A5,5,0,0,1,290,295Zm0-20a5,5,0,1,1,5-5A5,5,0,0,1,290,275Zm0-20a5,5,0,1,1,5-5A5,5,0,0,1,290,255Zm0-20a5,5,0,1,1,5-5A5,5,0,0,1,290,235Zm0-20a5,5,0,1,1,5-5A5,5,0,0,1,290,215Zm0-20a5,5,0,1,1,5-5A5,5,0,0,1,290,195Zm0-20a5,5,0,1,1,5-5A5,5,0,0,1,290,175Zm0-20a5,5,0,1,1,5-5A5,5,0,0,1,290,155Zm0-20a5,5,0,1,1,5-5A5,5,0,0,1,290,135Zm0-20a5,5,0,1,1,5-5A5,5,0,0,1,290,115Zm0-20a5,5,0,1,1,5-5A5,5,0,0,1,290,95Zm0-20a5,5,0,1,1,5-5A5,5,0,0,1,290,75Zm0-20a5,5,0,1,1,5-5A5,5,0,0,1,290,55Zm0-20a5,5,0,1,1,5-5A5,5,0,0,1,290,35Zm0-20a5,5,0,1,1,5-5A5,5,0,0,1,290,15Zm20,360a5,5,0,1,1,5-5A5,5,0,0,1,310,375Zm0-20a5,5,0,1,1,5-5A5,5,0,0,1,310,355Zm0-20a5,5,0,1,1,5-5A5,5,0,0,1,310,335Zm0-20a5,5,0,1,1,5-5A5,5,0,0,1,310,315Zm0-20a5,5,0,1,1,5-5A5,5,0,0,1,310,295Zm0-20a5,5,0,1,1,5-5A5,5,0,0,1,310,275Zm0-20a5,5,0,1,1,5-5A5,5,0,0,1,310,255Zm0-20a5,5,0,1,1,5-5A5,5,0,0,1,310,235Zm0-20a5,5,0,1,1,5-5A5,5,0,0,1,310,215Zm0-20a5,5,0,1,1,5-5A5,5,0,0,1,310,195Zm0-20a5,5,0,1,1,5-5A5,5,0,0,1,310,175Zm0-20a5,5,0,1,1,5-5A5,5,0,0,1,310,155Zm0-20a5,5,0,1,1,5-5A5,5,0,0,1,310,135Zm0-20a5,5,0,1,1,5-5A5,5,0,0,1,310,115Zm0-20a5,5,0,1,1,5-5A5,5,0,0,1,310,95Zm0-20a5,5,0,1,1,5-5A5,5,0,0,1,310,75Zm0-20a5,5,0,1,1,5-5A5,5,0,0,1,310,55Zm0-20a5,5,0,1,1,5-5A5,5,0,0,1,310,35Zm0-20a5,5,0,1,1,5-5A5,5,0,0,1,310,15Zm20,360a5,5,0,1,1,5-5A5,5,0,0,1,330,375Zm0-20a5,5,0,1,1,5-5A5,5,0,0,1,330,355Zm0-20a5,5,0,1,1,5-5A5,5,0,0,1,330,335Zm0-20a5,5,0,1,1,5-5A5,5,0,0,1,330,315Zm0-20a5,5,0,1,1,5-5A5,5,0,0,1,330,295Zm0-20a5,5,0,1,1,5-5A5,5,0,0,1,330,275Zm0-20a5,5,0,1,1,5-5A5,5,0,0,1,330,255Zm0-20a5,5,0,1,1,5-5A5,5,0,0,1,330,235Zm0-20a5,5,0,1,1,5-5A5,5,0,0,1,330,215Zm0-20a5,5,0,1,1,5-5A5,5,0,0,1,330,195Zm0-20a5,5,0,1,1,5-5A5,5,0,0,1,330,175Zm0-20a5,5,0,1,1,5-5A5,5,0,0,1,330,155Zm0-20a5,5,0,1,1,5-5A5,5,0,0,1,330,135Zm0-20a5,5,0,1,1,5-5A5,5,0,0,1,330,115Zm0-20a5,5,0,1,1,5-5A5,5,0,0,1,330,95Zm0-20a5,5,0,1,1,5-5A5,5,0,0,1,330,75Zm0-20a5,5,0,1,1,5-5A5,5,0,0,1,330,55Zm0-20a5,5,0,1,1,5-5A5,5,0,0,1,330,35Zm0-20a5,5,0,1,1,5-5A5,5,0,0,1,330,15Zm20,360a5,5,0,1,1,5-5A5,5,0,0,1,350,375Zm0-20a5,5,0,1,1,5-5A5,5,0,0,1,350,355Zm0-20a5,5,0,1,1,5-5A5,5,0,0,1,350,335Zm0-20a5,5,0,1,1,5-5A5,5,0,0,1,350,315Zm0-20a5,5,0,1,1,5-5A5,5,0,0,1,350,295Zm0-20a5,5,0,1,1,5-5A5,5,0,0,1,350,275Zm0-20a5,5,0,1,1,5-5A5,5,0,0,1,350,255Zm0-20a5,5,0,1,1,5-5A5,5,0,0,1,350,235Zm0-20a5,5,0,1,1,5-5A5,5,0,0,1,350,215Zm0-20a5,5,0,1,1,5-5A5,5,0,0,1,350,195Zm0-20a5,5,0,1,1,5-5A5,5,0,0,1,350,175Zm0-20a5,5,0,1,1,5-5A5,5,0,0,1,350,155Zm0-20a5,5,0,1,1,5-5A5,5,0,0,1,350,135Zm0-20a5,5,0,1,1,5-5A5,5,0,0,1,350,115Zm0-20a5,5,0,1,1,5-5A5,5,0,0,1,350,95Zm0-20a5,5,0,1,1,5-5A5,5,0,0,1,350,75Zm0-20a5,5,0,1,1,5-5A5,5,0,0,1,350,55Zm0-20a5,5,0,1,1,5-5A5,5,0,0,1,350,35Zm0-20a5,5,0,1,1,5-5A5,5,0,0,1,350,15Zm20,360a5,5,0,1,1,5-5A5,5,0,0,1,370,375Zm0-20a5,5,0,1,1,5-5A5,5,0,0,1,370,355Zm0-20a5,5,0,1,1,5-5A5,5,0,0,1,370,335Zm0-20a5,5,0,1,1,5-5A5,5,0,0,1,370,315Zm0-20a5,5,0,1,1,5-5A5,5,0,0,1,370,295Zm0-20a5,5,0,1,1,5-5A5,5,0,0,1,370,275Zm0-20a5,5,0,1,1,5-5A5,5,0,0,1,370,255Zm0-20a5,5,0,1,1,5-5A5,5,0,0,1,370,235Zm0-20a5,5,0,1,1,5-5A5,5,0,0,1,370,215Zm0-20a5,5,0,1,1,5-5A5,5,0,0,1,370,195Zm0-20a5,5,0,1,1,5-5A5,5,0,0,1,370,175Zm0-20a5,5,0,1,1,5-5A5,5,0,0,1,370,155Zm0-20a5,5,0,1,1,5-5A5,5,0,0,1,370,135Zm0-20a5,5,0,1,1,5-5A5,5,0,0,1,370,115Zm0-20a5,5,0,1,1,5-5A5,5,0,0,1,370,95Zm0-20a5,5,0,1,1,5-5A5,5,0,0,1,370,75Zm0-20a5,5,0,1,1,5-5A5,5,0,0,1,370,55Zm0-20a5,5,0,1,1,5-5A5,5,0,0,1,370,35Zm0-20a5,5,0,1,1,5-5A5,5,0,0,1,370,15Z"/>
</svg>
