<svg id="tesselation1" xmlns="http://www.w3.org/2000/svg" xmlns:xlink="http://www.w3.org/1999/xlink" viewBox="0 0 380 380">
  <defs>
    <style>
      .cls-1, .cls-2 {
        fill: none;
      }

      .cls-2 {
        stroke: #fff;
        stroke-linejoin: round;
      }

      .cls-3 {
        fill: url(#Diagonal_Lines);
      }
    </style>
    <pattern id="Diagonal_Lines" data-name="Diagonal Lines" width="72" height="72" patternUnits="userSpaceOnUse" viewBox="0 0 72 72">
      <rect class="cls-1" width="72" height="72"/>
      <g>
        <line class="cls-2" x1="66" y1="84" x2="84" y2="66"/>
        <line class="cls-2" x1="66" y1="90" x2="90" y2="66"/>
        <line class="cls-2" x1="66" y1="96" x2="96" y2="66"/>
        <line class="cls-2" x1="66" y1="102" x2="102" y2="66"/>
        <line class="cls-2" x1="66" y1="108" x2="108" y2="66"/>
        <line class="cls-2" x1="66" y1="114" x2="114" y2="66"/>
        <line class="cls-2" x1="66" y1="120" x2="120" y2="66"/>
        <line class="cls-2" x1="66" y1="126" x2="126" y2="66"/>
        <line class="cls-2" x1="66" y1="132" x2="132" y2="66"/>
        <line class="cls-2" x1="66" y1="138" x2="138" y2="66"/>
        <line class="cls-2" x1="66" y1="144" x2="144" y2="66"/>
        <line class="cls-2" x1="66" y1="150" x2="150" y2="66"/>
        <line class="cls-2" x1="72" y1="150" x2="150" y2="72"/>
      </g>
      <g>
        <line class="cls-2" x1="-6" y1="84" x2="12" y2="66"/>
        <line class="cls-2" x1="-6" y1="90" x2="18" y2="66"/>
        <line class="cls-2" x1="-6" y1="96" x2="24" y2="66"/>
        <line class="cls-2" x1="-6" y1="102" x2="30" y2="66"/>
        <line class="cls-2" x1="-6" y1="108" x2="36" y2="66"/>
        <line class="cls-2" x1="-6" y1="114" x2="42" y2="66"/>
        <line class="cls-2" x1="-6" y1="120" x2="48" y2="66"/>
        <line class="cls-2" x1="-6" y1="126" x2="54" y2="66"/>
        <line class="cls-2" x1="-6" y1="132" x2="60" y2="66"/>
        <line class="cls-2" x1="-6" y1="138" x2="66" y2="66"/>
        <line class="cls-2" x1="-6" y1="144" x2="72" y2="66"/>
        <line class="cls-2" x1="-6" y1="150" x2="78" y2="66"/>
        <line class="cls-2" y1="150" x2="78" y2="72"/>
      </g>
      <g>
        <line class="cls-2" x1="-78" y1="144" y2="66"/>
        <line class="cls-2" x1="-78" y1="150" x2="6" y2="66"/>
        <line class="cls-2" x1="-72" y1="150" x2="6" y2="72"/>
      </g>
      <g>
        <line class="cls-2" x1="66" y1="12" x2="84" y2="-6"/>
        <line class="cls-2" x1="66" y1="18" x2="90" y2="-6"/>
        <line class="cls-2" x1="66" y1="24" x2="96" y2="-6"/>
        <line class="cls-2" x1="66" y1="30" x2="102" y2="-6"/>
        <line class="cls-2" x1="66" y1="36" x2="108" y2="-6"/>
        <line class="cls-2" x1="66" y1="42" x2="114" y2="-6"/>
        <line class="cls-2" x1="66" y1="48" x2="120" y2="-6"/>
        <line class="cls-2" x1="66" y1="54" x2="126" y2="-6"/>
        <line class="cls-2" x1="66" y1="60" x2="132" y2="-6"/>
        <line class="cls-2" x1="66" y1="66" x2="138" y2="-6"/>
        <line class="cls-2" x1="66" y1="72" x2="144" y2="-6"/>
        <line class="cls-2" x1="66" y1="78" x2="150" y2="-6"/>
        <line class="cls-2" x1="72" y1="78" x2="150"/>
      </g>
      <g>
        <line class="cls-2" x1="-6" y1="12" x2="12" y2="-6"/>
        <line class="cls-2" x1="-6" y1="18" x2="18" y2="-6"/>
        <line class="cls-2" x1="-6" y1="24" x2="24" y2="-6"/>
        <line class="cls-2" x1="-6" y1="30" x2="30" y2="-6"/>
        <line class="cls-2" x1="-6" y1="36" x2="36" y2="-6"/>
        <line class="cls-2" x1="-6" y1="42" x2="42" y2="-6"/>
        <line class="cls-2" x1="-6" y1="48" x2="48" y2="-6"/>
        <line class="cls-2" x1="-6" y1="54" x2="54" y2="-6"/>
        <line class="cls-2" x1="-6" y1="60" x2="60" y2="-6"/>
        <line class="cls-2" x1="-6" y1="66" x2="66" y2="-6"/>
        <line class="cls-2" x1="-6" y1="72" x2="72" y2="-6"/>
        <line class="cls-2" x1="-6" y1="78" x2="78" y2="-6"/>
        <line class="cls-2" y1="78" x2="78"/>
        <line class="cls-2" x1="6" y1="78" x2="78" y2="6"/>
        <line class="cls-2" x1="12" y1="78" x2="78" y2="12"/>
        <line class="cls-2" x1="18" y1="78" x2="78" y2="18"/>
        <line class="cls-2" x1="24" y1="78" x2="78" y2="24"/>
        <line class="cls-2" x1="30" y1="78" x2="78" y2="30"/>
        <line class="cls-2" x1="36" y1="78" x2="78" y2="36"/>
        <line class="cls-2" x1="42" y1="78" x2="78" y2="42"/>
        <line class="cls-2" x1="48" y1="78" x2="78" y2="48"/>
        <line class="cls-2" x1="54" y1="78" x2="78" y2="54"/>
        <line class="cls-2" x1="60" y1="78" x2="78" y2="60"/>
        <line class="cls-2" x1="66" y1="78" x2="78" y2="66"/>
      </g>
      <g>
        <line class="cls-2" x1="-78" y1="72" y2="-6"/>
        <line class="cls-2" x1="-78" y1="78" x2="6" y2="-6"/>
        <line class="cls-2" x1="-72" y1="78" x2="6"/>
        <line class="cls-2" x1="-66" y1="78" x2="6" y2="6"/>
        <line class="cls-2" x1="-60" y1="78" x2="6" y2="12"/>
        <line class="cls-2" x1="-54" y1="78" x2="6" y2="18"/>
        <line class="cls-2" x1="-48" y1="78" x2="6" y2="24"/>
        <line class="cls-2" x1="-42" y1="78" x2="6" y2="30"/>
        <line class="cls-2" x1="-36" y1="78" x2="6" y2="36"/>
        <line class="cls-2" x1="-30" y1="78" x2="6" y2="42"/>
        <line class="cls-2" x1="-24" y1="78" x2="6" y2="48"/>
        <line class="cls-2" x1="-18" y1="78" x2="6" y2="54"/>
        <line class="cls-2" x1="-12" y1="78" x2="6" y2="60"/>
        <line class="cls-2" x1="-6" y1="78" x2="6" y2="66"/>
      </g>
      <g>
        <line class="cls-2" x1="66" x2="144" y2="-78"/>
        <line class="cls-2" x1="66" y1="6" x2="150" y2="-78"/>
        <line class="cls-2" x1="72" y1="6" x2="150" y2="-72"/>
      </g>
      <g>
        <line class="cls-2" x1="-6" x2="72" y2="-78"/>
        <line class="cls-2" x1="-6" y1="6" x2="78" y2="-78"/>
        <line class="cls-2" y1="6" x2="78" y2="-72"/>
        <line class="cls-2" x1="6" y1="6" x2="78" y2="-66"/>
        <line class="cls-2" x1="12" y1="6" x2="78" y2="-60"/>
        <line class="cls-2" x1="18" y1="6" x2="78" y2="-54"/>
        <line class="cls-2" x1="24" y1="6" x2="78" y2="-48"/>
        <line class="cls-2" x1="30" y1="6" x2="78" y2="-42"/>
        <line class="cls-2" x1="36" y1="6" x2="78" y2="-36"/>
        <line class="cls-2" x1="42" y1="6" x2="78" y2="-30"/>
        <line class="cls-2" x1="48" y1="6" x2="78" y2="-24"/>
        <line class="cls-2" x1="54" y1="6" x2="78" y2="-18"/>
        <line class="cls-2" x1="60" y1="6" x2="78" y2="-12"/>
        <line class="cls-2" x1="66" y1="6" x2="78" y2="-6"/>
      </g>
      <g>
        <line class="cls-2" x1="-78" y2="-78"/>
        <line class="cls-2" x1="-78" y1="6" x2="6" y2="-78"/>
        <line class="cls-2" x1="-72" y1="6" x2="6" y2="-72"/>
        <line class="cls-2" x1="-66" y1="6" x2="6" y2="-66"/>
        <line class="cls-2" x1="-60" y1="6" x2="6" y2="-60"/>
        <line class="cls-2" x1="-54" y1="6" x2="6" y2="-54"/>
        <line class="cls-2" x1="-48" y1="6" x2="6" y2="-48"/>
        <line class="cls-2" x1="-42" y1="6" x2="6" y2="-42"/>
        <line class="cls-2" x1="-36" y1="6" x2="6" y2="-36"/>
        <line class="cls-2" x1="-30" y1="6" x2="6" y2="-30"/>
        <line class="cls-2" x1="-24" y1="6" x2="6" y2="-24"/>
        <line class="cls-2" x1="-18" y1="6" x2="6" y2="-18"/>
        <line class="cls-2" x1="-12" y1="6" x2="6" y2="-12"/>
        <line class="cls-2" x1="-6" y1="6" x2="6" y2="-6"/>
      </g>
    </pattern>
  </defs>
  <title>lineGrid</title>
  <rect class="cls-3" width="380" height="380"/>
</svg>
