<svg id="tesselation1" xmlns="http://www.w3.org/2000/svg" xmlns:xlink="http://www.w3.org/1999/xlink" viewBox="0 0 380 380">
  <defs>
    <style>
      .cls-1, .cls-10, .cls-100, .cls-101, .cls-102, .cls-103, .cls-104, .cls-11, .cls-12, .cls-13, .cls-14, .cls-15, .cls-16, .cls-17, .cls-18, .cls-19, .cls-20, .cls-21, .cls-22, .cls-23, .cls-24, .cls-25, .cls-26, .cls-27, .cls-28, .cls-29, .cls-3, .cls-30, .cls-31, .cls-32, .cls-33, .cls-34, .cls-35, .cls-36, .cls-37, .cls-38, .cls-39, .cls-4, .cls-40, .cls-41, .cls-42, .cls-43, .cls-44, .cls-45, .cls-46, .cls-47, .cls-48, .cls-49, .cls-5, .cls-50, .cls-51, .cls-52, .cls-53, .cls-54, .cls-55, .cls-56, .cls-57, .cls-58, .cls-59, .cls-6, .cls-60, .cls-61, .cls-62, .cls-63, .cls-64, .cls-65, .cls-66, .cls-67, .cls-68, .cls-69, .cls-7, .cls-70, .cls-71, .cls-72, .cls-73, .cls-74, .cls-75, .cls-76, .cls-77, .cls-78, .cls-79, .cls-8, .cls-80, .cls-81, .cls-82, .cls-83, .cls-84, .cls-85, .cls-86, .cls-87, .cls-88, .cls-89, .cls-9, .cls-90, .cls-91, .cls-92, .cls-93, .cls-94, .cls-95, .cls-96, .cls-97, .cls-98, .cls-99 {
        fill: none;
      }

      .cls-2 {
        clip-path: url(#clip-path);
      }

      .cls-10, .cls-100, .cls-101, .cls-102, .cls-103, .cls-104, .cls-11, .cls-12, .cls-13, .cls-14, .cls-15, .cls-16, .cls-17, .cls-18, .cls-19, .cls-20, .cls-21, .cls-22, .cls-23, .cls-24, .cls-25, .cls-26, .cls-27, .cls-28, .cls-29, .cls-3, .cls-30, .cls-31, .cls-32, .cls-33, .cls-34, .cls-35, .cls-36, .cls-37, .cls-38, .cls-39, .cls-4, .cls-40, .cls-41, .cls-42, .cls-43, .cls-44, .cls-45, .cls-46, .cls-47, .cls-48, .cls-49, .cls-5, .cls-50, .cls-51, .cls-52, .cls-53, .cls-54, .cls-55, .cls-56, .cls-57, .cls-58, .cls-59, .cls-6, .cls-60, .cls-61, .cls-62, .cls-63, .cls-64, .cls-65, .cls-66, .cls-67, .cls-68, .cls-69, .cls-7, .cls-70, .cls-71, .cls-72, .cls-73, .cls-74, .cls-75, .cls-76, .cls-77, .cls-78, .cls-79, .cls-8, .cls-80, .cls-81, .cls-82, .cls-83, .cls-84, .cls-85, .cls-86, .cls-87, .cls-88, .cls-89, .cls-9, .cls-90, .cls-91, .cls-92, .cls-93, .cls-94, .cls-95, .cls-96, .cls-97, .cls-98, .cls-99 {
        stroke: #fff;
      }

      .cls-10, .cls-100, .cls-101, .cls-102, .cls-103, .cls-104, .cls-11, .cls-12, .cls-13, .cls-14, .cls-15, .cls-16, .cls-17, .cls-18, .cls-19, .cls-20, .cls-21, .cls-22, .cls-23, .cls-24, .cls-25, .cls-26, .cls-27, .cls-28, .cls-29, .cls-3, .cls-30, .cls-31, .cls-32, .cls-33, .cls-34, .cls-35, .cls-36, .cls-37, .cls-38, .cls-39, .cls-4, .cls-40, .cls-41, .cls-42, .cls-43, .cls-44, .cls-45, .cls-46, .cls-47, .cls-48, .cls-49, .cls-5, .cls-50, .cls-51, .cls-52, .cls-53, .cls-54, .cls-55, .cls-56, .cls-57, .cls-58, .cls-59, .cls-60, .cls-61, .cls-62, .cls-63, .cls-64, .cls-65, .cls-66, .cls-67, .cls-68, .cls-69, .cls-7, .cls-70, .cls-71, .cls-72, .cls-73, .cls-74, .cls-75, .cls-76, .cls-77, .cls-78, .cls-79, .cls-8, .cls-80, .cls-81, .cls-82, .cls-83, .cls-84, .cls-85, .cls-86, .cls-87, .cls-88, .cls-89, .cls-9, .cls-90, .cls-91, .cls-92, .cls-93, .cls-94, .cls-95, .cls-96, .cls-97, .cls-98, .cls-99 {
        stroke-miterlimit: 10;
      }

      .cls-4 {
        stroke-width: 1.02px;
      }

      .cls-5 {
        stroke-width: 1.04px;
      }

      .cls-6 {
        stroke-miterlimit: 10;
        stroke-width: 1.059px;
      }

      .cls-7 {
        stroke-width: 1.079px;
      }

      .cls-8 {
        stroke-width: 1.099px;
      }

      .cls-9 {
        stroke-width: 1.119px;
      }

      .cls-10 {
        stroke-width: 1.139px;
      }

      .cls-11 {
        stroke-width: 1.158px;
      }

      .cls-12 {
        stroke-width: 1.178px;
      }

      .cls-13 {
        stroke-width: 1.198px;
      }

      .cls-14 {
        stroke-width: 1.218px;
      }

      .cls-15 {
        stroke-width: 1.238px;
      }

      .cls-16 {
        stroke-width: 1.257px;
      }

      .cls-17 {
        stroke-width: 1.277px;
      }

      .cls-18 {
        stroke-width: 1.297px;
      }

      .cls-19 {
        stroke-width: 1.317px;
      }

      .cls-20 {
        stroke-width: 1.337px;
      }

      .cls-21 {
        stroke-width: 1.356px;
      }

      .cls-22 {
        stroke-width: 1.376px;
      }

      .cls-23 {
        stroke-width: 1.396px;
      }

      .cls-24 {
        stroke-width: 1.416px;
      }

      .cls-25 {
        stroke-width: 1.436px;
      }

      .cls-26 {
        stroke-width: 1.455px;
      }

      .cls-27 {
        stroke-width: 1.475px;
      }

      .cls-28 {
        stroke-width: 1.495px;
      }

      .cls-29 {
        stroke-width: 1.515px;
      }

      .cls-30 {
        stroke-width: 1.535px;
      }

      .cls-31 {
        stroke-width: 1.554px;
      }

      .cls-32 {
        stroke-width: 1.574px;
      }

      .cls-33 {
        stroke-width: 1.594px;
      }

      .cls-34 {
        stroke-width: 1.614px;
      }

      .cls-35 {
        stroke-width: 1.634px;
      }

      .cls-36 {
        stroke-width: 1.653px;
      }

      .cls-37 {
        stroke-width: 1.673px;
      }

      .cls-38 {
        stroke-width: 1.693px;
      }

      .cls-39 {
        stroke-width: 1.713px;
      }

      .cls-40 {
        stroke-width: 1.733px;
      }

      .cls-41 {
        stroke-width: 1.752px;
      }

      .cls-42 {
        stroke-width: 1.772px;
      }

      .cls-43 {
        stroke-width: 1.792px;
      }

      .cls-44 {
        stroke-width: 1.812px;
      }

      .cls-45 {
        stroke-width: 1.832px;
      }

      .cls-46 {
        stroke-width: 1.851px;
      }

      .cls-47 {
        stroke-width: 1.871px;
      }

      .cls-48 {
        stroke-width: 1.891px;
      }

      .cls-49 {
        stroke-width: 1.911px;
      }

      .cls-50 {
        stroke-width: 1.931px;
      }

      .cls-51 {
        stroke-width: 1.95px;
      }

      .cls-52 {
        stroke-width: 1.97px;
      }

      .cls-53 {
        stroke-width: 1.99px;
      }

      .cls-54 {
        stroke-width: 2.01px;
      }

      .cls-55 {
        stroke-width: 2.03px;
      }

      .cls-56 {
        stroke-width: 2.05px;
      }

      .cls-57 {
        stroke-width: 2.069px;
      }

      .cls-58 {
        stroke-width: 2.089px;
      }

      .cls-59 {
        stroke-width: 2.109px;
      }

      .cls-60 {
        stroke-width: 2.129px;
      }

      .cls-61 {
        stroke-width: 2.149px;
      }

      .cls-62 {
        stroke-width: 2.168px;
      }

      .cls-63 {
        stroke-width: 2.188px;
      }

      .cls-64 {
        stroke-width: 2.208px;
      }

      .cls-65 {
        stroke-width: 2.228px;
      }

      .cls-66 {
        stroke-width: 2.248px;
      }

      .cls-67 {
        stroke-width: 2.267px;
      }

      .cls-68 {
        stroke-width: 2.287px;
      }

      .cls-69 {
        stroke-width: 2.307px;
      }

      .cls-70 {
        stroke-width: 2.327px;
      }

      .cls-71 {
        stroke-width: 2.347px;
      }

      .cls-72 {
        stroke-width: 2.366px;
      }

      .cls-73 {
        stroke-width: 2.386px;
      }

      .cls-74 {
        stroke-width: 2.406px;
      }

      .cls-75 {
        stroke-width: 2.426px;
      }

      .cls-76 {
        stroke-width: 2.446px;
      }

      .cls-77 {
        stroke-width: 2.465px;
      }

      .cls-78 {
        stroke-width: 2.485px;
      }

      .cls-79 {
        stroke-width: 2.505px;
      }

      .cls-80 {
        stroke-width: 2.525px;
      }

      .cls-81 {
        stroke-width: 2.545px;
      }

      .cls-82 {
        stroke-width: 2.564px;
      }

      .cls-83 {
        stroke-width: 2.584px;
      }

      .cls-84 {
        stroke-width: 2.604px;
      }

      .cls-85 {
        stroke-width: 2.624px;
      }

      .cls-86 {
        stroke-width: 2.644px;
      }

      .cls-87 {
        stroke-width: 2.663px;
      }

      .cls-88 {
        stroke-width: 2.683px;
      }

      .cls-89 {
        stroke-width: 2.703px;
      }

      .cls-90 {
        stroke-width: 2.723px;
      }

      .cls-91 {
        stroke-width: 2.743px;
      }

      .cls-92 {
        stroke-width: 2.762px;
      }

      .cls-93 {
        stroke-width: 2.782px;
      }

      .cls-94 {
        stroke-width: 2.802px;
      }

      .cls-95 {
        stroke-width: 2.822px;
      }

      .cls-96 {
        stroke-width: 2.842px;
      }

      .cls-97 {
        stroke-width: 2.861px;
      }

      .cls-98 {
        stroke-width: 2.881px;
      }

      .cls-99 {
        stroke-width: 2.901px;
      }

      .cls-100 {
        stroke-width: 2.921px;
      }

      .cls-101 {
        stroke-width: 2.941px;
      }

      .cls-102 {
        stroke-width: 2.96px;
      }

      .cls-103 {
        stroke-width: 2.98px;
      }

      .cls-104 {
        stroke-width: 3px;
      }
    </style>
    <clipPath id="clip-path">
      <rect class="cls-1" width="380" height="380"/>
    </clipPath>
  </defs>
  <title>warpGrid</title>
  <g class="cls-2">
    <g>
      <path class="cls-3" d="M-332.126,24.934C-287.244,79.79-239.37,144.619-200.472,6.982S-226.4-280.262-65.827-163.57s347.087,37.9,365.039-1"/>
      <path class="cls-4" d="M-328.2,31.294c46,53.611,93.615,119.428,133.846-18.506S-220.914-275-60.86-159.857,285.7-122.1,303.824-161.16"/>
      <path class="cls-5" d="M-324.265,37.653c47.114,52.367,94.474,119.172,136.038-19.059s-27.2-288.33,132.335-174.738,346.04,37.6,364.328-1.61"/>
      <path class="cls-6" d="M-320.335,44.013C-272.106,95.136-225,162.928-182.1,24.4s-27.828-288.873,131.18-176.832,345.516,37.456,363.973-1.916"/>
      <path class="cls-7" d="M-316.4,50.372c49.345,49.879,96.192,118.658,140.423-20.165s-28.46-289.417,130.024-178.925,344.993,37.308,363.617-2.222"/>
      <path class="cls-8" d="M-312.475,56.732c50.461,48.634,97.052,118.4,142.615-20.718S-198.952-253.946-40.991-145s344.47,37.16,363.262-2.528"/>
      <path class="cls-9" d="M-308.544,63.091c51.577,47.39,97.911,118.145,144.807-21.271s-29.724-290.5,127.713-183.112,343.946,37.012,362.906-2.834"/>
      <path class="cls-10" d="M-304.614,69.451c52.693,46.146,98.77,117.888,147-21.824S-187.971-243.419-31.057-137.579s343.423,36.863,362.551-3.14"/>
      <path class="cls-11" d="M-300.684,75.81c53.809,44.9,99.629,117.631,149.192-22.377s-30.988-291.589,125.4-187.3,342.9,36.715,362.2-3.446"/>
      <path class="cls-12" d="M-296.754,82.17c54.925,43.657,100.488,117.374,151.384-22.93S-176.99-232.892-21.123-130.153s342.376,36.567,361.84-3.753"/>
      <path class="cls-13" d="M-292.823,88.529c56.041,42.413,101.347,117.118,153.576-23.483S-171.5-227.629-16.156-126.44,325.7-90.021,345.329-130.5"/>
      <path class="cls-14" d="M-288.893,94.889c57.157,41.169,102.206,116.861,155.768-24.036s-32.884-293.218,121.937-193.58,341.329,36.271,361.129-4.365"/>
      <path class="cls-15" d="M-284.963,101.248C-226.691,141.173-181.9,217.852-127,76.66S-160.518-217.1-6.221-119.014s340.806,36.123,360.773-4.671"/>
      <path class="cls-16" d="M-281.033,107.608c59.388,38.68,103.925,116.347,160.153-25.142S-155.028-211.839-1.254-115.3s340.283,35.975,360.418-4.977"/>
      <path class="cls-17" d="M-277.1,113.967c60.5,37.436,104.784,116.091,162.345-25.695s-34.78-294.848,118.47-199.86,339.759,35.827,360.062-5.283"/>
      <path class="cls-18" d="M-273.172,120.327c61.62,36.192,105.643,115.834,164.537-26.248S-144.047-201.312,8.68-107.875,347.916-72.2,368.387-113.464"/>
      <path class="cls-19" d="M-269.242,126.686c62.736,34.948,106.5,115.577,166.73-26.8s-36.044-295.934,116.16-204.047S352.36-68.631,373-110.057"/>
      <path class="cls-20" d="M-265.312,133.046c63.852,33.7,107.361,115.32,168.922-27.354s-36.676-296.477,115-206.141,338.189,35.382,359-6.2"/>
      <path class="cls-21" d="M-261.381,139.405c64.968,32.459,108.22,115.064,171.114-27.907S-127.575-185.522,23.582-96.736s337.666,35.234,358.64-6.508"/>
      <path class="cls-22" d="M-257.451,145.765c66.084,31.215,109.079,114.807,173.306-28.46S-122.085-180.258,28.549-93.023s337.142,35.086,358.285-6.814"/>
      <path class="cls-23" d="M-253.521,152.124c67.2,29.971,109.938,114.55,175.5-29.013S-116.594-174.995,33.516-89.31s336.619,34.938,357.929-7.12"/>
      <path class="cls-24" d="M-249.591,158.484c68.315,28.726,110.8,114.293,177.691-29.566S-111.1-169.732,38.483-85.6s336.1,34.79,357.574-7.426"/>
      <path class="cls-25" d="M-245.66,164.843C-176.229,192.326-134,278.88-65.777,134.725S-105.613-164.468,43.45-81.884s335.572,34.642,357.218-7.732"/>
      <path class="cls-26" d="M-241.73,171.2c70.547,26.238,112.516,113.78,182.075-30.672S-100.123-159.2,48.417-78.171,383.466-43.677,405.28-86.209"/>
      <path class="cls-27" d="M-237.8,177.562c71.663,24.994,113.375,113.523,184.268-31.225s-41.1-300.279,106.917-220.8S387.91-40.112,409.892-82.8"/>
      <path class="cls-28" d="M-233.87,183.922c72.779,23.749,114.234,113.266,186.46-31.778S-89.142-148.678,58.351-70.745s334,34.2,356.152-8.651"/>
      <path class="cls-29" d="M-229.939,190.281c73.895,22.505,115.093,113.01,188.652-32.331S-83.651-143.415,63.319-67.032s333.479,34.049,355.8-8.957"/>
      <path class="cls-30" d="M-226.009,196.641C-151,217.9-110.057,309.394-35.165,163.757s-43-301.908,103.451-227.076,332.955,33.9,355.441-9.263"/>
      <path class="cls-31" d="M-222.079,203c76.126,20.017,116.811,112.5,193.037-33.437S-72.67-132.888,73.253-59.606s332.432,33.753,355.085-9.569"/>
      <path class="cls-32" d="M-218.149,209.36C-140.906,228.132-100.478,321.6-22.92,175.37S-67.18-127.625,78.22-55.893s331.909,33.6,354.73-9.875"/>
      <path class="cls-33" d="M-214.218,215.719C-135.86,233.248-95.689,327.7-16.8,181.177S-61.689-122.361,83.187-52.18,414.572-18.723,437.561-62.361"/>
      <path class="cls-34" d="M-210.288,222.079C-130.814,238.363-90.9,333.8-10.675,186.983S-56.2-117.1,88.154-48.467,419.016-15.158,442.173-58.954"/>
      <path class="cls-35" d="M-206.358,228.438c80.59,15.04,120.248,111.469,201.806-35.649S-50.708-111.834,93.121-44.754,423.46-11.593,446.785-55.547"/>
      <path class="cls-36" d="M-202.428,234.8c81.706,13.8,121.107,111.212,204-36.2S-45.218-106.571,98.088-41.041,427.9-8.028,451.4-52.14"/>
      <path class="cls-37" d="M-198.5,241.157C-115.676,253.709-76.531,352.113,7.693,204.4s-47.42-305.71,95.363-241.73S432.347-4.464,456.008-48.733"/>
      <path class="cls-38" d="M-194.567,247.517c83.938,11.307,122.825,110.7,208.382-37.308S-34.237-96.044,108.023-33.615,436.791-.9,460.62-45.326"/>
      <path class="cls-39" d="M-190.637,253.876c85.053,10.063,123.684,110.442,210.575-37.861S-28.746-90.781,112.99-29.9,441.235,2.666,465.231-41.919"/>
      <path class="cls-40" d="M-186.707,260.236c86.169,8.818,124.544,110.185,212.767-38.414s-49.316-307.34,91.9-248.011S445.679,6.231,469.843-38.513"/>
      <path class="cls-41" d="M-182.776,266.6c87.285,7.574,125.4,109.929,214.959-38.967s-49.948-307.883,90.741-250.1,327.2,32.272,351.53-12.63"/>
      <path class="cls-42" d="M-178.846,272.955c88.4,6.33,126.262,109.672,217.151-39.52s-50.58-308.426,89.586-252.2S454.566,13.361,479.066-31.7"/>
      <path class="cls-43" d="M-174.916,279.314C-85.4,284.4-47.8,388.73,44.428,239.242S-6.784-69.727,132.858-15.05,459.01,16.926,483.678-28.292"/>
      <path class="cls-44" d="M-170.986,285.674c90.633,3.841,127.98,109.158,221.536-40.626S-1.294-64.464,137.825-11.337,463.454,20.491,488.289-24.885"/>
      <path class="cls-45" d="M-167.055,292.033c91.749,2.6,128.839,108.9,223.728-41.179S4.2-59.2,142.793-7.624,467.9,24.056,492.9-21.478"/>
      <path class="cls-46" d="M-163.125,298.393c92.865,1.353,129.7,108.645,225.92-41.732S9.687-53.937,147.76-3.911,472.341,27.62,497.513-18.071"/>
      <path class="cls-47" d="M-159.195,304.752c93.98.109,130.557,108.388,228.113-42.285S15.178-48.674,152.727-.2s324.058,31.383,349.4-14.467"/>
      <path class="cls-48" d="M-155.265,311.112c95.1-1.136,131.417,108.131,230.3-42.838S20.668-43.411,157.694,3.516,481.229,34.75,506.736-11.258"/>
      <path class="cls-49" d="M-151.334,317.471c96.212-2.38,132.276,107.875,232.5-43.391s-55-312.228,81.5-266.852S485.672,38.315,511.347-7.851"/>
      <path class="cls-50" d="M-147.4,323.831c97.328-3.624,133.135,107.618,234.689-43.944S31.649-32.884,167.628,10.942,490.116,41.88,515.959-4.444"/>
      <path class="cls-51" d="M-143.474,330.19c98.444-4.868,133.994,107.361,236.882-44.5S37.14-27.62,172.6,14.655,494.56,45.445,520.571-1.037"/>
      <path class="cls-52" d="M-139.544,336.55c99.56-6.113,134.853,107.1,239.074-45.05S42.63-22.357,177.562,18.368,499,49.01,525.182,2.37"/>
      <path class="cls-53" d="M-135.613,342.909C-34.938,335.553.1,449.757,105.653,297.307S48.121-17.094,182.53,22.081s320.918,30.494,347.264-16.3"/>
      <path class="cls-54" d="M-131.683,349.269c101.792-8.6,136.571,106.591,243.458-46.156S53.611-11.83,187.5,25.794,507.891,56.139,534.406,9.184"/>
      <path class="cls-55" d="M-127.753,355.628C-24.846,345.783,9.678,461.963,117.9,308.92S59.1-6.567,192.464,29.507,512.335,59.7,539.017,12.591"/>
      <path class="cls-56" d="M-123.823,361.988C-19.8,350.9,14.467,468.065,124.02,314.726S64.592-1.3,197.431,33.22,516.779,63.269,543.629,16"/>
      <path class="cls-57" d="M-119.892,368.347c105.139-12.334,139.149,105.821,250.035-47.815S70.083,3.96,202.4,36.933,521.222,66.834,548.24,19.4"/>
      <path class="cls-58" d="M-115.962,374.707C-9.707,361.129,24.046,480.271,136.265,326.339S75.573,9.223,207.365,40.646,525.666,70.4,552.852,22.811"/>
      <path class="cls-59" d="M-112.032,381.067c107.371-14.822,140.867,105.307,254.42-48.921S81.064,14.487,212.332,44.359,530.11,73.964,557.464,26.218"/>
      <path class="cls-60" d="M-108.1,387.426C.385,371.359,33.624,492.476,148.51,337.952S86.554,19.75,217.3,48.072,534.554,77.529,562.075,29.625"/>
      <path class="cls-61" d="M-104.171,393.786c109.6-17.311,142.585,104.794,258.8-50.027S92.045,25.013,222.267,51.785,539,81.094,566.687,33.032"/>
      <path class="cls-62" d="M-100.241,400.145c110.719-18.555,143.444,104.537,261-50.58S97.535,30.277,227.234,55.5,543.441,84.658,571.3,36.439"/>
      <path class="cls-63" d="M-96.311,406.5c111.834-19.8,144.3,104.28,263.189-51.133S103.026,35.54,232.2,59.211,547.885,88.223,575.91,39.846"/>
      <path class="cls-64" d="M-92.381,412.864C20.57,391.82,52.782,516.887,173,361.178S108.516,40.8,237.168,62.924,552.329,91.788,580.522,43.253"/>
      <path class="cls-65" d="M-88.45,419.224C25.616,396.936,57.571,522.99,179.123,366.985S114.007,46.067,242.135,66.637s314.637,28.717,343-19.977"/>
      <path class="cls-66" d="M-84.52,425.583c115.182-23.532,146.881,103.51,269.765-52.792S119.5,51.33,247.1,70.35,561.216,98.918,589.745,50.066"/>
      <path class="cls-67" d="M-80.59,431.943C35.708,407.166,67.15,535.2,191.368,378.6s-66.38-322,60.7-304.535,313.591,28.42,342.287-20.589"/>
      <path class="cls-68" d="M-76.66,438.3c117.414-26.021,148.6,103,274.15-53.9S130.478,61.857,257.036,77.776,570.1,106.048,598.968,56.88"/>
      <path class="cls-69" d="M-72.729,444.662C45.8,417.4,76.729,547.4,203.613,390.211S135.969,67.12,262,81.489s312.544,28.124,341.576-21.2"/>
      <path class="cls-70" d="M-68.8,451.021c119.646-28.509,150.317,102.483,278.534-55S141.459,72.384,266.971,85.2s312.02,27.976,341.221-21.508"/>
      <path class="cls-71" d="M-64.869,457.381C55.893,427.627,86.308,559.607,215.858,401.824S146.95,77.647,271.938,88.915,583.435,116.742,612.8,67.1"/>
      <path class="cls-72" d="M-60.939,463.74c121.877-31,152.036,101.969,282.919-56.11s-69.54-324.72,54.925-315,310.974,27.68,340.51-22.12"/>
      <path class="cls-73" d="M-57.008,470.1C65.985,437.858,95.886,571.812,228.1,413.437s-70.172-325.263,53.769-317.1,310.45,27.532,340.154-22.426"/>
      <path class="cls-74" d="M-53.078,476.459c124.109-33.486,153.754,101.456,287.3-57.216s-70.8-325.806,52.614-319.19,309.927,27.383,339.8-22.732"/>
      <path class="cls-75" d="M-49.148,482.819c125.225-34.73,154.613,101.2,289.5-57.769S168.912,98.7,291.806,103.767,601.21,131,631.25,80.728"/>
      <path class="cls-76" d="M-45.218,489.178C81.123,453.2,110.254,590.12,246.47,430.856S174.4,103.964,296.773,107.48s308.88,27.087,339.088-23.345"/>
      <path class="cls-77" d="M-41.287,495.538c127.457-37.219,156.331,100.686,293.88-58.875s-72.7-327.435,49.148-325.47S610.1,138.132,640.473,87.542"/>
      <path class="cls-78" d="M-37.357,501.9c128.573-38.463,157.19,100.429,296.072-59.428s-73.332-327.978,47.993-327.564S614.541,141.7,645.085,90.949"/>
      <path class="cls-79" d="M-33.427,508.257c129.688-39.707,158.049,100.172,298.265-59.981s-73.964-328.522,46.837-329.657S618.985,145.261,649.7,94.356"/>
      <path class="cls-80" d="M-29.5,514.616c130.8-40.952,158.909,99.915,300.457-60.534s-74.6-329.065,45.682-331.751,306.787,26.495,337.666-24.569"/>
      <path class="cls-81" d="M-25.566,520.976c131.92-42.2,159.768,99.659,302.649-61.087s-75.228-329.608,44.526-333.844,306.263,26.347,337.31-24.875"/>
      <path class="cls-82" d="M-21.636,527.335c133.036-43.44,160.627,99.4,304.841-61.64s-75.86-330.151,43.371-335.938,305.74,26.2,336.955-25.181"/>
      <path class="cls-83" d="M-17.706,533.695C116.446,489.01,143.78,632.84,289.328,471.5s-76.492-330.694,42.216-338.031,305.217,26.05,336.6-25.487"/>
      <path class="cls-84" d="M-13.776,540.054c135.268-45.929,162.345,98.888,309.226-62.746s-77.124-331.237,41.06-340.125,304.693,25.9,336.244-25.794"/>
      <path class="cls-85" d="M-9.845,546.414c136.384-47.173,163.2,98.632,311.418-63.3s-77.756-331.78,39.9-342.218,304.17,25.754,335.888-26.1"/>
      <path class="cls-86" d="M-5.915,552.773c137.5-48.417,164.063,98.375,313.61-63.852S229.307,156.6,346.445,144.61,650.091,170.215,681.978,118.2"/>
      <path class="cls-87" d="M-1.985,559.133c138.615-49.661,164.922,98.118,315.8-64.4S234.8,161.861,351.412,148.323s303.123,25.458,335.177-26.712"/>
      <path class="cls-88" d="M1.945,565.492c139.731-50.906,165.782,97.861,317.995-64.958s-79.652-333.41,36.439-348.5,302.6,25.31,334.822-27.018"/>
      <path class="cls-89" d="M5.876,571.852c140.847-52.15,166.641,97.6,320.187-65.511s-80.284-333.953,35.283-350.592,302.076,25.162,334.466-27.324"/>
      <path class="cls-90" d="M9.806,578.211c141.963-53.394,167.5,97.348,322.379-66.064s-80.916-334.5,34.128-352.686,301.553,25.013,334.111-27.63"/>
      <path class="cls-91" d="M13.736,584.571c143.079-54.638,168.359,97.091,324.572-66.617S256.76,182.915,371.28,163.175s301.03,24.865,333.755-27.936"/>
      <path class="cls-92" d="M17.666,590.93c144.195-55.883,169.218,96.834,326.764-67.17s-82.18-335.582,31.817-356.873,300.506,24.717,333.4-28.243"/>
      <path class="cls-93" d="M21.6,597.29c145.311-57.127,170.077,96.578,328.956-67.723S267.741,193.441,381.215,170.6,681.2,195.17,714.259,142.052"/>
      <path class="cls-94" d="M25.527,603.649c146.427-58.371,170.936,96.321,331.148-68.276S273.231,198.7,386.182,174.314s299.459,24.421,332.689-28.855"/>
      <path class="cls-95" d="M29.457,610.009C177,550.393,201.253,706.073,362.8,541.18s-84.076-337.212,28.351-363.153S690.085,202.3,723.482,148.866"/>
      <path class="cls-96" d="M33.387,616.368c148.658-60.86,172.655,95.807,335.533-69.382s-84.708-337.755,27.2-365.247,298.413,24.125,331.978-29.467"/>
      <path class="cls-97" d="M37.318,622.728c149.774-62.1,173.514,95.551,337.725-69.935s-85.34-338.3,26.04-367.34,297.889,23.977,331.622-29.773"/>
      <path class="cls-98" d="M41.248,629.087c150.89-63.348,174.373,95.294,339.917-70.488S295.193,219.758,406.05,189.166s297.366,23.828,331.267-30.079"/>
      <path class="cls-99" d="M45.178,635.447c152.006-64.592,175.232,95.037,342.11-71.041s-86.6-339.384,23.73-371.527,296.843,23.68,330.911-30.385"/>
      <path class="cls-100" d="M49.108,641.806c153.122-65.837,176.091,94.78,344.3-71.594s-87.236-339.927,22.574-373.621S712.3,220.124,746.54,165.9"/>
      <path class="cls-101" d="M53.039,648.166c154.238-67.081,176.95,94.524,346.494-72.147S311.665,235.548,420.952,200.3s295.8,23.384,330.2-31"/>
      <path class="cls-102" d="M56.969,654.525c155.354-68.325,177.809,94.267,348.686-72.7s-88.5-341.013,20.264-377.808,295.272,23.236,329.845-31.3"/>
      <path class="cls-103" d="M60.9,660.885c156.469-69.569,178.668,94.01,350.879-73.253s-89.132-341.557,19.108-379.9,294.749,23.088,329.489-31.61"/>
      <path class="cls-104" d="M64.829,667.244C222.415,596.43,244.357,761,417.9,593.438s-89.764-342.1,17.953-381.995,294.226,22.94,329.134-31.916"/>
    </g>
  </g>
</svg>
