<svg xmlns="http://www.w3.org/2000/svg" width="1000" height="1000" viewBox="0 0 1000 1000">
  <defs>
    <style>
      .cls-1, .cls-2 {
        stroke: #fff;
        stroke-miterlimit: 10;
        stroke-width: 7px;
      }

      .cls-2 {
        fill: none;
      }
    </style>
  </defs>
  <title>logo_large_v2</title>
  <g id="BG_Circle">
    <path class="cls-1" d="M979,500.006C979,764.548,764.548,979,500,979S21,764.548,21,500.006,235.46,21,500,21,979,235.45,979,500.006Z"/>
  </g>
  <g id="SH">
    <g>
      <path class="cls-2" d="M852.972,500.006c0-192.221-155.815-348.039-348.031-348.039h-4.932c-192.221,0-348.037,155.818-348.037,348.039H500l4.937,348.036c192.216,0,348.031-155.815,348.031-348.036H678.966a178.953,178.953,0,0,0-178.957-178.95"/>
      <path class="cls-2" d="M500.009,678.956a178.955,178.955,0,0,0,178.957-178.95"/>
      <path class="cls-2" d="M189.537,657.447C247,770.541,369.385,848.042,504.941,848.042"/>
    </g>
  </g>
</svg>
